<?xml version="1.0" encoding="UTF-8"?>
<svg id="Layer_1" data-name="Layer 1" xmlns="http://www.w3.org/2000/svg" viewBox="0 0 91.74 104.26">
  <defs>
    <style>
      .cls-1 {
        fill: #ffa950;
      }

      .cls-2 {
        fill: #ffdb9c;
      }

      .cls-3 {
        fill: #ffda9b;
      }

      .cls-4 {
        fill: #ffeabe;
      }

      .cls-5 {
        fill: #ffb956;
      }

      .cls-6 {
        fill: #ffb550;
      }

      .cls-7 {
        fill: #ffdca0;
      }

      .cls-8 {
        fill: #ffe5b2;
      }

      .cls-9 {
        fill: #ffc172;
      }

      .cls-10 {
        fill: #ffdea4;
      }

      .cls-11 {
        fill: #ffda95;
      }

      .cls-12 {
        fill: #ffcc83;
      }

      .cls-13 {
        fill: #ffd284;
      }

      .cls-14 {
        fill: #ffdfa1;
      }

      .cls-15 {
        fill: #ffdda2;
      }

      .cls-16 {
        fill: #ffeabb;
      }

      .cls-17 {
        fill: #ffdfa6;
      }

      .cls-18 {
        fill: #ffe1a9;
      }

      .cls-19 {
        fill: #ffc170;
      }

      .cls-20 {
        fill: #ffcb81;
      }

      .cls-21 {
        fill: #ffbf6e;
      }

      .cls-22 {
        fill: #ffd28d;
      }

      .cls-23 {
        fill: #ffbe62;
      }

      .cls-24 {
        fill: #ffcf83;
      }

      .cls-25 {
        fill: #ffca7f;
      }

      .cls-26 {
        fill: #ffd388;
      }

      .cls-27 {
        fill: #ffd080;
      }

      .cls-28 {
        fill: #ffe1a7;
      }

      .cls-29 {
        fill: #ffd894;
      }

      .cls-30 {
        fill: #ffd897;
      }

      .cls-31 {
        fill: #ffde9e;
      }

      .cls-32 {
        fill: #ffe9b9;
      }

      .cls-33 {
        fill: #ffb662;
      }

      .cls-34 {
        fill: #ffd181;
      }

      .cls-35 {
        fill: #ffd48a;
      }

      .cls-36 {
        fill: #ffdb96;
      }

      .cls-37 {
        fill: #ffd38e;
      }

      .cls-38 {
        fill: #ffcb7c;
      }

      .cls-39 {
        fill: #ffd58f;
      }

      .cls-40 {
        fill: #ffd38d;
      }

      .cls-41 {
        fill: #ffe5b1;
      }

      .cls-42 {
        fill: #ffc472;
      }

      .cls-43 {
        fill: #ffd78f;
      }

      .cls-44 {
        fill: #ffe2a8;
      }

      .cls-45 {
        fill: #ffe7b1;
      }

      .cls-46 {
        fill: #ffd68e;
      }

      .cls-47 {
        fill: #ffc26a;
      }

      .cls-48 {
        fill: #ffe0a6;
      }

      .cls-49 {
        fill: #ffcd7b;
      }

      .cls-50 {
        fill: #ffe7b6;
      }

      .cls-51 {
        fill: #ffe2ab;
      }

      .cls-52 {
        fill: #ffd088;
      }

      .cls-53 {
        fill: #ffe4b0;
      }

      .cls-54 {
        fill: #ffc775;
      }

      .cls-55 {
        fill: #ff9e44;
      }
    </style>
  </defs>
  <path class="cls-4" d="M32.34,100.14c-2.37-.49-4.36-1.78-6.41-2.98-7.87-4.63-14.09-10.89-18.76-18.74-2.84-4.78-4.71-9.92-5.97-15.29-.31-1.33-.44-2.7-.65-4.05,2.4-.26,4.8-.56,7.1,.52,.76,.86,1.17,2.38,2.78,1.74,1.77-.71,1.31-2.35,1.37-3.75,.7-1.38,1.82-1.02,2.94-.73,.56,.23,1.37,.34,1.46,.97,.18,1.22,.86,1.44,1.91,1.39,.7-.04,1.15,.38,1.2,1.11,.05,.74-.33,1.06-1.03,1.26-.83,.23-2.11,.36-2.08,1.4,.04,1.09,1.16,1.48,2.24,1.56,.22,.02,.41,.2,.56,.37,.24,.46,.04,.82-.26,1.15-1.5,.2,.38,.74-.1,1.04-.12,1.11-2.02,.34-1.84,1.75,.16,.12,.3,.25,.46,.37,1.31,1.58,.59,2.39-.95,2.89,1.16,.47,2.11,2.06,3.89,1.1,.42-.23,.89,.37,.57,.86-.6,.92-.55,2.26-1.79,2.76-.22-.01-.41-.09-.58-.23-.75-1.33-2.19-.75-2.81-1.1-.77-.12-.63,.33-.63,.02,0-.06,.07-.06,.22-.05,1.34,.03,2.11,.67,2.35,2.01,.19,1.08,.74,1.81,2.01,1.58,.21,.07,.37,.2,.5,.38,.22,.47,.39,.97,.79,1.38,.95-2.32,2.64-3.52,4.63-3.33,.53,.05,1.21,.08,1.31,.69,.11,.62-.47,.88-1.02,1.03-.35,.1-.76,.14-.93,.81,1.31,0,2.56-.29,3.81-.18,.79,.07,1.82-.61,2.3,.36,.55,1.12,.48,3.07-.16,3.42-2,1.09-1.7,3.28-2.43,4.16,.34-.83,1.34-1.71,3.03-1.1,.33,.04,.64,.13,.93,.28,1.23,1.45,1.66,4.51,.8,6.03-.27,.47-.66,.85-.26,1.41,.1,.18,.16,.37,.18,.57-.14,.81,.53,1.26,.84,1.87,.04,.21,.03,.42-.05,.62-.28,.56-.88,.58-1.37,.79,.77,.68,.54,1.28-.13,1.86Z"/>
  <path class="cls-16" d="M14.82,57.24c-.93,.1-2.01-.7-2.76,.46q-3.25-.54-4.61,2.31c-.3-.21-.66-.66-.89-.6-2.04,.52-4.01-.04-6-.32-.66-3.24-.63-6.54-.43-9.8,.29-4.54,.8-9.07,2.68-13.31,.65,.44,.33,1.31,.88,1.98,.73-.41,1.18-1.25,2.18-1.33,.61-.05,1.86-.22,1.17-1.59-.23-.45,.38-.81,.63-.71,1.59,.67,2.61-1.95,4.23-.68,.16,.12,.13,.43,.22,.63,.09-.69-.39-1.08-.8-1.54-.57-.64-.69-1.86-.17-2.06,1.46-.57,1.27-1.54,1.2-2.67-.03-.46,.46-.86,.97-.75,1.93,.44,3.94,.44,5.84,1.01,.77,.23,1.19,.66,1.01,1.51-.08,.21-.22,.37-.4,.5-1.56-.04-3.09,1.44-4.32,.39,1,.26,1.66,1.34,1.94,2.72,.09,.46,.2,.99-.08,1.34-.71,.91-2.51,1.49-.73,3.04,.14,.12-.51,.47-.78,.72-1.58,1.54,.42,3.06,.06,4.65-.17,.76,.7,.87,1.34,.83,1.08-.06,1.83,.38,1.98,1.47,.15,1.09-.63,1.66-1.46,2.13-.74,.42-1.52,.6-2.33,.22,1.17,.92,3.38,1.62,2.48,3.42-.73,1.48-2.8,1.62-4.55,1.04-.5-.56-.4-1.28-.53-1.94-.18-.94-.71-1.53-1.69-1.49-1.03,.03-1.45,.75-1.51,1.67-.07,1,.56,1.51,1.45,1.75,.67,.18,1.36-.12,2.03,.02,.54,.28,1.42-.03,1.55,.93-.2,1.29,.38,2.51,.32,3.79-.05,.09-.1,.19-.15,.28Z"/>
  <path class="cls-8" d="M28.65,5.56c.73-.86,1.86-.87,2.78-1.34,.36,.36,.55,.99,.31,1.25-1.01,1.13,.11,2.64-.9,3.86-.78,.95,.47,.93,1.04,1.11,.56,.18,1.32,.18,1.36,.97,.03,.62-.55,.88-1.05,1.06-.77,.28-1.09,.82-.95,1.6,.15,.81,.83,.44,1.3,.54,1.75,.39,1.75,.77,.91,2.4-.55,1.07-1.62,1.35-2.43,2.35,1.89-1.23,2.86,1.03,4.41,.8,1.1,.76-.5,1.3-.15,2.01,.07,.19,.1,.37,.1,.57-1,2.14-1.5,4.49-2.64,6.57-.4,.72,.3,.91,.56,1.32,.13,.18,.2,.37,.23,.59-1.15,.96-1.15,2.77-2.6,3.5-.13,.07-.29,.26-.25,.35,.96,2.07-.92,4.57,.98,6.49,.17,.42,.19,.84-.04,1.25-1.27,.21-2.54,.39-3.67-.68,.79,1.45-.37,2.61-.71,3.95-.26,2.16-2.23,2.37-3.67,3.17-.24,.14-.6,.06-.91,.1-2.71,.37-3.52-.4-3.29-3.17,.02-.23,.04-.62,.23-.58,2.4,.47,3.13-2.93,5.53-2.38-1.5-.65-2.45-2.1-4.13-2.61-.72-.22-.7-1.62,.05-2.42,.72-.78,1.46-.68,2.18,.04,.26,.26,.51,.55,.77,.72-.39-.83-1.98-.98-1.71-2.08,.29-1.16,1.66-.33,2.4-.71,.59-.3,2.75-.18,.86-1.89-.77-.7-.35-1.1,1.47-1.12-.72-.17-1.56-.13-1.6-1.09-.02-.42,.53-.39,.74-.67-.4,.21-.86,.33-1.06,.81-.21,.5-.41,.99-.66,1.47-.58,1.11-1.57,1.14-2.58,.86-1.01-.29-.93-1.09-.66-1.87,.28-.82,.12-1.29-.82-1.47-.59-.11-.96-.51-.49-1.17,.42-.53,.55-1.06,.11-1.66-.35-.48-.13-.95,.28-1.17,2.02-1.04,1.54-2.57,.78-4.07-.57-1.13-.48-2.06,.48-2.84,.48-.39,1.02-.69,.87-1.44-.01-.21,0-.42,.03-.63,.51-1.41,.53-3,1.76-4.15,.9-.85,0-1.55-.47-2.18-1.49-2.01-1.45-2.54,.89-3.45,1.64-.63,2.88-1.65,4.03-2.88Z"/>
  <path class="cls-26" d="M62.88,77.48c.13,0,.26,.04,.37,.1,.16,.13,.31,.26,.45,.41h0c.16,.16,.3,.33,.49,.44l-.02-.02c.21,.32,.66,.23,.9,.5h0c.17,.17,.33,.33,.54,.43,.14,0,.28,.04,.4,.11,.16,.11,.3,.24,.43,.38,3.59,1.9,7.28,3.61,11.09,5.04,.77,.76,1.85,.48,2.75,.83,.26,.25,.32,.55,.26,.89-.08,.21-.19,.41-.37,.55-.7,.56-2.15,.02-2.27,1.4-.09,1.11,1.68,.47,1.68,1.61,.1,.53-.1,.92-.53,1.22-.16,.07-.32,.08-.49,0-.08-.02-.16-.05-.24-.08,.15,.08,.3,.16,.45,.23,.3,.22,.49,.52,.66,.84,.14,.27,.2,.56,.17,.86-.44,.98-1.06,.73-1.6,.17-.5-.53-.95-1.11-1.71-1.34,.68,.5,1.49,1.03,.53,1.88-.64,.58-1.23,.48-1.96-.19-1.74-1.58-4.17-.81-5.03,1.4-.54,1.38-1.51,.37-2.31,.29-.14,.19-.41,.11-.58,.25,.3,0,.52-.29,.84-.2,.13,.1,.27,.26,.22,.38-.74,1.77-2.48,1.52-3.87,1.73-1.08,.16-2.09-.57-2.65-1.53-.54-.91,.58-1.63,2.37-1.57-.67-.77-1.23-.1-1.81,.17-.52,.24-1.39,.4-1.44-.01-.27-2.19-2.15-.64-2.99-1.4-.44-.76-.45-1.55,.12-2.89-1.07,1.34-1.86,2.18-2.86,2.97,1.22-1.24,2.18-.98,3.02,.27,.47,.48,.78,1.42,.12,1.44-1.47,.05-2.12,1.06-3.08,1.78-.71,.53-1.76,.85-2.55,.18-.77-.66-.62-1.77-.29-2.56,.81-1.95,.09-2.22-1.65-1.87-.94,.19-2.01,.37-2.6-.79-.05-.31,0-.6,.07-.9,.52-2.37,.42-2.54-1.94-3.1-.45-.11-.91-.16-1.24-.52,.42-1.57,2.03-1.06,2.98-1.7,.46-.09,.91,.04,1.37,.06,1.41,.05,2.14-.43,1.41-1.92-.36-.74-.2-1.5-.26-2.26,.24-.49,.7-.65,1.13-.47,1.2,.5,2.43,.8,3.72,.88,.71,.05,1.23,.46,.8,1.2-.96,1.68,.52,1.43,1.3,1.74,.3,.06-.03,.08,.22,0,.55-.19,1.29,.95,1.53-.03,.16-.67-.96-.14-1.3-.61-.69-1.74,.74-5,2.41-5.48,.91-.26,1.65-.09,1.91,.97-.46,.32-.42,.63,.05,.91,.24,.59-.34,.93-.44,1.31,1.28,1.1,2.89-.18,4.21,.71,.22,.15-.12,.28,.16,.16,.1-.04,.05-.16-.15-.19-.59-.11-.04-1.12-.41-.87-1.96,1.35-2.8,.16-3.56-1.38-.11-.2-.08-.38,.07-.54,.24-.28,.45-.44,.06-.89-1.29-1.45-.37-1.57,.92-1.38Z"/>
  <path class="cls-50" d="M22.66,18.49c.29,.79,1.37,1.65-.56,2.02-1.12,.22-1.36,1.49-.56,2.36,.8,.87,1.37,1.58,.42,2.71-.58,.69,.38,1.17,.54,1.71-.47,.46-.8,.05-1.15,.06-.67,.02-1.57-.13-.77,1.06,.52,.77-.01,1.26-.68,1.62-.03-.3,.04-.82-.1-.88-.79-.33-1.78-.97-2.41-.73-1.01,.39-1.74-.7-2.27-.34-.98,.67-1.31,.11-1.88-.44-.23-.22-.55,.15-.59,.46-.06,.51,.48,.77,.61,1.19,.24,.8-.18,1.27-1.12,1.27-.3,0-.74-.07-.66,.33,.1,.57-.43,1.31,.27,1.7,1.33,.74,.87,1.83,.88,3.08q-.98-.86-1.29-2.33c-.98,1.49-2.35,1.67-3.97,1.27,.22,.83,1.05,.78,1.31,1.5-.79,.6-1.87,.94-2.72,1.24-1,.36-1.59,.54-1.33,1.67-2.29-.21-1.72-1.79-1.8-3.03,.71-3.76,2.47-7.11,4.38-10.32,2.46-4.15,5.3-8.09,8.9-11.37,3.79-3.46,7.81-6.64,12.57-8.72,.12,1.38-1.78,1.62-1.7,3.02,.01,.2-.54,.21-.82,.09-1.13-.48-1.72,.71-2.66,.89-.48,.09-.49,1.13,0,1.32,1.25,.49,1.13,1.94,2.12,2.47-.09,.24-.1,.43-.2,.49-1.09,.74-1.88,1.62-2.1,3.02-.08,.52,.02,1.26-.63,1.62h0Z"/>
  <path class="cls-43" d="M67.39,95.52c.57-.91,1.45,.45,2.05-.3,.18-.78-.97-.7-.88-1.47,.03-.04,.1-.23,.18-.24,.37-.02,.99,.16,1.08,0,.92-1.59,2.55-.8,3.82-1.19,.79-.24,1.55,0,1.81,.92,.47,1.7,.95,.18,1.51,.16-.35-1.09-2.02-1.25-1.44-2.95,.86,1.28,2.26,1.6,3.09,2.77,.46,.64,.67-.07,.78-.5,.85-.58,1.45-.34,1.7,.6,.23,.85-.18,1.67-.97,1.81-2.17,.39-3.19,2.08-4.43,3.55-3.65,1.89-7.47,3.31-11.52,4.12-.44-1.21-.18-2.13,.82-2.69-2.14-.28-1.3,1.69-1.68,2.8-1.92,.76-3.94,.96-5.98,.91-2.35-.05-4.6-.57-6.72-1.55-.91-.42-1.44-1.1-.33-2.1,.45-.41,.9-1.2,.4-2-.49-.8-1.06-.15-1.61-.12-1.32,.07-1.95-1.23-.95-2.63,1.15-1.61,.89-2.2-.95-2.53-.76-.13-1.01-.64-.4-1.31,.46-.19,.89-.16,1.26,.21,1.62,.81,3.21-.05,4.81-.1,.19,.88,.76,1.69-.2,2.59-.65,.61,.33,1.59-.34,2.5,1.4,.07,2.52-.06,3.21-1.04,.6-.85,.92-1.31,1.66-1.19,.32,.05,.63,.57,.81-.07,.06-.24-.18-.56-.28-.84-.13-.1-.17-.2-.13-.31,.04-.1,.09-.15,.13-.15,.57-1.04,1.42,.15,1.83-.15,.55-.41,.67-1.43,1.71-1.14,.13,.03,.23,.17,.34,.26,0,.08,.05,.17,.02,.23-.34,.61-1.6,1.02-.88,1.8,.7,.77,1.34,.07,1.93-.67,.61-.78,.96,.2,1.4,.5,.61,.42,.45,.9,.13,1.38-.17,.26-.33,.13-.46-.09-.79-1.36-1.3,.03-2.08,.05,1.8,1.92,4.17,2.15,6,.7,.16-.12-.05-.41-.24-.55h0Z"/>
  <path class="cls-30" d="M49.85,23.09c-1.77,4.07-3.34,8.21-3.82,12.67-.57,5.26-.7,10.51,.48,15.72,.44,1.93,1,3.84,1.5,5.75-2.19,.36-4.07-.11-5.41-2.01-1.23-1.62-1.45-3.54-1.65-5.47-.03-.31,.11,.07-.07-.14-.1-.13-.06,.33-.3,.36-1.34-.42-2.09-1.51-2.93-2.5-.9-2.01,.01-4.21-.66-6.24-1.84-1.85-1.85-2.88,.3-3.87,1-.46,1.09-1.08,.73-1.68-.95-1.54-.48-2.63,.45-4.04,1-1.52,1.57-.85,2.39-.09,.58,1.43-.03,2.86,.04,4.31,.62-4.68,1.88-9.19,3.78-13.51,.43-.98,.8-1.98,1.73-2.63,2.77-.6,3.36-.08,3.03,2.59-.03,.25,.31,.51,.42,.8Z"/>
  <path class="cls-18" d="M35.57,20.33c-1.58,1.16-2.29-.44-3.29-1.11-.73,.44-1.18,1.68-2.45,.6,.84-.64,1.18-1.77,2.43-1.93,.26-.03,.48-.23,.39-.45-.57-1.28,.54-1.25,1.34-1.38-.98-1.61-2.16-.67-3.37-.64,0-.95-.18-1.96,.05-2.85,.27-1.06,1.83-.04,2.29-1.12-.35-.47-.94-.6-1.41-.5-.78,.16-1.32,.14-1.69-.68-.39-.89,.25-1.25,.75-1.7,.22-.2,.56-.27,.61-.64-.46-.46-.96,.35-1.6-.1,1.1-.98,1.84-2.11,1.81-3.59,.13-.04,.27-.06,.41-.05,.28-.24,.71-.15,.97-.44h0c.25-.26,.67-.17,.92-.43,.15-.04,.3-.06,.45-.07,.48-.1,1-.08,1.39-.47,2.49-1.36,5.26-1.73,7.98-2.2,1.32-.23,2.63-.72,4.01-.51-.46,1.44-1.94,1.41-2.79,2.09,.53,.09,1.44,.74,.82,1.1-1.15,.67-1.07,2.02-2.03,2.65-1.41,0-2.51,.28-2.07,2.1-.43,1.4-1.18,2.06-2.37,.74-.55-.61-1.06-.39-1.63-.31-1.07,.2-2.22,.34-2.05,1.88,.17,1.53,1.37,1.37,2.42,1.43q2.08,1.47,.98,3.86c.99,.24,2.48-.29,2.63,1.34,.14,1.52-.87,2.12-2.2,2.35-.22,0-.43-.05-.63-.13-.78,.09-.42-1.29-1.22-1.02-.9,.31-.13,1.01-.19,1.53-.05,.45-.16,.87-.4,1.26-.99,1.03-.89-.28-1.25-.59Z"/>
  <path class="cls-36" d="M46.63,91.84c.09,.2,.21,.57,.27,.56,1.62-.27,2.28,1.03,3.51,2.07-1.55,.29-2.3,1.04-2.19,2.45,.02,.29-.15,.62,.23,.78,.3,.13,.62,.09,.86-.12,.23-.2,.38-.48,.6-.68,.58-.52,1.01-.38,1.05,.39,.03,.52,0,.91,.68,.85,.3-.03,.44,.37,.32,.39-1.27,.19-.04,1.93-1.42,2.15-.88,.14-.53,.93,0,1.07,1.26,.33,2.34,1.6,3.87,.81,.47-.24,.86,.12,1.11,.55,.42,.7,1.12,.71,1.81,.75-.34,.36-.79,.4-1.25,.4-2.56,0-5.13,.03-7.69-.02-.74-.02-1.47-.28-2.2-.42-1.22-.79-2.09-2.58-4.04-1.32-.32,.21-1.15-.33-.99-.66,.83-1.78-1.37-4.37,2.04-5.65-1.44,.22-3.13,1.54-2.11-1.03,.02-.05-.37-.21-.57-.34-.66-.56-.86-1.28-.57-2.08,.6-1.67,1.64-3.24,.72-5.15-.15-.32,.4-.78,.79-1.04,.25-.13,.52-.21,.78-.22,.19-.42-.45-.29-.42-.61,.24-1.82,.48-3.53-1.24-4.97-.72-.6-.53-1.92,.49-2.32,1.45-.56,2.06,.43,2.23,1.74-.02,.14-.07,.27-.13,.36,.02-.04,.01,.09,.02,.09,.13-.14,.28-.22,.47-.27,.98-.14,1.86,.03,2.58,.74,.1,.2,.12,.4,.06,.62-.1,.25-.5,.18-.54,.5,.47-.05,.92-.04,1.32,.24,.11,.93,1.11,1.32,1.35,2.18,.06,.46-.03,.88-.38,1.21-.82,1.05-2.3,.59-3.23,1.39-.46,1.97,.91,3.21,1.84,4.62Z"/>
  <path class="cls-29" d="M42.95,54.93c.21,.07,.54,.08,.62,.22,.39,.79,.43,2.1,1.87,.98,.23-.18,.85,.1,.93,.46,.24,1.12,1.1,.45,1.65,.65,.05,.14,.07,.28,.08,.43-.12,.43,.12,.7,.42,.94,1.21,1.74,1.76,3.81,2.91,5.61,1.38,2.18,2.76,4.34,4.49,6.25,.26,.29,.42,.62,.47,1.01-1.03,1-1.87,.18-2.77-.27-.54-.28-.66-1.26-1.56-.91-.18,.08-.36,.16-.54,.25-.36,.29-.54,.63,.03,.79,.65,.18,1.38-.17,2.04,.12,.56,.25,1.47,.45,.36,1.24-.15,.11,.17,.13,.27,.21,.62,.5,.79,1.12,.4,1.82-.35,.63-.95,.7-1.6,.59-1.28-.23-2.43-.81-3.58-1.39,.91,1.39,2.04,2.12,3.74,2.26,.81,.06,.91,1.21-.06,1.68-1.12,.54-2.32,.87-3.44-.07-.3-.22-.56-.56-.96-.54-2.93,.16-2.81-2.62-3.89-4.18-.48-.69,.38-1.13,1.14-1.18,.27,.15-.07-.05,.19,.1,.19,.11,.38,.22,.57,.32-.13-.16-.36-.16-.51-.31-.38-.23-.68-.49-.49-.99,.24-.48,.94-.92-.19-1.33-2.29-.83-2.27-.89-.33-2.77-.23-.78-1.52-.74-1.5-1.7,.03-1.18,1.23-.92,1.8-1.44,.29-1.11-.72-1.81-.86-2.78-.19-.62-.36-1.24-.05-1.87,.84-1.33-.74-.82-1.01-1.3-.79-.85-1.87-1.63-.62-2.91Z"/>
  <path class="cls-46" d="M49.86,77.53c1.04,.85,2.05,.04,3.06-.07,.33-.04,.53-.3,.38-.67-.12-.3-.43-.63-.68-.47-1.76,1.08-2.42,.2-2.84-1.42-.18-.69-1.03,.18-1.39-.38,.3-.42,.65-.81,.71-1.49,1.28,1.03,2.62,1.38,3.93,1.77,.44,.13,.9,.35,1.23-.18,.22-.35,.23-.73,0-1.08-.28-.45-.68-.58-1.18-.38-.36,.14-.72,.24-1.2-.1,.5-.98,1.51-.35,2.18-.75-.8-.82-1.68-.45-2.52-.21-.85,.25-1.16-.18-1.19-.9-.04-.92,.23-1.56,1.35-1.05,.44-.75,1.03-1.41,1.6-.23,.66,1.39,1.7,1.72,3.07,1.57,0,0-.03,.01-.03,.01,.12,.22,.31,.36,.53,.47,2,1.84,4.01,3.68,6.01,5.51-.43,.1-.93,.05-1.12,.59,0,.31,.22,.36,.44,.37,.71,.04,1.3,.41,1.09,1.1-.17,.54-.94,.22-1.44,.29h0c-1.23-1.11-1.43-1.12-2.51-.14-.09,.08-.34,1.27-.28,1.36,.4,.67,.09,1.4-.5,1.35-1.77-.16-.79,.95-.86,1.58,0,.51-.19,.96-.46,1.39-1.28,.13-2.01-.83-2.93-1.35,.2-.83,1.21-.73,1.43-1.58-1.7-.07-3.31-.06-4.67-1.12-.23-.18-.55,.12-.74,.37-.09,.07-.17,.13-.26,.2-.32,.1-.63,.06-.94-.07-1.29-.94-1.29-2.6-2.12-3.81-.02-.24,.05-.44,.2-.61,.91-.44,1.8-.49,2.65,.14Z"/>
  <path class="cls-3" d="M49.87,.05c1.38,0,2.76,0,4.14,0,.2,1.15-.3,2.11-1.01,2.91-1.27,1.43-2.82,2.67-1.8,4.95,.29,.65-.43,1.09-.82,1.53-.99,1.12-1.74,2.32-1.69,3.89,.03,.44-.13,.83-.33,1.21-.34,.51-.44,1.25-1.25,1.29-.47-.1-.94-.27-1-.79-.24-2.19-1.74-3.02-3.64-3.42-.32-.05-.62-.15-.88-.36-.3-.54-.02-.96,.42-1.11,1.33-.46,1.26-1.32,.79-2.35,.05-.36,.27-.57,.58-.72,1.23-.7,2.46,1.06,3.75,.21-.16-.63-.48-.57-.76-.54-.76,.08-1.63,.24-2-.64-.32-.77,.35-1.38,.64-2.06,.94-2.2,3.02-2.94,4.86-4Z"/>
  <path class="cls-31" d="M40.64,94.59c.57,.13,1.14,.26,1.7,.38-.2,.81-1.26,.36-1.37,1.21,.98,.39,2.31-1.36,3.08,.42-.46,.63-1.06-.17-1.46,.14-.56,.44-.35,1.44-1.19,1.77-.19,.07-.15,.46,.09,.55,1.38,.53,.83,1.37,.36,2.18-.15,.27-.75,.47-.06,.81,.4,.19,.73,.13,.97-.25,.2-.31,.15-.76,.68-1.06,.87,1.02,2.37,1.48,2.73,3.05-3.17-.13-6.22-.83-9.2-1.86-.91-1.24-.38-3.03-1.58-4.17,.31-.71,1.2-.69,1.52-1.72,.47-1.52,1.94-2.36,3.73-1.46Z"/>
  <path class="cls-11" d="M75.68,98.71c-.07-1.38,1.39-2.03,1.59-3.32,.06-.37,.64-.3,1.01-.34,.45-.04,.92-.04,1.35-.18,.59-.19,1.14-.5,1.08-1.27-.06-.89-.73-.82-1.34-.85-.15-.15-.31-.31-.46-.46,.24-.19-.04,.06,.14-.18,.84-1.15,3.51-.93,3-2.54-.37-1.16-.83-2.66-1.76-3.74-.59,0-1.18-.01-1.77-.02-.63,0-.94-.33-.98-.94,1.61-.03,3.07,.65,4.6,.97,1.11,.38,2.68,.23,2.3,2.49,.79-1.22,1.6-1.55,2.57-1.05,.78,.4,.92,1.16,.86,1.98-.07,.98-.73,1.39-1.57,1.28-2.12-.28-.55,1.22-.91,1.77h0c-.42,.17-.69,.5-.96,.85-2.73,2.16-5.57,4.13-8.76,5.55Z"/>
  <path class="cls-5" d="M62.36,7.48c-1.67,1.53-3.34,3.07-5,4.6-.25,.08-.43,.23-.54,.48h.02c-1.56,.35-1.98-.58-2.03-1.85-.03-.67,.21-1.32,.32-1.99,.31-1.29,1.42-1.86,2.34-2.6,.9-.77,1.76-1.6,2.96-1.9,.44-.12,.89-.22,1.34-.25,.93-.06,1.42,.31,.75,1.16-.65,.81-.38,1.55-.15,2.35Z"/>
  <path class="cls-6" d="M62.36,7.48q-1.6-1.36,.11-3.11c-.72,.1-1.36,.19-2,.28,.37-1.63,1.78-1.77,2.96-2.21-.14-.13-.47-.08-.73-.21-.3-.14-.48-.34-.43-.69,.63-.6,1.33-.33,2.02-.18,1.3,.04,2.53,.43,3.74,.85,.48,.17,1.09,.11,1.39,.79-2.15,1.33-4.32,2.66-6.48,4-.27,.07-.47,.22-.6,.46h.03Z"/>
  <path class="cls-40" d="M48.49,13.42c-.43-.34-.87-.72-.49-1.31,.77-1.19,1.15-2.66,2.4-3.51,.5-.34,.35-.44,.1-.95-.43-.9-.49-1.88,.33-2.93,1.14-1.48,2.43-2.89,3.18-4.66,.77,0,1.53,0,2.3,.01-1.19,.7-.27,2.2-1.11,2.99-.92,.87-1.59,1.89-1.92,3.07-.52,1.88-1.46,3.52-2.49,5.13-.18,.29-.56,.4-.67,.76-.02,.16-.06,.32-.12,.48-.11,.23-.26,.43-.43,.61-.18,.18-.39,.33-.63,.43-.18,.05-.33,0-.46-.12Z"/>
  <path class="cls-38" d="M50.32,11.56c.05-1.14,.88-1.92,1.38-2.84,.85-1.58,1-3.41,2.03-4.94,.31-.46,.48-.86,1.03-1,.33-.09,.64-.39,.46-.63-1.17-1.54,.4-1.58,1.1-2.09,.31,.01,.63,.03,.94,.04,.45,.36,1.12-.04,1.53,.45,.31,1.7-.92,2.65-1.91,3.63-.8,.79-1.34,1.62-1.49,2.72-.17,.56-.51,.98-.96,1.33-1.54,.84-2.22,2.63-3.8,3.44-.1-.04-.2-.07-.31-.11Z"/>
  <path class="cls-14" d="M85.4,92.31c-.42-.54-.83-1.09-1.45-1.9,1.04,.18,1.47-.95,2.65-.37,.81,.4,.65-.67,.75-1.22,.17-.92-.27-1.33-1.09-1.31-.8,.02-1.36,.46-1.31,1.41-.66-.31-.53-1.12-1.3-1.32-.81-.21,1.15-.44,.11-.97-.54-.27-1.24-.21-1.62-.78,2.97,.54,5.99,.41,9.6,.58-2.23,2.42-4.01,4.43-6.34,5.88Z"/>
  <path class="cls-15" d="M49.87,.05c.08,.27,.26,.78,0,.78-1.23,0-1.77,1.48-3.04,1.33-.15-.02-.47,.27-.47,.42,0,1.13-.92,1.66-1.48,2.43-.21,.29-.42,.66-.16,1.05,.26,.4,.63,.33,1.01,.23,.29-.07,.64,.01,.88-.12,.49-.26,.96-.62,1.27,.15,.21,.51,.27,1.11-.27,1.43-.51,.31-.97,1.25-1.72,.48-.72-.74-1.54-.9-2.49-.83-.55-.61-.46-1.23,0-1.84,.3-.23,1-.39,.33-.88-.34-.24-1.04-.24-.93-.76,.18-.86,.87-.17,1.32-.25,.52-.1,1.02-.21,1.27-.74-.23-.8-1.08-.39-1.54-.82,1.32-.58,2.32-1.67,3.71-2.09,.77,0,1.54,0,2.31,0Z"/>
  <path class="cls-23" d="M54.94,6.96c-.16-1.4,.47-2.38,1.54-3.23,1.04-.82,1.89-1.84,2.16-3.21,.3-.29,.63-.26,.96-.07,1.61,.02,3.2,.18,4.67,.91-.66,.16-1.45-.18-1.96,.52-.86,1.75-2.9,2.1-4.08,3.46-.25,.17-.5,.33-.75,.5-.23,.18-.47,.35-.71,.51-.59,.25-1.05,.92-1.83,.61Z"/>
  <path class="cls-54" d="M53.98,16.16c-.79,1.23-1.57,2.45-2.36,3.68-.52,.44-.84,.12-1.13-.3-.71-1.49,.79-3.36-.8-4.7-.09-2.04,1.38-3,2.78-4.01,.38-.07,1.01-.03,.99,.23-.14,1.74,1.45,3.3,.52,5.1Z"/>
  <path class="cls-41" d="M35.58,97.82c.09,1.3,1.25,.7,2.04,1.15-.93,.55-1.37,1.22-.51,2.14,.12,.12-.08,.54-.14,.83-1.66-.31-3.18-.98-4.63-1.8,.06-.28,.24-.62,.15-.84-.53-1.28,.28-1.64,1.24-1.94,.71-.09,1.02-1.33,1.91-.74,.44,.29,.24,.81-.06,1.21Z"/>
  <path class="cls-47" d="M53.98,16.16c-.36-.26-.54-.68-.28-.98,.57-.65,.39-.76-.37-.89-.81-.14,.7-.97-.36-1.34-1.04-.36-.05-.68,.19-1.02,.48-.67-.08-.72-.53-.82-.1-1.55,1.25-1.81,2.17-2.45,.22-.06,.42,0,.6,.13,.45,.41,.08,.86,0,1.24-.32,1.33,.13,2.17,1.45,2.52-.72,1.39-1.85,2.45-2.86,3.61Z"/>
  <path class="cls-39" d="M50.79,19.41c.17,.34,.48,.44,.83,.43-.59,1.08-1.18,2.17-1.77,3.25-.35-.15-.69-.34-1.06-.44-.52-.15-.87-.45-.62-.97,.29-.62,.81,0,1.21-.13q-.68-1.62-2.74-1.67c-.24-1.68,.97-2.67,1.84-3.82,1.19-.43,1.81,.01,1.54,1.24-.22,.95,.03,1.59,.77,2.11Z"/>
  <path class="cls-13" d="M63.31,102.95c-.82-.72-.23-1.71-.45-2.55-.1-.4,.32-.68,.74-.69,.74-.03,1.5-.16,2.28,.2q-1.25,.91-1.71,2.93c-.29,.04-.57,.08-.86,.11Z"/>
  <path class="cls-40" d="M59.61,.45c-.32,.02-.64,.05-.96,.07-.49-.04-1.03,.07-1.39-.42,.8,.02,1.65-.31,2.35,.35Z"/>
  <path class="cls-30" d="M48.5,58.61c-.36-.02-.88,.14-1.04-.19-.19-.4,.29-.59,.62-.76,.34,.23,.41,.57,.42,.94Z"/>
  <path class="cls-8" d="M35.56,2.76c-.36,.45-.7,.97-1.38,.47,.35-.5,.89-.42,1.38-.47Z"/>
  <path class="cls-8" d="M33.72,3.3c-.21,.36-.55,.43-.92,.43,.2-.36,.54-.44,.92-.43Z"/>
  <path class="cls-8" d="M32.81,3.73c-.21,.39-.57,.46-.96,.44,.23-.35,.58-.44,.96-.44Z"/>
  <path class="cls-46" d="M65.07,78.92c-.38-.02-.73-.1-.9-.5,.38,.03,.71,.15,.9,.5Z"/>
  <path class="cls-5" d="M62.33,7.47c.1-.28,.3-.43,.59-.46-.2,.15-.4,.31-.59,.46Z"/>
  <path class="cls-46" d="M66.45,79.84c-.14-.13-.29-.25-.43-.38,.14,.13,.29,.25,.43,.38Z"/>
  <path class="cls-47" d="M56.82,12.55c.08-.28,.26-.43,.54-.48-.18,.16-.36,.32-.54,.48Z"/>
  <path class="cls-46" d="M65.62,79.35c-.18-.14-.36-.28-.54-.43,.18,.14,.36,.28,.54,.43Z"/>
  <path class="cls-46" d="M64.19,78.43c-.16-.15-.33-.3-.49-.44,.16,.15,.33,.3,.49,.44Z"/>
  <path class="cls-46" d="M63.7,77.99c-.15-.14-.3-.27-.45-.41,.15,.14,.3,.27,.45,.41Z"/>
  <path class="cls-29" d="M56.87,71.96c-.27-.06-.44-.21-.53-.47,.18,.16,.35,.31,.53,.47Z"/>
  <path class="cls-50" d="M19.9,30.02c.07,.72,.4,.77,1.09,.66,1.05-.16,1.36,.28,1.12,1.27-.16,.65-.76,1.17-.58,1.92,1.83,.37,1.86,.39,2.62-1.2,.53-1.1,1.82-1.37,2.45-2.36,.18-.28,.39-.15,1.29,.9-.71,.28-1.41,.55-2.2,.86,.39,.73,.89,.87,1.45,.38,.5-.45,.99-.64,1.25,.07,.31,.86-.65,.61-.99,.9-.54,.47-1.18-.27-1.71,.12-.13,.43,.19,.54,.43,.71,.46,.33,1.42-.13,1.44,.78,.01,.62-.8,.62-1.15,.98-1.09,1.12-2.46,.83-4.13,.61,.61,1.01,1.24,1.51,1.92,1.89,.81,.46,.84,.4,.18,1.39-.46-.49-.92-.98-1.37-1.46-.64-.69-1.21-.49-1.72,.15-.33,.4-.04,2.14,.15,2.04,.72-.4,1.24-.28,1.81,.23,.21,.19,.55,.26,.85,.33,.9,.22-.66,1.4,.65,1.54,.6,.07,1.41,.03,1.96,1.17-1.4-.86-2.33-.09-3.36,.28-.79,.28-1.3,.51-.61,1.39,.21,.27,.19,.58-.13,.79-.28,.19-.57,.19-.84-.02-.55-.43-1.1-.85-1.89-.46-.58,1.08,2.61,1.85-.38,3.14,1.99,.32,3.21-.69,4.55-.29,.4,.12,.55-.45,.74-.76,.28-.47,.53-1.03,1.21-.79,1.29,.46,.29-.92,.85-1.02,.6-.71,1.61,.27,2.27-.59,.22-.29,1.1,.27,1,.58-.51,1.49,.82,2.67,.56,4.09-.11,.62-.3,1.07-.79,1.53-1.73,1.63-1.69,1.69,.2,3.05,.35,0-.45,.81,.35,.49,.5,.25,.73,.68,.85,1.2,.03,.31-.24,.76-.16,.85,1.73,2.19-.46,2.21-1.56,2.85,1.26-.51,2.01,.43,2.9,.96,.27,.19,.46,.44,.52,.78-2.4,2.32-2.46,3.22-.51,6.26,.41,.63,1.19,1.36,.04,2.06-.76-.12-1.39-.55-2.06-.89-.49-.36-1.02-.68-1.53-1.01-.78-.5-1.33-.76-2,.37-.98,1.63-1.34,1.51-2.4-.13-1.29-2-3.2-3.08-5.49-3.55-2.25,.13-2.59-.11-3.98-2.91,.72-.58,2.09-.02,2.47-1.25,.03-.09,.25-.14,.39-.17,.37-.07,1.08,.89,1.08-.27,0-1.08-.7-.83-1.45-.68-1.38,.27-1.55,.09-1.59-1.6-.02-.79-.97-.36-1.06-.96,0,0,0,0,0,0,.36-.45,.92-.49,1.41-.67,.85-.32,1.53-.87,1.3-1.86-.24-1.04-1.03-1.44-2.08-1.27-.36,.06-.71,.29-1.1,.1-.04-.94-.72-.92-1.38-.92-.11-.41,.04-.57,.46-.46,.99,.05,1.9-.1,2.84-.55,.49-.24,1.32-.07,1.43-.77,.1-.6-.42-1.13-.92-1.52-.55-.42-1.12-.8-1.7-1.17-.61-.39-1.04-.86-.93-1.98,1.16,1.41,2.39,1.79,3.76,.73,.53-.42,1.19-.8,.81-1.68-.33-.78-.81-.86-1.65-.68-1.62,.34-2.28-.43-1.81-1.97,.19-.63,.55-1.19-.51-1.29-.29-.03-.23-.28-.2-.51,.1-.89-.05-1.55-.45-2.07,.56-.57,1.38-.56,2.02-.94-.1-.64-.88-.22-1.11-.71-.25-.54-.13-1.02,.08-1.54,.31-.75,.53-.84,1.17-.2,.22,.22,1.03-1.15,.69-1.83-.55-1.1-.76-2.66-2.55-2.26-.31-.85,.35-1.09,.68-1.4,.32-.31,.75-.48,.69,.42-.03,.45,.95,.35,1.15,.15,.94-.92,1.99-.35,2.99-.37Z"/>
  <path class="cls-32" d="M18.98,65.07c1.99-.52,3.38,.18,4.69,1.78,1.16,1.41,1.36,1.25,1.73,2.71,.81-.27,1.29-.65,1.07-1.65-.19-.87,.36-1.11,1.09-.83,1.16,.45,2.41,.82,2.95,2.14,0,.1,0,.21,0,.31,.2,.96-.24,1.84-1.12,1.24-1.78-1.22-3.55,.65-5.29-.3-.47-.25-.74,1.17-.19,2.19,.18,.25,.33-.36,.1-.16-.04,.03-.06,.01-.08,.01-.06,0-.16,.04-.18,.02-.85-1.09,.03-1.37,.8-1.47,1.88-.23,3.79-.95,5.65,.13,.41,.24,.85,.36,1.32,.25,.85-.21,1.7-.83,2.56,0,.22,.21,.51,.36,.56,.69,.17,1.23,.15,1.27,1.05,1.78,.64,.36,1.15,.75,1.07,1.58-.47,.66-.48,.86-.01,.96,1.24,.26,1.09,.89,.33,1.48-.58,.45-1.32,.69-1.55,1.47,.13,.34,.43,.57,.61,.87,.04,.2,0,.39-.1,.56-.82,.78-.99,2.06-2.06,2.63-.16,.11-.33,.2-.5,.28-.24,.12-.47,.25-.67,.43-.09,.15-.17,.31-.23,.48,.04,1.04-.28,1.91-1.13,2.54-.68-.03-1.36-.06-2.03-.09-.78,.52,.43,1.53-.5,2.01-.87,.45-1.17-.45-1.94-.78,.93-.78,1.73-1.48,1.31-2.86-.3-1,.53-1.44,1.51-1.55,.7-.08,1.24-.39,.64-1.21-.32-.44-.19-.78,.01-1.25,.56-1.3,.4-1.52-.86-1.23-1.54,.36-3.19-.35-4.68,.63-.39,.26-.82-.29-1.05-.69-.34-.59,.31-.71,.53-1.06,.52-.8,1.51-.04,2.07-.68-1.04-.52-2.86-.69-3.18-.03-.43,.88-2.32,.96-1.44,2.59,.17,.32-.38,.58-.78,.6-.37,.02-.99,.05-.94-.37,.08-.68-.75-1.22-.22-1.9h0c-.76-.16-1.27,.37-2.11,.9,.41-1.48-1.27-2.04-.97-3.52,.08-.41-1.02-1.31-1.98-.61-.46,.33-.68-.02-.94-.28-.17-.17-.26-.4-.12-.62,.24-.37,.57-.36,.99-.3,1.04,.15,2.11,.17,3.15,.32,.83,.12,.94,.65,.59,1.34h0c.3-.05,.73-.09,.76-.4,.07-1.02,.74-1.74,1.29-2.53-.7-.34-.89,.28-1.28,.43-.37,.15-.88,.34-1.08,.09-.99-1.23-2.51-1.73-3.77-2.65,.95-1.09,2.28,1.24,2.99-.63,.36-.95-.43-1.17-.76-1.69h0c-.45-.05-.96-.07-1.08-.62-.09-.46,.38-.56,.66-.79,.67-.54,1.68-.17,2.26-.89,.44-.2,.78,0,.94,.36,.79,1.71,1.89,1.66,3.2,.63-.81-.58-1.73-.96-2.54-1.53-.55-1.12-.36,.46-.68,.19-.49,.1-.76-.14-.92-.58,.15-.31,.31-.61,.46-.92Z"/>
  <path class="cls-44" d="M35.58,97.82c-.15-.91-.17-.93-.72-.48-.4,.33-.74,.55-1.13,.01,0-.15,0-.31,0-.46,.99-1.26-.87-1.1-.92-1.85,0-.15,0-.31,0-.46,.04-.15,.09-.35,.21-.39,1.79-.52,1.79-1.63,1.32-3.2-.58-1.94,1.27-2.77,2.26-4.02-.97-.92-2.57,1.1-3.36-.67-.47-.23,1.16-.66-.11-.91-.56-.11-1-.68-.77-1.42h0c.25-.26,.68-.18,.92-.46h0c1.56-.67,2.95,1.24,4.53,.29,.2-.05,.36,.28,.49,.14,.13-.14-.24-.22-.2-.43,.02-.31,.14-.55,.44-.68,.81-.12,1.04,.43,1.24,1.04,.12,.47,.34,.88,.68,1.24,.41,.52,1.01,.9,1.13,1.62-.3,.6-1.09,1.17,.09,1.77,.6,.31,.44,.71,.17,1.43-.55,1.47-2.24,2.75-1.18,4.64-.24,.35-.58,.5-.99,.37-.75-.23-1.68-.91-1.4,.79,.1,.61-.55,.24-.85,.34-1.33,.43-.07,.74,.07,1.13-.64,.19-1.33,.2-1.9,.6Z"/>
  <path class="cls-41" d="M33.27,86.29c.48,.19,.92,.55,1.51,.31,1.97-.79,1.97-.78,2.87,1.16-.42,.53-.82-.06-1.22-.04-.22,.01-.6,.08-.5,.26,.62,1.08-.27,1.21-.89,1.59-.59,.36-1.36,.82,.03,1.2,.08,.02,.2,.33,.16,.37-1.22,1.37,.7,1.45,.98,2.2-1.01,.88-2.38,.61-3.4,1.26-1.49-.35-1.59-.49-.68-1.34,.5-.47,.95-.89,1.09-1.59,.05-.26,.41-.64-.07-.7-1.89-.24-.92-.96-.36-1.7,.63-.82-.28-1.37-.44-2.06,.04-.08,.07-.16,.11-.25,.16-.22,.35-.41,.57-.57,.08-.04,.17-.07,.25-.1Z"/>
  <path class="cls-17" d="M7.45,60c-.03-1.3-.15-2.76,1.16-3.46,1.4-.75,2.36,.56,3.45,1.16,.7,1.01,.41,2.03-.02,3.03-.74,1.73-2.86,1.99-3.96,.48-.26-.36-.43-.8-.64-1.2Z"/>
  <path class="cls-50" d="M19.9,66c.8,.04,1.44,.49,2.11,.85,.58,.31,1.12,.69,1.68,1.05-.09,.7-.74,.29-1.07,.53-1.9,1.41-2.75,1.14-3.58-1.1-.07-.18-.35-.27-.53-.4-.3-.16-.7-.28-.56-.73,.03-.11,.37-.13,.56-.2,.31,.15,.62,.31,.92,.46,.15-.16,.19-.43,.46-.46Z"/>
  <path class="cls-41" d="M32.35,83.99c.38,.82,1.05,1.27,1.93,1.53-.36,.28-.69,.53-1.01,.78,0,0,0,0,0,0-.31,.3-.62,.61-.92,.92h0c-.31,0-.61,0-.92,0,.31-1.08,.61-2.15,.92-3.23Z"/>
  <path class="cls-41" d="M32.81,95.05c.13,.06,.26,.15,.4,.18,1.26,.22,1.29,.82,.53,1.67-.58-.48-2.03-.52-.92-1.85Z"/>
  <path class="cls-10" d="M13.44,52.16c-.15,.15-.31,.31-.46,.46-.44,.13-.86,.31-1.31,.37-1.01,.12-2.45-.8-2.74-1.68-.25-.75,.31-2.42,.97-2.87,.96-.66,1.87-.42,2.77,.13,.49,.3,.75,.74,.76,1.32,0,.76,0,1.52,0,2.28Z"/>
  <path class="cls-7" d="M14.36,53.54c.78-1.07,1.72-1.11,2.78-.44,.84,.53,1.43,1.25,1.11,2.25-.33,1.05-.97,1.92-2.28,1.89-.38,0-.76,0-1.14,0-.28-1.22-1.31-2.34-.46-3.7Z"/>
  <path class="cls-45" d="M5.42,47.64c-.74,.98-.68,1.85,.12,2.52-.37,.46-.7,.26-.87,.07-.73-.78-1.43-.9-2,.09-.42,.72-.73,.42-1.19,.09-.35-.25-.96-.24-.72-.91,.19-.51,.44-.95,1.1-1.02,.62-.07,1.14,.53,1.78,.23,.55-.26,.81-.93,1.8-1.07Z"/>
  <path class="cls-50" d="M14.09,31.99c1.18-.17,1.29,.57,1.49,1.19,.03,.08-.12,.29-.23,.32-.11,.03-.32-.03-.39-.13-.29-.4-.53-.83-.87-1.37Z"/>
  <path class="cls-15" d="M42.48,11.11c2.15-.38,2.82,1.81,4.33,2.53,.27,.13,.14,.57-.09,.8-.64,.67,.22,.87,.38,1.28-.08,.07-.16,.14-.24,.21-.6,.32-1.17-.18-1.93-.06,.13,1.64-.51,3.23-.28,4.91-.04,.22-.13,.41-.26,.59-.95,.64-2.8,.62-1.91,2.64,.09,.21-.24,.57-.5,.72-1.43,.85-.31,1.34,.26,1.91,.04,.21,.01,.42-.06,.63-.2,.32-.51,.53-.79,.77-1.02,.88-1.99,1.77-.57,3.1-.06,.09-.12,.17-.18,.26-.3-.07-.6-.12-.89-.21-.56-.17-1.06-.06-.69,.58,.64,1.08,.23,.92-.6,.72-.32-.08-.65,2.04-.27,2.26,.65,.36,.93,.63,.39,1.37-.61,.84,.93,.59,.74,1.47-1.77-.69-2.53,.68-3.63,1.78,.64,.47,1.18,.86,1.72,1.25-.01,2.25-.42,4.5-.16,6.76-.16,.71-.19,1.42,.08,2.13,.14,1.06,.54,2.08,.42,3.17-.07,.21-.18,.38-.34,.53-1.57,.51-1.62-1.37-2.67-1.68-.19-.09-.37-.19-.55-.31-.41-.3-.85-.6-1.16-1-.83-1.05-.48-1.58,.8-1.64,.19,.03,.38,.1,.54,.18,.21,.21-.08-.03,.2,.07,.13,.05,.15-.16-.03-.3-.12-.1-.25-.17-.41-.19-.9-.12-1.95,.9-2.6,.1-.74-.92,0-2.19,0-3.31,0-.74,.43-1.49-.11-2.21,0-.46,0-.92,0-1.38-.02-.07-.07-.2-.05-.21,1.26-.81-.79-1.74,.05-2.44,.74-.61,1.67-1.02,2.17-1.87,.18-.3-.27-.67-.39-1.02-.18-.51-.37-1.31,.23-1.36,1.43-.12,.94-.82,.49-1.36-.59-.72-.18-1.64-.66-2.34h0c-.64-1.02-.19-1.78,.81-1.78,2.63-.01,2.31-1.89,2.11-3.38-.25-1.88,1.31-3.02,1.52-4.67,.05-.34,1.09-1.96,1.08-2.16,.64-.02,1.18-.33,1.69-.66,.59-.39,.77-1.02,.49-1.62-.3-.64-.82-.81-1.49-.29-.46,.36-1.07,.38-1.42-.15-.32-.49-.15-1,.28-1.45,.42-.43,.74-.96,1.1-1.43-.4-.63-.85,.16-1.26-.13-.46-.32,.21-.92-.33-1.21,.11-1.41,.21-2.82-.45-4.14,.42-.12,.84-.26,1.27-.36,.39-.1,.78-.09,.72,.46-.05,.51,.06,.99,.57,1,.63,.01,1.11-.36,1.13-1.1,.61-.53,1.23-.53,1.84,0,.52,.36,1.37,.64,.99,1.43-.26,.55-.53,1.46-1.6,1.13-.37-.11-.62,.32-.77,.67,.33,.55-.41,1.13,.14,1.8,.89-.32,.34-1.31,.77-1.79Z"/>
  <path class="cls-51" d="M34.19,48.93c-.36,.03-.8-.1-1.03,.21-.42,.58,.24,.69,.52,.94,.38,.34,.77,.67,.98,1.16h0c.62-.33,1.16-.29,1.33,.49,.17,.82,.55,1.33,1.43,1.36,.43,.73,.04,1.06-.61,1.26-1.14,.03-2.2-.29-3.05-.5-.44-.37-.39,.29-.31,0,1.42,.39,1.26,1.68,1.55,2.71,.01,.22-.01,.44-.06,.65-.14,.42-.35,.79-.73,1.04-1.03-.73-2.37-.94-3.24-1.94-.31-.31-.62-.61-.92-.92h0c-.21-.43-.49-.6-1.04-.67-1.41-.18-1.35-.44-.74-1.84,.39-.89,.57-1.7,1.73-1.71,.14,0,.1-2.14-.08-2.27-.87-.6-1.5-1.17-.19-1.99,.3-.19,.19-.57-.06-.79-.15-.13-.56-.23-.56-.22-.6,1.49-1.54,.08-2.28,.27,.06-.58-.22-1.3,.37-1.7,.86-.59,.98-1.06,.02-1.65-.3-.19-.22-.56,.07-.74,.62-.38,1.24-.81,1.97-.83,.32,.82-.61,.63-.63,1.14,.89,.39,2.14-.87,2.8,.56,.39,.1,1.24-.13,1.02,.48-.56,1.56-.23,3.21-.71,4.79,.65,.23,1.24-.11,1.73-.35,1.09-.53,1.45,0,1.91,.85,.24,.45,.3,.6-.13,.84-.7,.39-.99,.09-1.06-.61h0Z"/>
  <path class="cls-18" d="M38.8,18.95c.23,1.01,1.02,1.7,1.58,2.53-.9,.5-1.66,.69-2.06-.54-.73,1.13-.18,2.62-1.51,3.28-.06,.03-.11,.1-.15,.16-.65,.95,.57,1.42,.58,2.24,.01,.67-1.6,1.1-.23,1.99,.46,.3,.23,.86-.39,.91-.76,.07-1.52,.05-2.28,.05-.97,0-1.09,.63-1.08,1.38-.35-.15-.69-.31-1.05-.45-.89-.35-1.22-.82-.16-1.34,.45-.22,.49-.51,.51-.88,.04-.83,.13-1.51,1.15-1.86,.62-.21,.56-1.03,.1-1.57-.65-.78-.41-1.15,.49-1.41,.57-.16,.77-.69,.8-1.26h0c-.36-.06-.89-.09-.43-.62,.33-.39,.93-.57,.89-1.22,.42-.07,.3,.94,.92,.46,.73-.66,.85-2.09,2.31-1.85h0Z"/>
  <path class="cls-51" d="M33.27,30.94c.89,1.22,1.75,2.45,1.82,4.03-.52,.31-1.03-.11-1.6,.02-.11,1.13,.81,1.67,1.51,2.36-.53,.85-2.25,0-2.07,1.65,.04,.39-.8-.02-1.39,.15,.44,.57,.43,1.38,1.54,1.68-.62,.39-1.39,.11-1.67,.72-1.15-.55-1.72-1.63-1.25-2.68,.4-.9,.64-1.93,.03-2.59-1.18-1.26-.01-1.7,.59-2.36,.3-.33,.91-.04,1.17-.5-.02-.79-1.17-.38-1.2-1.18,.57-.92,2.31,.35,2.51-1.29Z"/>
  <path class="cls-18" d="M29.35,14.57c-.25-.06-.44-.2-.38-.47,.02-.09,.25-.18,.38-.18,.13,0,.36,.09,.38,.18,.06,.26-.13,.41-.38,.47Z"/>
  <path class="cls-50" d="M23.87,47.68c-.06-.02-.16-.04-.16-.06,0-.06,.04-.13,.06-.19,.06,.02,.16,.04,.16,.06,0,.06-.04,.13-.06,.2Z"/>
  <path class="cls-42" d="M46.63,91.84c-.44-.3-.89-.59-1.31-.91-1.27-.96-1.42-2.05-.52-3.71,.69,.01,1.39-.06,2.06,.05,1.84,.29,2.47,1.38,1.86,3.12-.18,.5-.46,.96-.69,1.45-.46,0-.92,.01-1.39,.02Z"/>
  <path class="cls-43" d="M80.29,85.83c.72,.38,1.63,.58,1.24,1.78-.23,.7,.49,.8,.86,1.14,1.11,1.02,1.06,1.33-.17,2.13-1.02,.67-2.08,1.22-3.3,1.4-.15-.31-.31-.62-.46-.92h0c.44-.18,.75-.48,.92-.92,.13-1.27-.04-2.62,.92-3.69,0-.31,0-.61,0-.92Z"/>
  <path class="cls-19" d="M48.03,85.83c0-.46,0-.92,0-1.38,.34-1.28,1.38-1.98,2.3-2.77,0,0,0,0,0,0,.45,1.01,1.11,1.99,1.27,3.05,.13,.85-.72,1.41-1.63,1.55-.7,.11-1.33-.13-1.94-.45Z"/>
  <path class="cls-46" d="M61.85,80.29c.28,.84,1.61,.39,1.81,1.56,.06,.37,1.07-.19,1.49-.54,.95-.8,1.46-.33,1.95,.47-.36,.61-.86-.33-1.22,.19,.14,.93,1.49,.33,1.63,1.26-.12,.08-.3,.24-.34,.21-1.49-1-3.18-.74-4.81-.76-.54,0-1.05,.21-1.41-.34-.54-.81,.54-.73,.66-1.18,.08-.29,.17-.58,.25-.87h0Z"/>
  <path class="cls-27" d="M57.7,93.21c0,.15,0,.31,0,.46-1.35-.9-1.39-.93-2.12,.48-.35,.69-.77,.43-1.06,.15-.48-.47-.46-1.45-.07-1.61,1.3-.51,1.82-1.82,2.91-2.48,.47-.28,1.01-.36,1.63,.26-1.45,.45-1.33,1.61-1.29,2.74Z"/>
  <path class="cls-11" d="M80.29,86.75l.58,.26c-1.17,.68-.76,1.93-1.06,2.93-.06,.19-.29,.33-.45,.5-.52-1.1-1.36-1.04-2.31-.49-.45-1.24,.82-1.93,.69-3.01-.04-.36,.52-.54,.88-.2,.57,.55,1.1,.3,1.66,0Z"/>
  <path class="cls-21" d="M54.4,86.78c.68-.01,1.4,.77,1.4,1.53,0,.77-.92,1.71-1.65,1.59-.71-.13-1.34-.51-1.21-1.37,.13-.82,.3-1.73,1.45-1.75Z"/>
  <path class="cls-49" d="M57.25,85.37c-.36-.63-.28-1.12,.46-1.39,.61,0,1.21,0,1.96,0-.61,.9,.08,1.58,.36,2.65-1.1-.52-1.7-1.55-2.78-1.27Z"/>
  <path class="cls-46" d="M61.85,80.29c-.27,.06-.56,.22-.82,.17-.28-.05-.52-.33-.39-.66,.1-.24,.36-.11,.57-.07,.21,.04,.43,.07,.64,.1h0v.46h0Z"/>
  <path class="cls-46" d="M65.04,80.29c-.15,.04-.37,.17-.58,.15-.16-.01-.21-.27-.06-.36,.18-.11,.41-.18,.62-.16,.21,.01,.23,.18,.02,.38Z"/>
  <path class="cls-46" d="M68.44,84.62c-.02,.06-.04,.16-.06,.16-.06,0-.13-.04-.2-.06,.02-.06,.04-.16,.06-.16,.06,0,.13,.04,.2,.06Z"/>
  <path class="cls-43" d="M67.39,95.52c-.1,.2-.41,.44-.45,.33-.22-.53,.3-.21,.46-.33h0Z"/>
  <path class="cls-43" d="M77.99,90.9c.15,.15,.31,.31,.46,.46h0c-.15-.15-.31-.31-.46-.46h0Z"/>
  <path class="cls-43" d="M77.99,90.9c-.06-.04-.19-.08-.18-.1,.03-.15,.11-.12,.18,.1,0,0,0,0,0,0Z"/>
  <polygon class="cls-46" points="70.15 83.98 70.05 84.18 69.96 84.09 70.15 83.98"/>
  <path class="cls-46" d="M70.15,83.98c0-.15,0-.31,0-.46,.31,.15,.31,.31,0,.46Z"/>
  <polygon class="cls-46" points="70.15 83.52 69.96 83.42 70.05 83.33 70.15 83.52"/>
  <path class="cls-8" d="M22.57,15.33c.03,.29,.02,.56-.21,.65-.54,.22-1.09,.65-1.7,.22-.31-.22-.65-.49-.57-.92,.1-.54,.61-.53,.9-.34,.51,.32,1.28-.44,1.59,.4Z"/>
  <path class="cls-8" d="M20.36,20.33c.06,.28,.25,.62,.16,.83-.2,.46-.59,.36-.89,.05-.36-.37-.98-.4-1.32-1.13,.75,.09,1.4,.17,2.05,.24h0Z"/>
  <path class="cls-8" d="M20.36,20.33c.03-.14,.04-.29,.09-.43,.11-.32,.35-.47,.68-.42,.11,.02,.28,.17,.27,.24-.02,.35-.31,.47-.6,.54-.14,.04-.29,.04-.44,.06h0Z"/>
  <path class="cls-8" d="M19.24,14.21c-.05,.13-.11,.26-.16,.38-.13-.06-.33-.08-.36-.17-.04-.09,.09-.25,.14-.38,.13,.06,.26,.11,.38,.17Z"/>
  <path class="cls-8" d="M22.54,11.85c.02-.06,.04-.16,.06-.16,.06,0,.13,.04,.19,.06-.02,.06-.04,.16-.06,.16-.06,0-.13-.04-.19-.06Z"/>
  <path class="cls-8" d="M22.66,18.49c-.2-.06-.4-.11-.6-.17,.34-.42,.43,0,.6,.17h0Z"/>
  <path class="cls-34" d="M59.38,98.76c0,.65-.94,1.28-1.49,1.05-.27-.11-.46-.4-.73-.51-.51-.21-1.35-.04-1.18-.99,.06-.37,1.91-.73,2.24-.38,.35,.38,1.12,.21,1.16,.83Z"/>
  <path class="cls-2" d="M36.5,54.01c.6-.02,.91-.32,.92-.92,0,0,0,0,0,0,1.08-1.28,.23-2.49-.11-3.72-.1-.3-.01-.56,.18-.78,0-.22,.53,.09,.35-.34-.04-.08-.07-.15-.11-.23,0-.08,0-.17,0-.25,.05-.07,.1-.14,.15-.2,1.27,.34,1.9,1.46,2.75,2.31,.83,2.17,.9,4.5,1.49,6.72,.06,.46,.07,.92,.14,1.38,.02,.22,.01,.44-.02,.66-1.45,2.47-2.71,4.95-1.44,7.94,.38,.9-.93,1.34-.86,2.26,.04,.48-.53,.95,.07,1.45,.66,.55,.8-.46,1-.38,1.36,.51,2.95-.18,4.2,.81,.1,.05,.19,.1,.28,.15,.07,.08,.15,.15,.22,.23,.15,.31,.31,.61,.46,.92h0c-1.3,.9-1.35,1.07-.35,1.87,.54,.43,1.57,.56,.67,1.63-.33,.39,.21,.62,.52,.82,.55,.35,1.17,.3,1.78,.3,.63,0,1.02,.26,1.07,.92-.92,.14-1.96-.37-2.76,.46h0c.37,.14,1.19-.37,.94,.64-.06,.26-.36,.66,.15,.59,.92-.14,1.63-.4,.56,.83-.71,.82,.36,1.12,.66,1.64-.03,.1-.05,.19-.08,.29-.11,.17-.26,.3-.43,.41-.39,.16-.78,.17-1.18,.06-.18-.07-.35-.18-.49-.32-.28-.38-.64-.66-1.05-.9-1.06-.29-2.11-.59-3.23-.46,0-.53,.02-1.08-.39-1.5-.36-.37-.71-.9-1.33-.53-.63,.37-.66,1-.44,1.61,.1,.26,.35,.53,.6,.66,1.76,.9,1.5,2.28,.94,3.75-.13,.35-.21,.72-.31,1.09,.07,.35,.77,.38,.46,.92-.31,0-.61,0-.92,0-.62-.3-1.08-.76-1.38-1.38,.27-.89-.39-.84-.92-.92,0-.67,.01-1.34-.92-1.38-1.27-.32-.55-1.16-.49-1.84,.6-1.55,.37-3.11,.04-4.65-.13-.59-.45-1.14-.15-1.76,.16-.15,.35-.23,.57-.24,1.71,.55,3.18-.95,5.1-.43-1.61-1.1-2.83,.69-4.2,.09-.21-.07-.39-.19-.54-.34-1.07-2.58-2.01-5.19-1.53-8.06,.12-.71-.5-.35-.71-.38-1.88-.25-1.88-1.03-.63-2.15,.97-.86,1.02-1.77,.43-2.87-.72-1.35-.59-2.26,1.29-2.01,.46,.06,.97,.11,1.02-.57,.07-1.02-.57-.23-.86-.32-1.3-.38-1.93-2.25-1.17-3.52Z"/>
  <path class="cls-20" d="M44.33,21.26c0-.15,0-.3,0-.46,.48-1.93,1.2-3.74,2.77-5.07,0,0,0,0,0,0,.59-.28,.32-1.12,.92-1.39,.14,.1,.24,.23,.31,.38,.05,.16,.09,.32,.11,.48,.04,.24,.06,.49,.06,.73,0,.08,0,.16-.01,.24-.13,1.47-1.4,2.37-1.85,3.69-1.61,2.18-2.22,4.81-3.17,7.27-1.15,2.96-1.66,6.11-1.92,9.29-.02,.22-.06,.45-.15,.66-.12,.29-.33,.53-.66,.53-.37,0-.5-.29-.52-.61-.03-.53-.08-1.07-.03-1.6,.12-1.34,.3-2.67,.45-4.01,0,0,0,0,0,0,.25-1.45,.28-2.98,1.37-4.16,0-.15,.01-.3,.02-.45,.41-1.99,.46-4.14,2.3-5.54Z"/>
  <path class="cls-25" d="M41.57,57.23c-.05-.53,.05-1.12-.16-1.57-.85-1.87-.79-3.83-.78-5.8,0-.44,0-.88,0-1.87,1.2,2.57,1.03,5.01,2.32,6.94-.36,1.15,.39,1.92,.93,2.76,.57,.29,.94,.71,.91,1.39-.07,.67,.16,1.27,.45,1.85-.68,.5-1.42-.06-2.12,.11-1.12-.67-.86-1.87-1.09-2.88h0c-.27-.25-.18-.68-.46-.92Z"/>
  <path class="cls-52" d="M37.89,48.47c-.15,.16-.3,.31-.46,.47-.21,.19-.41,.18-.6-.03-.1-.46-.21-.93,.12-1.36-.6-2.36-.44-4.66,.47-6.92,.51,.37,.45,.93,.45,1.46,0,1.82,0,3.64,0,5.46,0,0,0,0,0,0-.12,.1-.16,.2-.12,.31,.04,.1,.08,.15,.12,.15h0c.1,.1,.14,.21,.1,.31-.03,.1-.07,.15-.1,.15Z"/>
  <path class="cls-20" d="M40.72,44.49c-.92-1.67-1.34-3.39-.74-5.22,.11-.36,.31-.8,.76-.7,.39,.09,.63,.55,.55,.92-.36,1.64,0,3.34-.56,5Z"/>
  <path class="cls-40" d="M37.41,7.88q1.76,1.54,.45,4.14c-2.24,.59-2.26,.58-2.81-.88-.82-2.18-.37-2.81,2.35-3.26Z"/>
  <path class="cls-22" d="M42.95,7.88c-.61,0-1.23,0-1.84,0-.69-2.2-.09-2.81,2.3-2.3,0,.61,0,1.23,0,1.84-.15,.15-.31,.31-.46,.46Z"/>
  <path class="cls-15" d="M38.8,18.95c-.77,.62-1.54,1.23-2.31,1.85,.09-.51,.36-1.08,.22-1.52-.48-1.47-.4-1.65,1.01-1.72,1.1-.06,.27,1.28,1.07,1.39Z"/>
  <path class="cls-8" d="M32.97,5.18c.31,.03,.52,.13,.52,.37,0,.4-.3,.44-.6,.39-.22-.04-.44-.18-.33-.43,.07-.16,.3-.24,.4-.32Z"/>
  <path class="cls-35" d="M47.56,82.14c.46,0,.92,0,1.38,0,.14-.17,.33-.29,.46-.46,.31,0,.62,0,.92,0-.27,1.33-1.4,1.96-2.3,2.77-.16-.13-.31-.32-.5-.39-1.28-.45-1.29-.44-.43-1.46,.05-.25,.21-.41,.46-.46Z"/>
  <path class="cls-2" d="M47.56,82.14c-.15,.15-.31,.31-.46,.46-.76-.04-1.5,.05-2.21,.35-.29,.12-.66,.06-.77-.24-.16-.42,.13-.76,.51-.86,.5-.13,1.04-.12,1.55-.17,.6-.26,.94,.24,1.38,.46h0Z"/>
  <path class="cls-44" d="M42.49,86.75c.07-.42-.94-.3-.46-.92,.64,.1,1.34-.22,1.98,.26-.28,.79-.95,.61-1.51,.66Z"/>
  <path class="cls-35" d="M47.56,82.14c-.52,.03-.94-.27-1.38-.46,0-.15,0-.31,0-.46,1.24-.86,1.1,.35,1.38,.92Z"/>
  <path class="cls-2" d="M42.17,80.49c-.09-.18-.04-.3,.15-.32,.03,0,.1,.1,.12,.17,.03,.14,.04,.28,.05,.42-.11-.09-.22-.18-.32-.26Z"/>
  <path class="cls-2" d="M42.49,80.76c.15,0,.31,0,.46,0-.15,.31-.31,.31-.46,0Z"/>
  <path class="cls-39" d="M42.03,58.15c.84,.74,.54,2.04,1.37,2.78,.99,1.02,1.78,2.21,2.77,3.23-.36,.54-.94,.42-1.46,.49-.3,.04-.64,.09-.64,.51,0,.34,.22,.6,.52,.68,.51,.14,1.04,.19,1.61,.29,.01,1.47-1.42,1.77-2.65,2.95,1.67-.35,2.65,.34,3.88,.48-.26,.93-.78,1.45-1.73,1.52,0,0,0,0,0,0-.15-.17-.31-.17-.46,0-.98,.7-1.22-.5-1.8-.73-.46,.15-.36,.46-.31,.75,.05,.25-.03,.45-.32,.63-.95-.04-.75-1.19-1.53-1.59-.54,.33,.15,1.31-.63,1.63-.89-.17-.71-1.5-1.69-1.64-.29-.04-.26-.32-.05-.47,.58-.41,.83-.79,.29-1.49-.33-.42,.23-.65,.57-.74,.98-.27,.81-.78,.26-1.29-.66-.61-.69-1.12-.28-1.98,.42-.87,.02-1.91,.42-3,.44-1.2,1.52-1.84,1.83-3Z"/>
  <path class="cls-9" d="M46.18,64.16c-1.7-.41-2.41-1.67-2.77-3.23,.11-.54,.24-1.1,.91-.46,.28,.26,.56,.42,.93,.46,.1,.82,.49,1.51,1,2.13,.32,.39,.4,.76-.06,1.1Z"/>
  <path class="cls-30" d="M44.79,59.08c-.51-.33-.65-.9-.91-1.39,1.02-.2,1.6,.8,2.94,.54-.83,1-1.47,.78-2.03,.85Z"/>
  <path class="cls-2" d="M46.18,71.99c.7,.19,1.36-.46,2.15-.15q-1.17,1.03-2.16,.15s0,0,0,0Z"/>
  <path class="cls-29" d="M51.71,70.15c.41,.27,.43,.6,.12,.95-.21,.24-.51,.43-.77,.11-.16-.19,.01-.41,.18-.57,.17-.15,.31-.33,.47-.49h0Z"/>
  <path class="cls-12" d="M42.48,11.11c.15,.43,.38,.84,.44,1.28,.08,.56-.13,1.07-.69,1.32-.47,.21-.9,.1-1.23-.29-.38-.44-.46-.98-.19-1.48,.18-.32,.5-.56,.76-.83,.3,0,.61,0,.91,0Z"/>
  <path class="cls-54" d="M48.03,14.81c0-.16,0-.31,0-.47,.16-.31,.31-.62,.47-.92,.15,0,.3,0,.45,0,.1,.05,.2,.1,.29,.15,.5,1.28,.06,1.66-1.2,1.25Z"/>
  <path class="cls-55" d="M57.7,5.12c1.39-1.28,3.01-2.24,4.61-3.23,.52,.02,1.07-.08,1.54,.53-1.13,.75-2.26,1.49-3.39,2.23-1.1,.35-1.83,1.26-2.76,1.85-.52,.26-.75-.06-.94-.47,.16-.15,.31-.31,.47-.46,.15-.16,.33-.28,.47-.45Z"/>
  <path class="cls-1" d="M56.77,6.03c.31,.16,.63,.31,.94,.47-.77,.76-1.82,1.24-2.31,2.29-.15,0-.3,.01-.46,.02-.75,.13-1.05-.18-.92-.92,.43-.19,.74-.49,.92-.92,.63-.27,1.03-.99,1.82-.93Z"/>
  <path class="cls-38" d="M49.87,12.03c-.39-.68,.26-.35,.45-.47,0,0,.02,.01,.02,.01,.1,.11,.14,.22,.13,.34-.02,.12-.04,.18-.07,.18-.19,.1-.36,.09-.52-.06Z"/>
  <path class="cls-54" d="M49.87,12.03c.15,0,.3,0,.45,0,.07,.21,.02,.38-.16,.52-.1-.02-.2-.04-.3-.06,0-.15,0-.3,0-.46Z"/>
  <path class="cls-54" d="M49.39,12.95c.16-.15,.31-.3,.47-.46,0,0,.01,.01,.01,.01,.07,.22,0,.39-.18,.51-.1-.02-.2-.05-.3-.07Z"/>
  <path class="cls-54" d="M48.94,13.41c.15-.16,.3-.31,.45-.47,0,0,.02,.01,.02,.01,.11,.4-.03,.57-.45,.47h-.02Z"/>
  <path class="cls-33" d="M48.96,13.42c.15-.16,.3-.31,.45-.47,.16-.15,.31-.3,.47-.46,.15-.16,.3-.31,.45-.47,0-.15,0-.3,.01-.46,1.33-1.13,2.09-2.83,3.69-3.69,.17,.44,.48,.74,.92,.92-.48,1.06-1.93,1.14-2.31,2.3-1.01,1.16-2.36,2.07-2.77,3.68-.13,.48-.48,.71-.95,.81-.35,.02-.64-.09-.88-.35,0-.15,0-.29,0-.44,.88-.08,1.42-.39,.93-1.39Z"/>
  <path class="cls-1" d="M57.7,5.12c-.16,.15-.31,.3-.47,.45,.16-.15,.31-.3,.47-.45Z"/>
  <path class="cls-24" d="M48.95,15.27c.3-.16,.61-.32,.91-.48,1.21,.12,1.6,.89,1.27,1.92-.29,.9-.35,1.78-.34,2.7-1.93-.2-2.02-.24-1.32-1.92,.5-1.21-.05-1.33-.98-1.3,0,0,0,0,0,0-.3-.54,.22-.66,.47-.91Z"/>
  <path class="cls-48" d="M36.5,54.01c-.11,.46-.72,.95,.1,1.35,.2,.1,.44,.18,.58,.34,.36,.42-.62,1.28,.45,1.47,.72,.13,.68-.98,1.62-.93-.77,.95,.09,1.72,.18,2.58-1.07,.63-2.1,.04-3.09-.02-.05,.26-.14,.44-.09,.54q1.44,3.05-.99,5.3c.77,.14,1.48,.33,2.19,.37,.38,.02,.77-.16,.95,.31,.3,.8-.38,.63-.76,.73-.43,.11-.47,.43-.29,.7,.74,1.11,.28,2.42,.64,3.56,.17,.56-.35,1.41,.88,1.71,.79,.19-.17,1.19-.06,1.84-.32,.69-.94,1-1.39,.38-1.11-1.56-2.25-3.1-3.47-4.57-.44-.52-.12-.92,.13-1.42,.65-1.32,.65-2.63-.32-3.87-.56-.72-.66-1.66-.94-2.52-.15-.15-.31-.31-.46-.46,.36-1.22,.46-2.59,1.85-3.23,0-.38,.09-.72,.46-.92,.2-.15,.37-.31,0-.46-.45-1.34-.72-2.78-2.24-3.43-.28-.12-.37-.48-.11-.76,.09-.09,.38-.15,.39-.13,.83,1.6,2.66,.74,3.8,1.56Z"/>
  <path class="cls-53" d="M32.81,61.85c1.44,.04,.29,1.95,1.53,2.13-.31,1.26,.69,1.5,1.48,1.79,.12,.7-.28,1-.71,1.14-1.17,.38,0,1.1-.27,1.57-.51,.93-.52,.93,.16,1.39,.31,.21,.89,.32,.84,.69-.19,1.42,.51,1.92,1.78,2.06,.28,.03,.38,.31,.34,.69-.09,.74-.02,.75,.85,.54,.15,0,.31,0,.46,0,.14,.75-.18,1.05-.92,.92-.15,0-.3,0-.46,0-.38,.44-.3,1.56-1.39,.92-.09-.28-.1-.75-.28-.83-1.26-.52-2.44-1.15-3.31-2.31,.26-.34,.87,.1,1.29-.21-.76-1.43-1.85-.24-2.77-.34-.06-.07-.13-.14-.19-.22,0-.1,0-.19,0-.29,.08-.38,.21-.75,.4-1.1,.19-.24,.39-.44,.72-.24,.29-.19,.45-.47,.26-.76-.33-.51-.64-1.09-1.11-1.45-1.75-1.33-.78-3.14-.88-4.75-.03-.45,.48-.76,.97-.84,.45-.07,.93-.05,1.22-.51Z"/>
  <path class="cls-53" d="M34.19,58.16c.54,.64,.93,1.27-.44,1.13-.48-.05-.87-.05-.55,.48,.69,1.13-.57,1.09-.86,1.62-.37-.24-1.24,.86-1.24-.49,0-.57-.55-.44-.85-.29-.87,.43-1.59,.31-2.26-.51,.99-1.01,2.79-.2,3.57-1.59-.47-.79-1.05,.16-1.7-.14,.21-.77,1.21-1.16,1.1-2.06,.21,.1,.44,.3,.62,.27,1.37-.27,2.08,.49,2.6,1.58Z"/>
  <path class="cls-8" d="M21.58,35.61c.98-.65,1.97-.7,3.35,.05-1.34,.53-2.34,.39-3.35-.05Z"/>
  <path class="cls-16" d="M17.12,48.31c.96-.36,1.53-.43,2.06-.06,.11,.54-.33,.57-2.06,.06Z"/>
  <path class="cls-32" d="M32.35,70.15c-.15,.15-.31,.31-.46,.46-.94,.01-1.33-.51-1.38-1.38,.79-.04,1.5,.08,1.84,.92Z"/>
  <path class="cls-51" d="M26.64,55.26c-.06,.13-.08,.33-.18,.36-.09,.04-.25-.09-.37-.15,.06-.13,.08-.33,.18-.36,.09-.04,.25,.09,.38,.15Z"/>
  <path class="cls-51" d="M30.04,55.39c-.04,.06-.08,.19-.1,.18-.15-.03-.12-.11,.1-.18h0Z"/>
  <path class="cls-50" d="M30.5,69.23c.46,.46,.92,.92,1.38,1.38,0,.38-.09,.72-.46,.92,0,.15,0,.31,0,.46-.96,.48-1.41-.63-2.21-.71-.26-.02-.49-.47-.74-.48-.79-.01-.98,1.76-2.29,.64-.73-.63-1.58,.35-2.5,.18,.36,1.16,1.12,.09,1.45,.79-.62,.63-1.31,.65-2,.16-.6-.42-.34-.98-.04-1.42,.44-.63,.08-1.14-.27-2.06,1.65,1.18,3.18,1.38,4.79,.7,.57-.24,.99,.16,1.44,.47,.93,.62,1.05,.31,.76-.64-.09-.29,.39-.37,.69-.4Z"/>
  <path class="cls-28" d="M36.49,75.68c.72,.08,.9-.64,1.39-.92,.16,.57,.22,1.21,.52,1.7,.74,1.22-.14,2.62,.51,3.85,.08,.16-.37,.6-.57,.91-.95,.14-1.63-.38-2.3-.92h0c-.25-.28-.67-.2-.92-.46-.58-.76-.6-.93-.07-1.15,.84-.34,1.14-1.48,2.35-1.35-.81-.6-1.9,.18-2.43-.85,.38-.5,1.06-.45,1.52-.8Z"/>
  <path class="cls-41" d="M36.04,80.29c.93-.1,1.74,.1,2.3,.92,.17,.62-.83,1.23,0,1.85,0,.31,0,.61,0,.92h0c-2.36,.95-2.35,.94-2.64,.67-.69-.64-1.65-.7-2.44-1.13,.67-.67,1.63-1.13,1.64-2.3,0-.71,.97-.35,1.12-.93Z"/>
  <path class="cls-4" d="M21.55,70.5c-.24,.72-.34,1.33-.64,1.81-.16,.26-.66,.44-1,.42-.53-.03-.54-.58-.36-.88,.46-.76-.7-1.19-.27-2.02,.76,.13,1.39,.71,2.26,.67Z"/>
  <path class="cls-4" d="M18.66,72.55c-.1,.07-.24,.23-.31,.21-.32-.12-.74-.14-.79-.6,0-.03,.26-.12,.4-.11,.32,.03,.58,.18,.7,.5Z"/>
  <path class="cls-4" d="M16.67,69.23c.06-.33,.05-.73,.55-.7,.05,0,.14,.09,.14,.14,.03,.51-.36,.49-.7,.55h0Z"/>
  <path class="cls-4" d="M18.68,78.21c-.13,0-.26,.03-.38,.02-.04,0-.09-.12-.09-.18,0-.19,.12-.28,.27-.18,.1,.07,.14,.23,.2,.35Z"/>
  <path class="cls-4" d="M18.51,76.61c-.18,.29-.39,.48-.72,.2-.05-.04-.09-.17-.06-.21,.26-.42,.52,0,.78,0h0Z"/>
  <path class="cls-41" d="M33.27,83.52c-.2,.37-.54,.45-.92,.46,.2-.37,.54-.45,.92-.46Z"/>
  <path class="cls-41" d="M35.11,79.83c.38,.01,.72,.09,.92,.46-.38,0-.72-.09-.92-.46Z"/>
  <path class="cls-4" d="M19.9,66c-.15,.15-.31,.31-.46,.46,.12-.19-.23-.84,.46-.46Z"/>
  <path class="cls-4" d="M19.9,79.37c.04-.06,.08-.19,.1-.18,.15,.03,.12,.11-.1,.18h0Z"/>
  <path class="cls-36" d="M39.26,84.45c.67-.25,1.24-.83,2.08-.76,0,.96-1.06,.96-1.16,1.68-.44-.17-.75-.48-.92-.92Z"/>
  <path class="cls-41" d="M38.34,83.99c.06,.04,.19,.08,.18,.1-.03,.15-.11,.12-.18-.1,0,0,0,0,0,0Z"/>
  <path class="cls-32" d="M32.35,87.21c.02-.6,.32-.91,.92-.92-.01,.6-.32,.91-.92,.92Z"/>
  <path class="cls-3" d="M47.11,15.73c-.83,1.74-1.61,3.51-2.77,5.07-.3-1.25-.3-1.65,.2-3,.13-.35,.07-.61-.15-.82-.63-.65-.42-1.3,.09-1.83,.64-.67,1.03,.05,1.53,.36,.3,.19,.73,.16,1.1,.23Z"/>
  <path class="cls-3" d="M44.33,21.26c-1.09,1.71-1.17,3.84-2.3,5.54-.17-.31-.44-.41-.77-.33-.68,.16-.73-.4-.89-.79-.19-.49,.22-.66,.55-.85,.33-.19,.67-.36,1-.56,.2-.12,.29-.31,.28-.57q-.17-2.27,2.13-2.44Z"/>
  <path class="cls-30" d="M42.01,27.25c-.13,1.49-.56,2.89-1.37,4.16-.04-.3-.09-.74-.37-.76-1.58-.14-.92-1.17-.54-1.69,.55-.75,1.15-1.64,2.28-1.71Z"/>
  <path class="cls-37" d="M36.96,48.93c.16,0,.31,0,.47,0,1.39,.93,.86,2.51,1.17,3.77,.18,.73-.65,.59-1.17,.37,0-1.25-.7-2.41-.46-3.69-.13-.1-.17-.2-.13-.31,.04-.1,.08-.15,.13-.15Z"/>
  <path class="cls-2" d="M36.96,48.93c0,.15,0,.31,0,.46-.66-.61-.65-1.23,0-1.84,0,.46,0,.92,0,1.38Z"/>
  <path class="cls-53" d="M34.65,56.77c.25-.03,.62-.38,.71-.04,.12,.48-.39,.44-.71,.5,0-.15,0-.31,0-.46Z"/>
  <path class="cls-15" d="M34.65,51.24c-.06,.2-.11,.4-.17,.6-.42-.34,0-.43,.17-.6h0Z"/>
  <path class="cls-15" d="M34.19,48.93c.04-.06,.08-.19,.1-.18,.15,.03,.12,.11-.1,.18h0Z"/>
  <path class="cls-8" d="M35.11,22.18c.04-.06,.08-.19,.1-.18,.15,.03,.12,.11-.1,.18h0Z"/>
  <path class="cls-48" d="M38.34,74.76c.44-.18,.75-.48,.92-.92,.46-.02,.92-.03,1.37-.08,.68-.07,.76-1,1.4-1.07,.57-.06,.55,1.01,1.2,.78,.35-.13,.65-.49,.82,.1,.1,.32-.21,.67-.46,.71-1.54,.25-3.05,.57-4.49,1.22-.3,.13-.6-.39-.78-.74Z"/>
  <path class="cls-46" d="M47.1,77.99c-.03,.28-.02,.59-.33,.73-.06,.02-.26-.12-.25-.16,.06-.32,.32-.45,.59-.56,0,0,0,0,0,0Z"/>
  <path class="cls-39" d="M41.57,57.23c.37,.2,.45,.55,.46,.92-.38-.2-.46-.54-.46-.92Z"/>
  <path class="cls-46" d="M49.4,81.68c-.15,.15-.31,.31-.46,.46,.15-.15,.31-.31,.46-.46Z"/>
  <path class="cls-29" d="M45.25,71.07c.15-.31,.31-.31,.46,0-.15,0-.31,0-.46,0Z"/>
  <path class="cls-30" d="M37.89,48.47c0-.15,0-.31,0-.46,.18,.06,.25,.18,.18,.33-.03,.06-.11,.09-.17,.14Z"/>
  <path class="cls-30" d="M37.88,48.01c-.31-.15-.32-.3,0-.46,0,.15,0,.3,0,.46Z"/>
  <path class="cls-54" d="M48.95,15.27c-.16,.3-.31,.61-.47,.91-.38-.2-.45-.55-.45-.93,.31,0,.61,.01,.92,.02Z"/>
  <polygon class="cls-53" points="31.42 71.53 31.23 71.43 31.32 71.34 31.42 71.53"/>
</svg>