<?xml version="1.0" encoding="UTF-8"?>
<svg id="Layer_1" data-name="Layer 1" xmlns="http://www.w3.org/2000/svg" viewBox="0 0 77.16 66.03">
  <defs>
    <style>
      .cls-1 {
        fill: #8ed7f5;
      }

      .cls-2 {
        fill: #9addf7;
      }

      .cls-3 {
        fill: #94dbf7;
      }

      .cls-4 {
        fill: #96dcf8;
      }

      .cls-5 {
        fill: #93d9f6;
      }

      .cls-6 {
        fill: #84d2f2;
      }

      .cls-7 {
        fill: #9bdff9;
      }

      .cls-8 {
        fill: #a2e1fa;
      }

      .cls-9 {
        fill: #90d8f5;
      }

      .cls-10 {
        fill: #8ed7f4;
      }

      .cls-11 {
        fill: #9edff8;
      }

      .cls-12 {
        fill: #87d4f4;
      }

      .cls-13 {
        fill: #8fd7f5;
      }

      .cls-14 {
        fill: #afe8fd;
      }

      .cls-15 {
        fill: #60beef;
      }

      .cls-16 {
        fill: #95daf6;
      }

      .cls-17 {
        fill: #96dbf6;
      }

      .cls-18 {
        fill: #9cdef8;
      }

      .cls-19 {
        fill: #74d2f8;
      }

      .cls-20 {
        fill: #91d9f6;
      }

      .cls-21 {
        fill: #68c7f3;
      }

      .cls-22 {
        fill: #8dd6f4;
      }

      .cls-23 {
        fill: #89d4f3;
      }

      .cls-24 {
        fill: #5dbeef;
      }

      .cls-25 {
        fill: #97ddf8;
      }

      .cls-26 {
        fill: #94daf6;
      }

      .cls-27 {
        fill: #a0e1fa;
      }

      .cls-28 {
        fill: #a8e4fb;
      }

      .cls-29 {
        fill: #9fe0fa;
      }

      .cls-30 {
        fill: #88d5f5;
      }

      .cls-31 {
        fill: #6dcff7;
      }

      .cls-32 {
        fill: #a6e3fb;
      }

      .cls-33 {
        fill: #b8ecff;
      }

      .cls-34 {
        fill: #8dd7f5;
      }

      .cls-35 {
        fill: #6bc8f3;
      }
    </style>
  </defs>
  <g>
    <path class="cls-17" d="M73,35.33c2.36,3.66,3.82,7.63,4.12,12-.8-.17-1.68-1.03-2.33,.25-.39,.22-.81,.28-1.24,.29-.62,0-1.39,0-1.7-.49-1.24-2.02-2.4-.63-3.69-.11-1.22,.49-2.14,2.46-3.92,.93-.09-.08-.74,1.02-1.33,1.39-.94,.58-1.94,.92-3.06,.73-1.93-1.75-2.11-3.85-1.27-6.17,.29-.51,.5-1.06,.85-1.53,.74-.73,1.65-.86,2.57-.55,2.2,.73,3.95,.29,5.53-1.48,.93-1.04,1.95-2.17,3.6-2.29,.64-.04,.7-.73,.69-1.29-.02-.7,.37-1.17,.88-1.57,.1-.04,.19-.08,.29-.12Z"/>
    <path class="cls-11" d="M72.06,36.73c.73,1.95,.64,2.2-1.14,2.28-.94,.04-1.44,.4-2.02,1.13-.8,1.01-2.27,1.39-2.72,2.83-.1,.31-.68,.21-1.06,.16-.96-.13-1.95-.15-2.87-.44-.93-.29-1.76-.19-2.64,.04-.13-.09-.21-.21-.23-.37-.07-.15-.17-.25-.34-.29-.88,.07-1.71,.61-2.62,.2,.87-3.67,2.57-6.96,4.57-10.12,1.02,1.04,1.99,1.6,3.58,.82,1.26-.61,1.89,.2,1.55,1.66-.2,.02-.36-.08-.51-.2-.02,.2,.25,.08,.27,.24,1.18,.09,2.56-1.28,3.5,.49,.15,.28,.21,.57,.15,.87-.03,.19-.22,.19-.33,.29,.14,.09,.27,.06,.39-.08,.98-.64,1.76-.29,2.45,.5Z"/>
    <path class="cls-23" d="M73.44,47.33c.46,0,.92,0,1.38,0,.95,1.25,.16,2.08-.61,2.89,.91,.22,2.41-.12,2.02,1.77-1.29,4.15-4.08,5.91-8.46,5.95-2.05,.02-4.1,.15-6.16-.4-2.1-.56-3.5-1.75-4.36-3.68-.43-1.03,.19-1.31,1.02-1.46,.23,0,.46,.02,.68,.09,1.12,.38,1.67,1.78,3.33,1.79-.75-1.11-1.81-1.8-2.15-2.96-.15-.4-.33-.81-.07-1.24,.92-.31,1.85-.62,2.77-.93,1.11-.29,4.03,.75,4.6,1.62,.51,.79,.07,1.27-.53,1.72-.71,.54-1.46,.71-2.73-.03,1.22,.81,2.48,.28,2.9,1.55,.2,.59,.66,1.16,1.39,.86,.76-.32,1.26-1.01,.94-1.85-.39-1.03,.02-1.96,.1-2.94,.07-.75,.07-1.68,.93-1.94,1.13-.34,.82,1.07,1.48,1.42,1.34-.18,.49-1.86,1.51-2.26Z"/>
    <path class="cls-5" d="M69.29,35.34c-.79-.55-1.49-1.12-2.51-.22-.57,.51-1.1,.07-1.18-.7h0c.28-.04,.72-.05,.57-.43-.19-.49-.61-.95-1.21-.77-.49,.14-.91,.5-1.37,.72-.99,.47-1.82,.6-2.12-.84-.06-.29-.46-.56-.46-.96,1.62-2.3,3.2-4.62,5.2-6.65,1.82,1.65,3.2,3.64,4.46,5.72,.15,.16,.22,.34,.21,.56-.49,1.01-1,2-1.14,3.13-.06,.09-.12,.17-.18,.26-.09,.06-.17,.12-.26,.18Z"/>
    <path class="cls-20" d="M58.69,52.87c-.74-.04-1.37,.08-1.43,1.01-.44-.4-.66-.93-.89-1.46h0c-1.06-1.89-1.45-3.86-1.02-6.03,.28-1.41,.45-2.82,1.08-4.13,1.2-.27,2.3-1.32,3.64-.46-.19,.12-.29,.32-.45,.47,0,.15,0,.3,0,.45-.03,.51,.08,1.06-.46,1.39-1.3-.78-1.42,.32-1.59,1.08-.38,1.76-.16,3.49,.5,5.16,.08,.18,.15,.36,.22,.54,.04,.08,.07,.17,.11,.26,.08,.16,.15,.34,.21,.51,.08,.16,.15,.33,.21,.5,.03,.09,.05,.17,.08,.26,.02,.19-.05,.34-.2,.46Z"/>
    <path class="cls-10" d="M76.24,52c-.19-1.45-1.73-.92-2.46-1.81,.55-.78,1.34-1.64,1.05-2.86,.02-.15,.01-.31,.07-.45,.2-.47,.26-1.14,.89-1.19,.68-.05,.76,.59,.94,1.1,.07,.2,.26,.36,.4,.54,0,.46,0,.92,0,1.39-.89,.46,.1,1.34-.42,1.89,0,.52,.05,1.05-.45,1.4Z"/>
    <path class="cls-17" d="M69.29,34.88c.02-1.27,.27-2.43,1.38-3.23,.14-.15,.28-.15,.42,0,.05,.12,.09,.25,.1,.38,.12,.6,.36,1.11,.9,1.45,.34,.21,.44,.55,.45,.92-.06,.08-.13,.16-.19,.24-.88,.12-1.19,1.39-2.27,1.13-.32-.24-.49-.63-.8-.88Z"/>
    <path class="cls-17" d="M76.69,50.6c.15-.91-.97-.8-1.2-1.46,.42-.65,1.07-.34,1.62-.43,.05,.67,.17,1.36-.42,1.89Z"/>
    <path class="cls-11" d="M72.09,33.49q-1.41-.13-.9-1.45c.54,.33,.85,.81,.9,1.45Z"/>
    <path class="cls-17" d="M72.54,34.41c.34,.22,.43,.55,.45,.92,0,0-.04,.04-.04,.04-.48,.32-1.05,.48-1.29-.15-.24-.63,.59-.46,.83-.77l.05-.04Z"/>
    <path class="cls-11" d="M71.1,31.66h-.21s-.21,0-.21,0c0-.15,0-.3,0-.45,.23,.07,.38,.21,.42,.45Z"/>
    <path class="cls-10" d="M73.44,47.33c.42,1.49-.37,2.51-1.34,3.46-1.27-.27-1.13-1.45-1.31-2.58-1.26,1.28-.17,2.94-1.22,3.98-.02,.02,.02,.18,.07,.21,1.86,1.1,.2,1.87-.31,2.65-.6,.94-2.31,.95-2.51-.03-.34-1.69-1.39-1.71-2.64-1.79-.34-.02-.66-.3-1.07-.51,.61-.57,1.17-1,1.87-.47,.4,.31,.75,.62,1.13,.07,.3-.44,1.2-.22,1.13-.95-.07-.65-.67-.76-1.22-.81-.49-.05-.92-.22-1.16-.64-.48-.84-1.26-.74-2.02-.74,.28-.36,.54-.74,.85-1.07,.39-.42,.55-.58,1.16,.03,.48,.48,1.65-.29,2.29-.81,1.2-.98,2.69-1.36,4.02-2.43,.08,1.71,.75,2.53,2.28,2.44Z"/>
    <path class="cls-35" d="M57.77,51.02c-1.08-2.43-1.5-4.88-.21-7.38,.22-.43,.31-1.19,.97-1.05,.77,.16,.57,.94,.62,1.52-.94,2.19-.44,4.16,.91,6,.16,.3,.32,.61,.48,.91-.66,.79-1.41,.79-2.23,.27-.2-.05-.38-.14-.54-.28Z"/>
    <path class="cls-5" d="M72.49,34.44c-.17,.23-.53,.53-.47,.67,.15,.4,.62,.17,.94,.26,.1,.72-.63,.88-.9,1.36-.92-.12-1.84-.78-2.77,0-.1-.1-.14-.21-.1-.31,.03-.1,.07-.15,.1-.15,0-.31,0-.61,0-.92h0c.31-.28,.61-.25,.92,0,.72-.39,1.26-1.25,2.27-.9Z"/>
    <path class="cls-17" d="M59.62,42.27c.15-.16,.3-.31,.45-.47-.15,.16-.3,.31-.45,.47Z"/>
    <path class="cls-17" d="M69.29,36.26c0,.15,0,.31,0,.46-.32-.15-.31-.31,0-.46Z"/>
    <path class="cls-5" d="M65.61,34.42c-.06-.04-.19-.08-.18-.1,.03-.15,.11-.12,.18,.1h0Z"/>
    <path class="cls-15" d="M58.22,51.03c.77,.22,1.55,.22,2.32,0,.45,.98,.95,1.9,2,2.41,.41,.2,.79,.57,.54,1.1-.27,.56-.79,.71-1.36,.51-1.12-.4-1.98-1.12-2.59-2.15-.16-.15-.3-.32-.44-.49h-.03c-.11-.14-.17-.3-.2-.47-.03-.17-.1-.33-.23-.46h-.03c-.09-.1-.12-.2-.09-.3,.03-.1,.07-.15,.1-.15Z"/>
    <path class="cls-35" d="M58.69,52.41c.15,.16,.29,.32,.44,.49-.15-.01-.3-.02-.44-.02,0-.15,0-.31,0-.46Z"/>
    <path class="cls-11" d="M70.22,35.34c-.31,0-.61,0-.92,0v-.46c.38,0,.72,.09,.92,.46Z"/>
    <path class="cls-23" d="M56.38,52.42c.06-.2,.12-.4,.18-.61,.43,.35,0,.44-.18,.61,0,0,0,0,0,0Z"/>
    <path class="cls-23" d="M58.68,51.97c0,.15,0,.3-.01,.45-.15-.15-.29-.31-.44-.46,.16-.15,.31-.14,.45,.02Z"/>
    <path class="cls-35" d="M58.68,51.97c-.15,0-.3-.01-.45-.02,0-.16,0-.31,0-.47,.15,.16,.29,.32,.44,.48Z"/>
    <path class="cls-23" d="M58.22,51.03c0,.15,0,.31,0,.46-.15-.16-.29-.31-.44-.47,.15,0,.3,0,.45,0Z"/>
  </g>
  <g>
    <path class="cls-34" d="M49.95,17.87c.33,1.07,.66,2.15,.99,3.22-.44,.47-1.84,.17-1.12,1.58,.87,1.72,.88,3.57,.29,5.69,1.44-1.44,.08-3.36,1.32-4.56,1.02,3.26,.34,6.34-1.26,9.2-1.37,2.44-3.34,4.43-5.98,5.46-2.25,.87-4.62,1.57-7.07,.61-.27-.48-.06-1.17,.25-1.2,1.55-.13,1.88-1.23,2-2.48-.48,.13-.96,1.09-1.74,.47-.6-.47-.66-1.18-.69-1.87-.12-2.31-.11-2.31-.86-3.58,.44,1.35,.04,2.12-1.16,2.46-1.17-.08-1.75-.92-2.31-1.79-.2-.41-.35-.83-.24-1.29,1.11-1,.36-2.73,1.45-3.74,1.03-.66,2.31-.89,3.18-1.84,.2-.09,.4-.13,.62-.12,1.55-.06,3.36,.55,3.75-1.97,.08-.53,1.69-.2,2.05-1.31,.09-.27,.34-.41,0-.65-.1-.17-.16-.35-.19-.54,.07-1.13,.79-1.59,1.79-1.52,.63,.04,.8-.1,.69-.68,.02-.22,.1-.4,.24-.56,1.44-.08,2.75,.35,4,.99Z"/>
    <path class="cls-27" d="M37.59,24.32h-.23s-.23,0-.23,0c-1.59-.33-2.92-1.49-4.72-1.28-.79,.09-1.23-.78-1.27-1.63,.01-.18-.11-.33-.27-.25-.28,.15-.39,.46-.44,.76-.49,2.45-.94,4.9,.14,7.33,.27,.62,.55,1.25,.49,1.96-.3,1.27-1,2.23-2.22,2.77-2.73-3.21-2.62-7.01-2.14-10.83,.17-1.33,.53-2.69,1.22-3.91,.71-.34,1.39-.5,1.48-1.64,.17-2.14,.87-2.6,2.98-2.32,.87,.11,1.58-.6,2.66-.27-.79-.82-1.36-1.59-.2-2.26,1.12-.65,2.25-.64,2.98,.58,.78,1.31,1.45,2.67,2.74,3.58,.37,.74,.31,1.44-.21,2.1,.36,.28-1.42,.04-.13,.57,.46,.19,.55,.67,.56,1.14,.03,.64-.6,1.04-.59,1.68,.01,1.8-1.14,2.06-2.59,1.91Z"/>
    <path class="cls-32" d="M40.35,16.94c-1.69-.05-2.07-1.59-2.69-2.64-1.03-1.74-1.05-1.87-3.12-.73,.18,.97,1.4,.83,1.84,1.7-.42,.43-.98,.35-1.42,.22-.66-.19-1.17-.13-1.65,.4-.4,.45-.86,.66-1.3,0-.2-.31-.41-.66-.88-.59,.16,.99-.88,.71-1.23,1.15,1.02,.69-1.07,1.71,.31,2.48,.47,.26-.17,.66-.49,.63-.6-.06-1.16-.4-1.79-.31,.45-1.45,.83-2.94,1.83-4.15,1.45-2.22,3.75-3.65,5.34-5.75,.45-.59,1.34-.67,2.1-.77,1.35-.03,2.42-.26,2.97-1.86,.39-1.12,1.53-1.85,2.95-1.3,1.5,1.6,2.26,3.63,3.29,5.51-.73,.5-1.56,.63-2.4,.49-2.64-.44-4.04,.91-3.83,3.74,.04,.6,.47,1.16,.18,1.79Z"/>
    <path class="cls-33" d="M37.13,9.1c-1.04,.18-1.81,.41-2.23,1.71-.23,.72-1.47,1.32-2.23,2-.89,.8-1.7,1.85-2.92,2.28,.75-2.86,2.57-5.19,3.95-7.72,1.24-2.27,2.84-4.34,4.31-6.48,.8-1.16,1.14-1.18,2.07-.12,.86,.97,1.58,2.06,2.12,3.25,.07,1.06-.53,1.46-1.42,1.97-1.37,.79-3.15,1.24-3.66,3.1Z"/>
    <path class="cls-7" d="M40.35,16.94c-.85-1.41-1.12-2.61-.14-4.31,.58-1,.79-1.98,2.05-2.21,.29-.05,.72-.21,.86-.08,.99,.91,2.2,.32,3.28,.58,.53,.32,.86,.77,.87,1.41-1.71,1.31-1.72,1.3-2.87,4.04-.14,.34-.39,.55-.62,.84,.76-.34,1.47-.46,2.1,.19h0c-.02,1.29-1.1,.58-1.64,.79-.87,.34-1.37,.59-.67,1.52,0,.15,0,.31,0,.46,.19,.73-.39,.78-.77,.68-.82-.24-1.65-.06-2.46-.21,.03-1.11-1.11-.72-1.65-1.27,.39-.45,1.14-.08,1.43-.68,.27-.57,.19-1.15,.22-1.74Z"/>
    <path class="cls-6" d="M34.8,32.63c.88-.48,1.56-.98,.67-2.09-.3-.37-.37-1,.35-1.46,.57,.85,1.08,1.75,1.71,2.53,.35,.43,.42,.77,.17,1.21-.56,.98-.14,1.88,.11,2.81,.95,.11,1.46-1.04,2.49-.6-1.1,1.02-.86,2.15-.09,3.18-.44,.43-.85,.42-1.14,.15-1.13-1.04-1.54-.21-1.94,.7-2.25,.24-3.92-.94-5.55-2.24-1.23-1.42,.59-1.95,.85-2.93,1.37-.72,2,1.19,3.24,1,.2-1.01-1.22-1.29-.86-2.27Z"/>
    <path class="cls-3" d="M45.89,17.4h-3.17c1.66-.07,.84-1.95,1.82-2.48,.23-.12-.04-.36-.14-.55-.49-.96-.05-2.05,.62-1.74,.99,.47,1.47-.71,2.26-.31,1.19,1.71,1.72,3.73,2.68,5.54-1.28-.05-2.62,.23-3.74-.72-.02-.02-.21,.16-.33,.25Z"/>
    <path class="cls-12" d="M51.44,23.8c0,.92-.01,1.84-.03,2.76,0,.46,.04,.94-.07,1.37-.15,.57-.29,1.24-1.04,1.37-.33,.06-.55-.18-.73-.44-.41-.58-.46-1.12,.11-1.63,.53-.46,.5-.85,.24-1.56-.4-1.12,.04-2.48-.99-3.49-.13-.13,.06-.82,.3-1.05,.5-.47,1.14,.13,1.72-.04,.54,.84,.52,1.78,.49,2.72Z"/>
    <path class="cls-22" d="M32.53,33.98c0,.67,0,1.37-.71,1.73-.59,.3-.33,.71-.24,1.12-1.55-.34-1.93-1.8-2.74-2.85,.34-1.1,1.49-1.66,1.85-2.76,.5-.22,.86,.06,1.22,.35,.51,.72,1.25,1.38,.63,2.4Z"/>
    <path class="cls-14" d="M37.13,9.1c-.02-.62-.33-1.19,.48-1.75,.87-.6,1.67-1.35,2.68-1.63,.98-.27,1.43-.97,1.92-1.7,.49,.34,.67,.89,.92,1.39-.9-.04-1.39,.86-2.22,1-.33,.05-.53,.36-.47,.67,.4,1.9-1.06,1.79-2.18,2.01-.36,.07-.75,.01-1.12,.01Z"/>
    <path class="cls-19" d="M31.58,31.7c-.3-.16-.6-.32-.9-.47-.05-.22-.03-.48-.15-.66-1.73-2.79-1.26-5.77-.75-8.75,.19-1.1,.99-1.58,1.97-1.86,.31,.52-.08,.79-.16,1.12-.67,1.07,.36,2.05,.16,3.1,0,.8,.02,1.59,.23,2.36,.17,1.1,.67,2.16,.54,3.31,.15,.31,.31,.62,.46,.93-.4,.4-.53,1.21-1.39,.92Z"/>
    <path class="cls-4" d="M40.35,20.63c.53-.54,1.03-1.05,1.87-.47,.39,.27,.9,.66,1.35,0,.3,.02,.6,.03,1.39,.08-1.43,.64-1.73,1.61-1.73,2.58-.81,.2-1.03-.53-1.56-.65-.2,.8,.26,1.39,.41,2.29-.84-.3-1.59-.67-2.41,.07-.46,.41-1.53,1.04-2.09-.22,1.31-.43,2.59-.87,2.32-2.71-.03-.2,.43-.58,.45-.98Z"/>
    <path class="cls-24" d="M31.58,31.7c.49-.27,.67-1,1.39-.92,.46,.77,1.05,1.41,1.83,1.85,.29,.68,1.03,.85,1.49,1.33,.41,.43,.51,.99,.21,1.46-.41,.61-1.04,.5-1.6,.18-.83-.47-1.25-1.56-2.37-1.61-.07-.86-.61-1.53-.94-2.28Z"/>
    <path class="cls-4" d="M31.14,24.32c.15-1.08-.4-2.26,.45-3.24-.02,1.09,.38,1.81,1.59,1.61,1.67-.27,2.97,.25,3.95,1.63-.36,1.87-1.99,1.51-3.23,1.84-.05-.1-.1-.19-.15-.29,.38-2.62-1.71-1.1-2.62-1.56Z"/>
    <path class="cls-4" d="M32.52,29.85c-.77-.94-.94-2.05-.94-3.22,.67-.67,1.4-1.05,2.32-.47,0,0,0,0,0,0,.06,.6-.55,1.12-.26,1.73,.6,1.24-.3,1.57-1.12,1.96Z"/>
    <path class="cls-3" d="M43.58,19.71c-.14-.07-.28-.12-.41-.2-.35-.25-.94-.36-.74-.97,.16-.48,.62-.6,1.1-.67,.79-.12,1.7,.3,2.36-.47,.55,.41,.54,1.02,.61,1.77-1,.08-2.46-1.77-2.92,.54Z"/>
    <path class="cls-4" d="M45.57,23.43c.06,.18,0,.28-.2,.27-.06,0-.18-.05-.18-.09-.01-.12,.01-.25,.02-.38,.12,.07,.24,.13,.35,.2Z"/>
    <path class="cls-29" d="M33.9,26.16c-.79,.05-1.49,.6-2.32,.47-.73-.66-.36-1.53-.44-2.31,.9-.96,2.03-.45,3.07-.55,.35,.89,.08,1.65-.3,2.39Z"/>
  </g>
  <g>
    <path class="cls-16" d="M22.64,39.69c2.05,2.73,2.48,5.95,2.71,9.22-1.54-.56-3.12,1.58-4.5-.32-.82,1.19-.25,2.56-1.25,3.36-.29,.26-.7,.62-1,.48-1.66-.78-3.04,.23-4.5,.63-.39,.13-.71,.37-1.03,.62-.18,.11-.37,.2-.57,.26-1.13,.18-2.16,.06-2.6-1.17-.45-1.26,.42-1.86,1.31-2.54,.51-.39,1.63-.81,.74-1.87-.45-1.39,1.18-1.59,1.55-3-.89,1.72-1.95,2.32-3.47,1.79-.7-.65-1.76-1.1-1.33-2.38,1.64-.16,3-.82,4.2-2.01,1.64-1.63,2.03-1.53,3.2,.47,.43,.74,.87,1.32,1.77,.97,.81-.32,.63-.95,.53-1.71-.31-2.28,1.18-3.21,4.25-2.79Z"/>
    <path class="cls-1" d="M19.4,51.68c.45-.75,.54-1.53,.28-2.38-.14-.46,.13-.94,.55-1.14,.46-.22,.92-.32,1.3,.35,.42,.74,1.46,.59,1.72,.13,1.04-1.84,1.45-.08,2.1,.26,.13,2.69-.06,5.33-.77,7.96-.5,1.84-1.26,3.44-2.84,4.57-1.1-.42-2.04-.27-2.82,.71-.8,1-1.79,1.44-2.92,.48-1.27-1.06-2.22,.59-3.38,.34-.93-.56-2.08-1.25-.55-2.2,.86-.53,1.28-.78,.64-1.69,.65-.64,.04-2.7,2.08-1.82,.4,.17,.18-.24,.11-.38-.42-.8,.13-1.49,.26-2.21,.38-2.07,.97-2.5,2.95-1.94,1.2,.34,1.3-.16,1.3-1.05Z"/>
    <path class="cls-28" d="M3.77,36.94c.47-1,.75-2.13,1.75-2.8,1.18-.76,2.73-1.18,3.63-.23,1.87,1.95,3.65,.87,5.17,.02,1.34-.75,3.03-1.35,3.7-3.03,1.28,2.28,3.03,4.32,3.73,6.92-.67,.78-1.62,1.03-2.53,1.4-1.04,.42-2.28,.52-2.71,1.94-.17,.57-.91,.79-1.56,.53-.66-.27-1.32-.24-2-.21-.15,0-.38,.01-.44-.08-1.02-1.79-2.27-2.36-4.08-.97-.31,.24-.87-.03-1.11-.53-.87-1.81-1.96-1.22-3.08-.27-.18,.14-.37,.24-.58,.31-.35,.06-.66,0-.91-.26,.02-.89,.27-1.68,.94-2.3,.13-.08,.18-.17,.15-.28-.02-.11-.05-.16-.09-.16Z"/>
    <path class="cls-2" d="M12.95,41.08c.64-.41,1.16-.28,1.84,.1,.61,.34,1.77,.58,1.3-.96-.07-.24-.02-.45,.25-.49,1.93-.26,3.44-1.74,5.41-1.9,.53,.51,.79,1.14,.89,1.86-.37,.07-1,.06-1.05,.23-.52,1.57-1.45,.65-2.37,.26-.02,1.04-.8,1.79,.03,2.8,.47,.58-.38,1.69-1.34,2.02-.51,.18-1.97-.53-2.18-1.08-.08-.21-.04-.46-.12-.67-.53-1.36-.88-1.42-2-.39-.61,.56-1.3,1.05-1.9,1.63-.91,.86-1.87,.91-2.91,.28-1.57,0-2.75-1.39-4.36-1.23-.43-.11-.9-.33-.91,.46-.01,1.78-1.63,2.58-2.43,3.88-.18,.29-.66,.34-1.04,.12-.01-2.47,.66-4.76,1.86-6.91,.6-.46,1.44-.62,1.81-1.39,.63-.44,1.34-.64,1.86,.02,2.07,2.63,4.76,1.75,7.36,1.36Z"/>
    <path class="cls-18" d="M18.03,30.91c-.18,.59,.48,1.69-.94,1.55-.18-.02-.51,.16-.56,.31-.81,2.57-3.65,1.77-5.2,3.12-.41,.35-1.04-.12-1.33-.59-.81-1.3-2-1.37-3.33-1.15-.37,.06-.76,0-1.14,0,.27-1.03,.73-1.95,1.44-2.74,1.75-1.23,4.2-.61,5.91-2.36,.44-.45,2.51-.17,3.82-.04,.76,.41,.96,1.22,1.33,1.9Z"/>
    <path class="cls-16" d="M12.95,59.06c.16,.77,1.19,1.59-.6,2.03-1.71,.42,.48,1.05,.14,1.66,.16,.64-.17,1.11-.49,1.49,1.04,.6,2.36,.48,3.33,1.31-2.78,.85-5.43,.57-7.94-.9-.19-.48,.14-.82,.49-.81,1.71,.06,2.04-.95,1.92-2.35-.14-.86-.78-1.44-1.19-2.14-.11-.3-.15-.66-.53-.78-.16-.03-.32-.08-.47-.14-.07-.04-.14-.08-.22-.12-.12-.11-.23-.24-.32-.38-.09-.13-.18-.27-.27-.41-.05-.06-.1-.13-.15-.19-.11-.12-.2-.26-.29-.39-.09-.14-.16-.28-.23-.43-.11-.22-.22-.44-.34-.66-.09-.15-.16-.31-.23-.47-.11-.26-.19-.52-.18-.8,.05-.2,.14-.37,.25-.54,1.15-1.44,1.7-.38,2.35,.53,.66,.92,1.28,2.94,2.23,.13,.44-1.29,1.88-.63,2.74-1.15,.19-.16,.4-.23,.64-.22,2.05,.5,2.17,.69,1.2,1.87-.96-.09-1.4,.16-.78,1.15-.05,.76-1.1,.75-1.16,1.5-.14,.19-.28,.37-.25,.63,.1,.21,.26,.39,.34,.6Z"/>
    <path class="cls-26" d="M16.7,29.01c-.31,.72-1.41,.1-1.71,1.14-.16,.57-.82,.19-1.14-.39-.45-.83-.98-1.17-1.19,.15-.08,.53-.46,.48-.8,.6-.72,.26-1.23,1.03-2.24,.43-1.08-.65-.87,1.27-1.83,1.14-.44-.06-.66-.32-.82-.68,1.34-2.57,3.15-4.82,4.93-7.08,.54-.69,1.09-.79,1.6,.02,.99,1.61,2.42,2.91,3.21,4.66Z"/>
    <path class="cls-25" d="M3.18,60.94c-2.56-1.86-2.63-4.77-3.09-7.48-.2-1.18-.04-2.41-.04-3.62,1.71-.62,1.95,1.16,2.9,1.78,.14,.32,.15,.65,.01,.97-1.76,1.63,.59,1.98,.93,2.95,.75,.65,1.24,1.49,1.72,2.33,.55,.92,1.4,1.56,2.12,2.32,.36,.38,1.12,.73,.4,1.44-1.72,.27-3.47,.67-4.96-.7Z"/>
    <path class="cls-30" d="M15.32,65.55c-1.37,.02-2.73,.03-3.75-1.19,.4-.42,.34-1.2,.92-1.61,.84,.02,1.18-.87,1.97-1.06,.76-.19,1.49-.27,1.85,.36,.81,1.44,1.42,.62,2.07-.06,.31-.33,.5-.79,.84-1.08,.92-.79,1.69-.61,2.52,.52-1.24,2.77-3.71,3.63-6.42,4.12Z"/>
    <path class="cls-27" d="M3.18,60.94c1.69,.53,3.45,.19,5.17,.43,.61-.56,1.22-.44,1.83,0,.05,.47,1.56,.74,.16,1.44-1.24,.62,.41,1.2,.04,1.96-.96-.43-1.98-1.17-3-.11-2.16-.38-3.27-1.94-4.19-3.71Z"/>
    <path class="cls-13" d="M2.8,51.69c-.65-.01-1.1-.34-1.37-.92-.27-.58-.71-.91-1.37-.93,0-.62,0-1.23,0-1.85,.59-.33,1.32-.52,1.37-1.39,.02-.39,.09-.9,.45-1,1.3-.38,1.21-1.24,.98-2.26-.11-.48,.16-.97,.63-1.12,.66-.21,.62,.48,.85,.83,.08,.12,.21,.22,.32,.32,.04,.11,.08,.23,.12,.34-1.15,2.53-.99,5.39-1.97,7.97Z"/>
    <path class="cls-8" d="M3.73,39.69c.32,.63,.29,1.15-.5,1.32-.42,.09-.87,.05-1.3,.07,.2-.51,.37-1.05,.84-1.4,.32,0,.65,.01,.97,.02Z"/>
    <path class="cls-8" d="M3.77,36.94c.17,.08,.22,.2,.12,.33-.04,.05-.12,.07-.19,.11,0-.15,.02-.3,.07-.44Z"/>
    <path class="cls-9" d="M12.95,53.53c-.34,.55-.97,.34-1.43,.56-.62,.28-1.28,.63-.99,1.53,.25,.79-.25,1.11-.85,1.36-.75,.31-.88-.38-1.2-.75-.35-.4-.71-.8-.97-1.26-.74-1.31-.72-1.32-1.94-.52-1.55-.46-1.34-1.86-1.47-2.97-.31-2.72-.05-5.42,.56-8.09,0,0,0-.01,0-.01,1.28-1.09,2.02,.61,3.11,.63,.35,0,.7,.5,1.05,.77,.01,.55,.23,1,.71,1.27,.42,.23,.65,.56,.67,1.04,.55,.24,1.23,.33,1.28,1.12,0,.24-.02,.47-.29,.56,0,0,.16,.11,.16,.11,0,0,.14-.14,.14-.14,.1-.1,.22-.18,.34-.23,0,0,.21-.03,.21-.03,.48-.13,.88-.67,1.64-.16-1.25,.72-1.07,2.7-2.97,2.84-.47,.03-.52,.68-.49,1.15,.04,.6,.34,1.05,.92,1.15,.59,.11,1.21,.07,1.81,.09Z"/>
    <path class="cls-9" d="M12.95,59.06c-.38,0-.72-.09-.92-.46,0-.38,.19-.68,.46-.92-.25-1.17,.94-.91,1.38-1.38-.02-.52-.02-1.03,.46-1.38,.3-.04,.63-.08,.7-.43,.05-.27-.19-.39-.42-.44-.44-.09-.92-.06-1.2-.52,.04-.31-.27-.61,0-.92,1.02-.44,2.38-.13,3-1.51,.21-.47,.85-.36,1.04,.16,.45,1.26,1.2,.78,1.95,.42,.31,.03,.76,.11,.73,.41-.08,.79-.59,1.4-1.26,1.79-.29,.17-.92,.25-.94-.22-.05-1.19-.77-.59-1.27-.57-.66,.02-.94,.41-.94,1.05,0,.69,.03,1.38-.48,1.96-.28,.32-.07,.55,.26,.65,.68,.22,.48,.81,.31,1.12-.27,.48-.8,.28-1.2,.06-.25-.13-.37-.48-.77-.48-.03,.67-.13,1.34-.89,1.61Z"/>
    <path class="cls-2" d="M11.11,48.92c.18-.86-.44-1.32-.92-1.84,.36-.12,.74-.38,1.07-.33,1,.15,1.49-.21,1.39-1.21-.06-.55,.13-.93,.64-1.04,.46-.1,.6,.37,.82,.67,.13,.18,.25,.38,.42,.65-1.03,.7-2.35,1.14-2.49,2.64-.16,.14-.32,.3-.46,.46-.15,.12-.31,.12-.46,0Z"/>
    <path class="cls-1" d="M13.41,52.61c.04,.31,.51,.61,0,.92h-.46c0-.38,.09-.72,.46-.92Z"/>
    <path class="cls-8" d="M12.95,41.08c-.69,1.1-1.59,1.49-2.87,.97-.82-.33-1.63-.58-2.6-.18-.93,.39-2.03-.04-2.04-1.1-.03-1.53-1.02-.93-1.7-1.07,.61-1.53,1.71-1.84,3.22-1.4,1.08,.31,1.11,.23,.82,1.76,1.07,.16,1.61-.61,2.31-1.16,1.1-.85,1.43-.66,1.76,.71,.15,.62,.13,1.44,1.11,1.46Z"/>
    <path class="cls-16" d="M18.23,43.54c-.12,.23-.38,.29-.67,.18-.22-.09-.33-.33-.19-.5,.11-.13,.37-.2,.56-.19,.2,.01,.42,.13,.3,.51Z"/>
    <path class="cls-21" d="M4.65,43.39c.93,.07,.57,.65,.45,1.13-.79,3.14-.63,6.27,.08,9.39,.05,.2,.25,.36,.38,.54,0,.15,.01,.31,.02,.46,.16,.15,.29,.33,.45,.48,0,.15,.01,.3,.03,.45,.14,.16,.28,.31,.44,.45,0,.15,0,.31,0,.46,.16,.15,.29,.32,.44,.47h.02c.11,.13,.18,.29,.21,.47,.03,.18,.11,.33,.24,.45h0q-.48,.71-2.3,0c-.47-.77-.94-1.53-1.41-2.3-.8-.94-1.19-1.99-.9-3.23,0-.31,0-.61-.01-.92-.05-1.91-.01-3.81,.57-5.65,.3-.95,.66-1.86,1.28-2.65Z"/>
    <path class="cls-31" d="M5.12,58.14c.47-.16,.93-.61,1.4,.04,.27,.37,.61,.38,.9-.03,.15,0,.3,.01,.44,.01,.36,.25,.76,.47,.94,.91,.68,.63,1.62,1.11,1.38,2.3-.61,0-1.22,0-1.83,0-1.18-.97-2.41-1.89-3.23-3.23Z"/>
    <path class="cls-1" d="M14.33,54.91c-.02,.51,.08,1.05-.46,1.38-.14-.07-.29-.12-.41-.2-.4-.28-1.15-.45-.65-1.15,.42-.58,1-.68,1.52-.03Z"/>
    <path class="cls-9" d="M8.8,59.06c-.45-.16-.75-.48-.94-.91,.41,.08,.87-.41,1.19-.05,.25,.28-.17,.63-.26,.96Z"/>
    <path class="cls-1" d="M12.49,57.68c0,.38-.09,.72-.46,.92-.7-.74-.12-.83,.46-.92Z"/>
    <path class="cls-30" d="M11.55,65.41c-.05-.04-.11-.09-.16-.13,.06-.03,.13-.1,.18-.09,.06,0,.11,.08,.16,.12-.06,.03-.12,.07-.19,.1Z"/>
    <path class="cls-31" d="M7.42,58.14c-.15-.16-.3-.32-.46-.48,.16-.13,.31-.12,.45,.02,0,.15,0,.3,0,.46Z"/>
    <path class="cls-9" d="M7.42,57.68c-.15,0-.3,0-.45-.02,0-.15,0-.3,0-.45,.15,.16,.3,.31,.45,.47Z"/>
    <path class="cls-31" d="M6.94,57.22c-.15-.16-.3-.31-.44-.47,.15,.16,.3,.31,.44,.47Z"/>
    <path class="cls-9" d="M6.5,56.29c-.15-.15-.29-.3-.44-.45,.15,.15,.29,.3,.44,.45Z"/>
    <path class="cls-9" d="M6.03,55.39c-.15-.16-.3-.32-.45-.48,.15,.16,.3,.32,.45,.48Z"/>
    <path class="cls-13" d="M2.81,52.61c.71,.96,.43,2.2,.9,3.23-1.27-.27-1.36-1.86-2.57-2.27-.25-.08-.09-.73,.34-.85,.42-.11,.88-.08,1.33-.11Z"/>
    <path class="cls-16" d="M11.11,48.92h.46c-.15,.31-.31,.31-.46,0Z"/>
    <path class="cls-16" d="M11.57,48.92l.46-.46-.46,.46Z"/>
  </g>
</svg>