<svg xmlns="http://www.w3.org/2000/svg" id="Layer_1" data-name="Layer 1" viewBox="0 0 52.89 57.82"><defs><style>.cls-1{fill:#bcd9ec}.cls-2{fill:#c8e6f1}.cls-3{fill:#bbd8ec}.cls-4{fill:#bae1ee}.cls-5{fill:#b6d2e9}.cls-6{fill:#b4d2e9}.cls-7{fill:#9cc7e4}.cls-8{fill:#bbe0ee}.cls-9{fill:#a9d3e9}.cls-10{fill:#c6e6f1}.cls-11{fill:#cbe6f2}.cls-12{fill:#c4e2f0}.cls-13{fill:#b8d6eb}.cls-14{fill:#b1dced}.cls-15{fill:#cbe7f2}.cls-16{fill:#b7dfee}.cls-17{fill:#c2dced}.cls-18{fill:#abd0e8}.cls-19{fill:#c5e5f1}.cls-20{fill:#bbd4ea}.cls-21{fill:#b5d3e9}.cls-22{fill:#bdd9ec}.cls-23{fill:#c2e4f0}.cls-24{fill:#bad5eb}.cls-25{fill:#cfeaf3}.cls-26{fill:#c1dfef}.cls-27{fill:#bedaec}.cls-28{fill:#bfdeee}.cls-29{fill:#bee2ef}.cls-30{fill:#b3d3e9}.cls-31{fill:#a7cee7}.cls-32{fill:#b9d9ec}.cls-33{fill:#bfd9ec}.cls-34{fill:#c9e7f1}.cls-35{fill:#beddee}.cls-36{fill:#cae7f2}.cls-37{fill:#bad9ec}</style></defs><path d="M24.81,19.07c0-.16,0-.33,.03-.48,.3-1.6-.37-2.65-1.77-3.4-.89-.48-1.71-1.1-2.56-1.67-.27-.18-.54-.36-.78-.57-.64-.55-.9-1.47-.59-2,.31-.52,1.28-.77,2.05-.45,.39,.16,.72,.46,1.1,.66,.79,.42,1.42,1.11,2.34,1.4,.35-.91,.23-1.51-.5-2.16-1.83-1.64-3.55-3.41-5.3-5.13-.87-.86-.94-1.48-.31-2.22,.54-.64,1.37-.62,2.27,.14,.86,.72,1.67,1.5,2.49,2.25,.43,.39,.84,.79,1.56,1.47,0-1.55,0-2.75,0-3.95,0-.64,.04-1.27,.23-1.9C25.3,.29,25.71,.01,26.47,0c.77-.01,1.18,.37,1.45,1.03,.17,.42,.14,.84,.14,1.27,0,1.39,0,2.78,0,4.18,.61,.12,.81-.35,1.1-.61,.95-.86,1.87-1.75,2.82-2.61,.24-.21,.5-.43,.8-.54,.58-.21,1.18-.25,1.61,.32,.41,.55,.67,1.18,.14,1.76-.53,.59-1.03,1.2-1.64,1.74-1.54,1.33-2.95,2.81-4.42,4.23-.49,.48-.43,1.05-.3,1.74,1.09-.23,1.79-1,2.63-1.5,.56-.33,1.08-.68,1.77-.66,1.1,.02,1.55,.62,1.26,1.69-.17,.63-.66,.96-1.15,1.29-1.42,.96-2.85,1.9-4.28,2.85-1.37,.41-2.64,.94-3,2.55-.06,.26-.25,.48-.59,.34Z" class="cls-19"/><path d="M24.51,51.05c-.21,.37-.62,.46-.94,.68-.4,.14-.83,.1-1.23,.2-.42,.1-.88,.11-1.12-.31-.29-.49-.12-.93,.39-1.17,.52-.24-.28-.46,.01-.68h0c.11-.11,.21-.21,.32-.32,.94-.64,1.64-1.53,2.44-2.31,.53-.51,.49-.55,.37-1.96-.87,.19-1.44,.86-2.18,1.25-.47,.25-.9,.58-1.38,.81-.91,.42-1.55,.27-1.97-.4-.43-.68-.22-1.49,.56-2.1,.29-.23,.6-.45,.91-.65,1.38-.91,2.76-1.81,4.14-2.72,.25-1.05,.3-2.22,1.65-2.59,.27-.07,.37-.38,.3-.67-.1-.42-.31-.9,.3-1.06,.51-.13,.95,.14,1.27,.54,.4,.49,.25,.89-.26,1.19-.44,2.03,.64,3.19,2.28,4.08,.85,.46,1.64,1.02,2.44,1.56,.27,.18,.52,.39,.72,.64,.49,.59,.51,1.39,.08,1.92-.46,.57-1.08,.69-1.88,.24-1.03-.58-2.01-1.23-3.02-1.85-.13-.08-.28-.14-.48-.23-.34,.94-.08,1.59,.56,2.3,1.07,1.21,2.53,1.99,3.5,3.31,.11,.1,.2,.23,.32,.33h0c-1.1,1.28-1.9,1.45-3.26,.66-.33-.2-.73-.31-.93-.68-.85-.16-.45,.49-.48,.79-.09,1.19-.79,1.85-1.9,1.66-1.12-.2-1.14-1.04-.84-1.83,.37-.97-.25-.63-.66-.61Z" class="cls-5"/><path d="M19.97,36.23c-.18-.11-.35-.25-.55-.32-.49-.17-.8-.93-1.52-.39-.68,.52-1.67,.75-1.48,1.96,.07,.44,.13,.96-.28,1.34-1.31-1.51-1.06-3.41-1.32-5.19,.54-.06,.97-.37,1.42-.64,.54-.33,.79-.66,.6-1.39-.18-.69-.06-1.46-.06-2.19,.15-.15,.29-.32,.46-.44,1.36-.95,2.01-.7,2.51,.95,1.64,.07,2.48-.53,2.31-1.65-.09-.12-.16-.25-.22-.39-.01-.07-.02-.15-.03-.22,.26-1.06,.19-2.38,1.83-2.37,.27-.08,.75,.45,.76,.01,.01-.84,.42-1.83-.49-2.51-.31,.08-.73-.53-.94,.16-.08,.12-.18,.21-.3,.28-.49,.15-1.12,.57-1.37-.12-.2-.54,.1-1.28,.71-1.45,.85-.25,1.31-.73,1.65-1.5,.17-.38,.69-.43,1.06-.62,.79-.41,1.77-.58,2.04-1.76,.18-.79,.73-.53,1.1,0,.18,.4-.15,.91,.26,1.27,1.18,.15,2.27,.53,3.18,1.32,.45,1.75-.93,1.91-2.02,2.32-1.4,.85-.71,2.09-.58,3.22,.43,1.78,.34,2-1.27,2.6-.5,.19-.8,.46-.95,.96-.3,1-.91,1.79-1.74,2.42-.92,.85-2.24,1.16-3.06,2.16-.53,.44-2,.26-1.05,1.69,.15,.23-.35,.43-.66,.49Z" class="cls-14"/><path d="M40.97,25.24c-.74-.28-1.54-.46-2.22-.85-1.03-.59-1.7,.03-2.44,.52-.37,.25-.24,.62-.23,1,.05,1.81,.06,3.62,.04,5.43,0,.52-.16,1.04-.24,1.56-1.04,2.44-3.02,2.01-4.98,1.62,0-.98-.97-1.39-1.31-2.17-.05-.94,.35-1.89-.38-2.82-.35-.45-.28-1.29,.76-1.18,.35,.48,.79,.86,1.33,1.1,.42,.18,.86,.75,1.28,.4,.52-.45,.27-1.2,.21-1.81-.05-.48-.41-.36-.72-.21-.43,.2-.84,.47-1.35,.39-.7-1.1-.67-2.26-.24-3.44,.17-.4,.3-.81,.42-1.22,.57-.83,1.16-1.64,2.01-2.21,.18,.12,.38,.21,.53,.36,.49,.5,1.02,.86,1.7,.42,.65-.42,1.29-.76,1.38-1.78,.15-1.6,.3-3.19,.28-4.79,0-.44,.08-.84,.28-1.24,.27-.56,.71-.76,1.3-.73,.68,.04,1.24,.43,1.26,1.03,.04,1.59,.34,3.2-.24,4.76,1.37,.84,1.74,2.08,1.21,3.53-.23,.63,.04,.69,.46,.87,.47,.2,.84,.51,.49,1.1-.14,.2-.33,.32-.58,.35Z" class="cls-10"/><path d="M1.91,20.7c1.44-.48,2.97-.72,4.48-1.45-1.06-1.13-2.43-1.45-3.47-2.26-.34-.26-.74-.44-1.05-.72-.66-.6-.8-1.45-.4-2.01,.41-.56,1.25-.76,2.01-.37,1.33,.69,2.63,1.44,3.94,2.16,.13,.07,.28,.13,.48,.23,.31-.72,.07-1.35-.11-2.01-.28-1.08-.55-2.17-.69-3.28-.14-1.08,.31-1.75,1.05-1.9,.79-.16,1.56,.42,1.81,1.43,.55,2.22,1,4.47,1.54,6.7,.24,.99,.66,1.62,1.4,2.17-1.14,1.24-2.88,1.36-4.19,2.27-1.19,.3-2.27,.99-3.55,.97-1.23,.12-2.17-.74-3.31-.98-.45-.09-.43-.65,.07-.95Z" class="cls-34"/><path d="M38.38,33.59c1.77-.96,3.49-2.03,5.41-2.67,1.03-.35,1.86,.18,2,1.17,.11,.75-.3,1.21-.92,1.52-.85,.44-1.72,.85-2.57,1.3-.31,.16-.73,.22-.85,.72,.83,.95,1.81,.48,2.76,.28,.43,.49,.35,.97-.03,1.44-.48,.59-.95,.03-1.43-.06-.02,1.29-.5,2.4-1.14,3.46-.49-.42-.23-1.14-.63-1.61-.26-.31-.57-.59-.93-.55-.52,.06-.37,.57-.37,.91-.01,.97,.02,1.93,.01,2.9-.01,1.08-.45,1.71-1.22,1.77-.82,.07-1.62-.76-1.67-1.79-.04-.75-.08-1.51-.02-2.25,.08-1.14-.42-2.21-.36-3.34,.02-.37-.26-.55-.55-.73-.46-.28-.91-.57-1.36-.85-.72-.55-.37-.81,.28-.79,.97,.02,1.89-.16,2.83-.33,.36-.06,.58-.21,.75-.5Z" class="cls-20"/><path d="M41.31,24.89c.13-.32,.17-.56-.23-.77-.49-.26-1.07-.07-1.6-.41,.21-.51,.87-.57,.97-1.18,.09-.57-.46-1.04-.07-1.66,.11-.17-.5-.7-.99-.87-.34-.12-.26-.4,0-.6,0,0,0,0,0,0,.21,.23,.42,.21,.64,0h0c.18-.18,.48-.12,.65-.34,.83-1.23,.92-2.69,1.29-4.06,.37-1.39,.6-2.82,1-4.2,.4-1.39,1.12-1.94,1.95-1.68,.78,.25,1.14,1.21,.88,2.48-.21,1.04-.42,2.09-.72,3.11-.17,.58-.2,1.15-.19,1.74,.1,.12,.21,.13,.31,0,1.31-1.04,2.76-1.85,4.26-2.58,.76-.37,1.61-.18,2.01,.39,.4,.56,.27,1.46-.42,2.01-1.1,.86-2.32,1.55-3.59,2.13-.18-.12-.44-.06-.59-.21-.68-.7-1.51-.96-2.26-.32-.6,.51-1.56,.95-1.05,2.16,.28,.67-.49,.94-.94,1.28-.38,.24-.89,.3-1.15,.84,.51,.75,1.56,.74,2.12,1.42-.51,1.51-.88,1.73-2.27,1.3Z" class="cls-23"/><path d="M8.7,21.67c-.34-.45,.1-.59,.34-.65,1.14-.29,2.12-.86,3.08-1.51,.19-.13,.51-.08,.77-.11,.37-.05,.62-.18,.49-.62-.33-1.16-.14-2.35-.16-3.52-.02-1.08,.46-1.61,1.32-1.67,.85-.06,1.39,.45,1.54,1.5,.06,.37,.07,.76,.03,1.13-.18,1.52,.3,2.97,.37,4.47,.06,1.26,1.86,2.02,2.76,1.19,.89-.83,1.97-1.29,3.01-1.83,.43,.76-.1,1.24-.56,1.65-.87,.77-1.28,1.72-1.73,2.79-.66,1.55-1.59,3.08-3.19,3.96,0-.7,.02-1.4,0-2.1-.02-.5,.43-1.09-.21-1.47-.62-.37-1.18-.97-2.04-.67-.1,.04-.21,.03-.32,.05-.18,.18-.49,.1-.66,.3-.1,.01-.21,.02-.31,.03-.65-.68-1.34-1.34-1.63-2.28-.43-.75-1.13-.95-1.93-.97-.18,.19-.48,.11-.65,.31-.11,0-.21,.01-.32,.01Z" class="cls-10"/><path d="M16.77,28.45c1.03-1,1.41-2.52,2.67-3.35,.29-.19,.23-.58,.23-.89,0-1.05,.52-1.8,1.34-2.39,.62-.44,1.1-.99,1.24-1.77,.72-.67,1.62-.86,2.55-.98,.1-.12,.3-.24,.3-.35-.08-1.93,1.55-2.18,2.77-2.82,.19-.1,.39,.1,.53,.28,0,0,0,0,0,0-.13,.08-.21,.22-.33,.31h0c-.35,.38,.03,.93-.32,1.3-.23,.07-.96-.84-.63,.29,.19,.63,.05,.88-.57,1-.89,.17-1.48,.95-2.42,1.14-.72,.14-.51,.92-.34,1.5-.5,.38-1-.18-1.54,.09-.61,.31-.41,.92-.77,1.35,.51-.07,.97-.14,1.43-.21,.2,.61-.55,.7-.63,1.16,.29,.61,1.33,.53,1.29,1.43-.75,.18-1.39,.44-1.1,1.43,.14,.46-.42,.53-.54,.85-.17,.15-.4,.23-.6,.14-1.01-.46-1.35-.1-1.27,.93,.03,.42,0,.87-.4,1.17-.25-.04-.63,0-.74-.15-.28-.36,.28-.29,.35-.48,.11-.3-.03-.55-.32-.61-.41-.09-.86-.14-1.17,.24-.27,.33-.62,.35-1,.36,0-.32,0-.65,0-.97Z" class="cls-16"/><path d="M28.06,38.77q.24-1.07-1.09-1.42c-.19,.31,0,.51,.23,.65,.37,.23,.41,.47,.07,.74-.21,.16-.43,.32-.67,.43-.83,.38-1.66,.74-1.41,1.92,.01,.06-.24,.17-.38,.26,.01-.32,.03-.64,.03-.96,0-1.45,.18-1.5-1.4-2.04-.68-.24-1.43-.47-1.86-1.16,.35-.86,.49-1.83,1.29-2.45,.64-.23,1.23,.25,1.87,.13,.47-.24,.87-.62,1.4-.74,.58-.13,1.08-.14,1.18,.62,.08,.1-.23,.31,.1,.34,.27,0,.52,0,.78-.06,.62-.17,1.21-.45,1.86-.5,.72,.01,1.38,.18,1.77,.83,.29,.48,.05,.66-.41,.61,.41,.44,1.18-.99,1.5,.22h0c-.13,.08-.23,.2-.34,.31h0c-.1,.1-.21,.2-.32,.29-1.34,.78-2.61,1.71-4.2,1.96Z" class="cls-13"/><path d="M14.83,33.64c.68,.51,.04,1.7,1.05,2.05,.04,.01,.08,.11,.07,.12-1.17,1.09,.51,1.99,.2,3.02-.02,1.18-.05,2.35-.04,3.53,0,.72-.28,1.23-.9,1.57-.84,.46-1.92,.06-1.95-.87-.04-1.53-.29-3.1,.27-4.6,.69-.91,.09-1.89,.16-2.83,.05-.57-.34-.55-.72-.56-.48-.02-.93,.1-1.39,.2-.36-.02-.64-.21-.94-.39-.21-1.38,.47-1.95,2.29-1.94,.73-.02,1.3,.37,1.9,.7Z" class="cls-31"/><path d="M42.6,21.33c.16-.28,.27-.61,.49-.82,.27-.26,.2-.34-.03-.59-.46-.5-.61-1.01,.29-1.25,.21-.06,.31-.25,.39-.46,.31-.78,.94-1.01,1.74-1.1,.84-.09,1.26,.32,1.62,.95,.08,.13,.22,.23,.33,.35-.3,.2-.64,.37-.76,.82,1.05,.91,2.6,.61,3.68,1.45-.76,.7-.69,1.72-.98,2.59-2.26-.65-4.52-1.29-6.78-1.94Z" class="cls-8"/><path d="M11.59,40.07c-.43,1.83-.86,3.67-1.29,5.5-1.01,.64-2.32-.03-2.59-1.32-.07-.64,.23-1.22,.32-1.83,.06-.46,.14-.98-.58-1.02-.55,.3-.95,.02-.82-.48,.26-1.03,.24-2.12,.59-3.1,.27-.76,.79-1.5,1.81-.75,.05,.56-.26,1.15,.79,1.36,.68,.13,1.29,.98,1.78,1.65Z" class="cls-18"/><path d="M41.61,40.75c.25-.85-.12-1.91,.87-2.52,.15-.09,.14-.46-.09-.53-.43-.13-.55-.42-.26-.66,.34-.28,.85-.39,1.29-.18,.64,.3,.64,.34,.76-.16,.06-.25,.03-.53,.04-.79,.64-.13,1.27-.25,1.91-.38,1.21,.62,.95,1.62,.68,2.62h0c-.12,.09-.26,.15-.41,.17-.26-.03-.13,.22-.22,.31-.95,.79-.96,2.04-1.46,3.05-.27,.54-.49,1.06-1.01,1.38-.92,.56-1.57,.5-1.75-.73-.05-.54-.42-1.02-.34-1.59Z" class="cls-30"/><path d="M11.59,40.07c-.6-.36-1.5-.28-1.68-1.25-.06-.34-.39-.26-.65-.17-.36,.12-.82,.27-1.02-.08-.23-.41,.12-.78,.45-1.07,.12-.1,.22-.22,.33-.34,.03-1.18,1.1-.59,1.61-.94,.38-.26,.95-.32,.95-.96,.11-1.15,1-.37,1.49-.59,.46-.21,.82,.06,1.1,.42,.06,.08,.14,.25,.11,.28-.88,.82-.04,1.27,.47,1.76-.45,.49-.84,.91-1.22,1.33-.09-.1-.18-.2-.27-.31-.21,.16-.52,.09-.68,.33-.5,.42-.94,.88-.99,1.58Z" class="cls-7"/><path d="M24.51,51.05c.49-.68,1.08-.45,1.68-.23,.03,.5-.34,.67-.63,.84-.54,.32-.29,.81-.17,1.12,.15,.39,.57,.5,1.06,.35,1.42-.43,1.58-.75,.97-2.29,.38-.21,.7-.14,.97,.19-.46,.36-.32,.87-.33,1.34-.02,1.18-.03,2.36,0,3.53,.02,.66-.25,1.13-.73,1.53-.68,.57-1.39,.5-1.95-.2-.41-.52-.56-1.13-.55-1.8,.02-1.07,.01-2.14,0-3.21,0-.42,.1-.87-.33-1.17Z" class="cls-33"/><path d="M11.6,22.31c.13,.16,.23,.44,.38,.46,1.07,.17,1.08,1.04,1.25,1.81-1.14,.99-2.48,1.64-3.9,2.09-1.1,.35-1.87,.07-2.16-.72-.25-.7,.12-1.46,1.01-1.93,1.13-.59,2.28-1.15,3.43-1.72Z" class="cls-11"/><path d="M46.15,38.14c.22,0,.44,0,.66,.01-.21,.36-.23,.65,.2,.9,.58,.33,1.26,.5,1.73,1.02-.23,1.05-1.34,1.67-2.91,1.62-.55-.27-1.01-.38-.97,.5,.01,.26,.02,.52,.02,.78,.18,1.23,.42,2.47-1.23,2.98-.51,.16-.79,.05-1.03-.37,0-1.12-.81-2.08-.66-3.23,.59,.82,1,.91,1.72,.34,.37-.3,.78-.61,.83-1.15,.06-.74,.62-1.34,.52-2.12-.1-.84,1.13-.52,1.12-1.28h0Z" class="cls-28"/><path d="M21.61,49.77c.27,.56,.78-.12,1.13,.24-.06,.56-.64,.39-.93,.62-.25,.2-.58,.35-.42,.73,.19,.45,.69,.45,.92,.2,.56-.59,.88-.18,1.26,.16-.79,1.08-1.81,1.95-2.78,2.85-.94,.88-1.59,.82-2.31-.02-.56-.66-.61-1.2,.02-1.82,1.01-1.01,1.93-2.13,3.11-2.97Z" class="cls-17"/><path d="M10.63,36.23c-.47,.43-1.28,.27-1.61,.94-.36,.06-.76-.38-1.05,0-.28,.36-.72,.93-.6,1.21,.38,.9-.11,1.55-.41,2.27-.22,.53,.05,.67,.49,.74-.22,.39-.55,.61-1,.63-.61,.2-.61-.33-.57-.61,.11-.78-.16-1.53-.08-2.29,.09-.02,.18-.04,.28-.05,.25-.13,.61-.2,.34-.62-.53-.23-1.01-.59-1.6-.67-.72-.55-1-1.42-.67-2.12,.33-.69,1.22-.71,1.99-.46,1.47,.45,2.95,.89,4.49,1.01Z" class="cls-6"/><path d="M12.93,32.94c-.64,.08-.99,.73-1.71,.78-.56,.04-.61,.65-.58,1.16-.82-.4-1.65-.77-2.45-1.2-1.07-.58-1.32-1.2-.91-2.06,.38-.79,.98-1.02,2.02-.63,1.3,.48,2.62,.94,3.63,1.95Z" class="cls-24"/><path d="M45.83,41.69c.84,.01,1.36-.92,2.3-.76,.28,.05,.43-.54,.61-.86,.71,.37,1.44,.69,2.12,1.11,.78,.48,1.01,1.37,.62,2.06-.36,.64-1.13,.94-1.95,.59-1.31-.56-2.52-1.33-3.7-2.14Z" class="cls-36"/><path d="M29.32,51.72c.46-.37,1.01,.79,1.54-.15,.3-.53,1.26,.1,1.72-.51,.78,.41,1.27,1.14,1.87,1.74,.54,.54,.48,1.14,0,1.72-.6,.72-1.07,.9-1.79,.42-1.3-.87-2.33-2.04-3.33-3.22Z" class="cls-22"/><path d="M32.93,36.21c-.64-.65-1.42,.49-2.06-.23,.03-.53,.62,.12,.75-.29-.31-.75-.96-.83-1.66-.81-.07-.21,.04-.35,.18-.48,.15-.12,.31-.21,.49-.27,.13-.03,.24,0,.34,.1,.08,.14,.26,.31,.36,.21,.45-.44,.87-.36,1.41-.14,1.02,.42,1.61,.19,2.11-.83,.25-.51,.64-.47,1.03-.57,.33-.17,.59-.05,.88,.16,.48,.34,1,.63,1.63,.53,.2,.43,.31,.95-.35,.89-1.14-.11-2.19,.81-3.38,.17-.29-.16-.18,.34-.13,.57-.59,.24-.86,.98-1.59,1Z" class="cls-27"/><path d="M42.61,45.57c.28,.09,.56,.4,.86,.08,.25-.26,.39-.68,.84-.63,.56,.06,.47-.21,.33-.55-.23-.55-.03-1.03,.24-1.5,.77,1.34,.87,2.83,.95,4.32,.05,.8-.44,1.22-1.11,1.37-.64,.14-1.14-.23-1.45-.78-.4-.71-.48-1.52-.66-2.3Z" class="cls-15"/><path d="M41.31,24.89c1.15,.25,1.63-.66,2.27-1.3,.55,.05,1.02,.32,1.46,.6,.66,.42,.93,1.17,.7,1.78-.24,.64-.93,1.05-1.7,.83-1.11-.32-2.28-.58-3.06-1.56,.11-.11,.22-.23,.34-.35Z" class="cls-35"/><path d="M49.04,34.57c.69-.42,1.46-.56,2.25-.64,.75-.08,1.18,.29,1.48,.95,.31,.69-.08,1.1-.52,1.52-.12,.11-.24,.25-.38,.29-1.37,.36-2.64,1.1-4.11,1.12,.07-1.23,1.02-1.45,1.95-1.81-.13-.45-.54-.88-.67-1.43Z" class="cls-26"/><path d="M49.38,23.27c-.5-.6-.07-1.3-.14-1.95-.05-.42,.78-.34,1.13-.64,.88-.02,1.7,.13,2.22,.94,.3,.46,.49,.96,.05,1.46-.39,.43-.76,.98-1.44,.74-.6-.21-1.27-.17-1.81-.55Z" class="cls-21"/><path d="M7.7,44.25c.04,.21,.08,.54,.26,.52,.62-.06,.94,.23,1.23,.73,.29,.51,.72,.26,1.1,.06-.15,.62-.25,1.25-.45,1.86-.27,.82-1.03,1.36-1.65,1.26-.73-.12-1.1-.68-1.13-1.69-.03-.97,.2-1.88,.63-2.75Z" class="cls-37"/><path d="M1.91,20.7c-.25,.49-.12,1.01,.42,.89,1.07-.23,1.68,.36,2.36,.94,.11,.09,.31,.07,.46,.1-.99,.66-2.17,.77-3.26,1.15-.88,.3-1.3-.29-1.69-.84-.47-.66,0-1.23,.42-1.69,.32-.34,.78-.54,1.29-.55Z" class="cls-25"/><path d="M49.04,34.57c1.1,.19,.54,1.56,1.55,1.94-1.55-.57-2.1,.55-2.83,1.3-.31,.14-.59,.35-.96,.34-.42-.82-.08-1.84-.68-2.62,.86-.65,1.95-.61,2.91-.96Z" class="cls-32"/><path d="M5.8,39.13c.44,.51,.66,1.07,.48,1.75-.1,.4-.35,.83,.16,1.15-.43,.5-1.08,.64-1.61,.97-1.04,.4-1.24-.49-1.62-1.07-.49-.77,.11-1.15,.62-1.54h0c.13-.08,.22-.2,.34-.31,.44-.49,1.06-.67,1.63-.95Z" class="cls-3"/><path d="M3.84,40.38c-.08,.41-.78,.74-.45,1.09,.47,.51,.42,1.55,1.44,1.51-.36,.43-.87,.61-1.36,.81-.91,.37-1.71,.1-2.07-.61-.37-.73-.12-1.55,.7-2.04,.54-.32,1.08-.7,1.74-.76Z" class="cls-12"/><path d="M22.92,34.86c-.46,.77-.42,1.83-1.33,2.34-.1-.01-.21-.03-.31-.05-.11-.1-.22-.2-.34-.3h0c-.15-.22-.47-.14-.64-.33-.11-.1-.23-.2-.34-.29,.11-.28,.79-.45,.02-.89-.77-.43-.69-.76,.14-1.07,.48-.18,.97-.4,1.51-.35,.73-.1,1.23,.12,1.28,.94Z" class="cls-9"/><path d="M2.88,37.17c-.92-.06-1.78-.28-2.44-.98-.36-.38-.55-.77-.29-1.29,.24-.5,.51-.95,1.15-.95,.91,0,1.77,.18,2.58,.63-.69,.73-1.27,1.5-.99,2.6Z" class="cls-2"/><path d="M2.88,37.17c-.93-1.12-.63-1.89,.99-2.6,.71,.37,1.59,.15,2.26,.65-.65-.01-1.23,.23-1.93,.57,.51,.59,.47,1.32,.61,2.01-.75,.1-1.31-.34-1.94-.63Z" class="cls-1"/><path d="M32.9,21.35c-.4,.96-1.06,1.69-1.93,2.25-.07,0-.14,.01-.21,.02-.14,0-.29-.02-.43-.05-.57-.27-1.26-.42-1.33-1.24,1.12-.23,2.18-.53,2.29-1.95,.55,.3,1.19,.46,1.61,.97Z" class="cls-4"/><path d="M27.74,17.79c.05-.45-.15-.95,.32-1.29,.02,.86,.03,1.71,.05,2.57-.54-.3-.3-.83-.37-1.27Z" class="cls-19"/><path d="M6.42,38.46c.25,.13,.4,.37,.28,.61-.16,.34-.41,.05-.63,.01,.11-.21,.23-.41,.34-.62Z" class="cls-3"/><path d="M40.66,19.06c-.13,.28-.37,.33-.65,.34,.14-.25,.38-.32,.65-.34Z" class="cls-10"/><path d="M40.01,19.4c-.22,.33-.43,.34-.64,0,.21,0,.43,0,.64,0Z" class="cls-10"/><path d="M9.02,21.65c.14-.26,.39-.31,.65-.31-.15,.25-.38,.32-.65,.31Z" class="cls-34"/><path d="M13.54,24.56c.15-.26,.39-.31,.66-.3-.15,.25-.39,.31-.66,.3Z" class="cls-11"/><path d="M20.31,36.53c.27,0,.52,.06,.64,.34-.27-.01-.5-.09-.64-.34Z" class="cls-13"/><path d="M12.57,38.49c.13-.3,.39-.35,.68-.33-.17,.23-.42,.3-.68,.33Z" class="cls-31"/><path d="M32.58,51.06c-.11-.11-.21-.22-.32-.33,.11,.11,.21,.22,.32,.33Z" class="cls-22"/><path d="M21.93,49.45c-.11,.11-.21,.21-.32,.32,.11-.11,.21-.21,.32-.32Z" class="cls-17"/><path d="M28.06,16.49c.11-.1,.22-.21,.33-.31-.11,.1-.22,.21-.33,.31Z" class="cls-19"/><path d="M45.18,16.47c-.11,.25-.21,.24-.31,0,.1,0,.21,0,.31,0Z" class="cls-8"/><path d="M32.59,36.52c.11-.11,.22-.21,.34-.32-.11,.11-.22,.21-.34,.32Z" class="cls-27"/><path d="M32.27,36.81c.11-.1,.21-.19,.32-.29-.11,.1-.21,.19-.32,.29Z" class="cls-27"/><path d="M20.94,36.86c.11,.1,.23,.2,.34,.3-.17-.03-.28-.13-.34-.3Z" class="cls-13"/><path d="M4.17,40.07c-.11,.1-.22,.21-.34,.31,.11-.1,.22-.21,.34-.31Z" class="cls-12"/><path d="M30.94,50.89c-.73,.15-1.54,.62-1.96-.49-.12-.31-.68,.15-.77-.46,.46-.31,1.02-.81,1.35,.05,.29,.75,.82,.72,1.38,.9Z" class="cls-22"/><path d="M28.07,35.55c-.37,.02-.66-.19-.97-.32h0c-.03-.48,.08-.98-.77-.78-.71,.16-1.06,.67-1.52,1.09-.67-1.25-.46-2.56-.29-3.87,.79-.77,1.6-1.52,1.66-2.75,.03-.58,.51-.72,1.03-.79,1.46-.21,1.54-.37,1.16-1.96,.4-1.06,1.1-1.59,2.27-1.28-.15,1.08,.01,2.15,.02,3.23-.11,.3-.29,.49-.64,.34-.9,.21-.72,.74-.4,1.32,.16,.29,.74,.42,.71,.43-1,.49,.47,1.71-.64,2.12-.06,0-.11,0-.17,0-.11-.01-.21-.04-.31-.07-.1-.03-.2-.06-.29-.08-.18,.01-.28,.12-.34,.28-.25,1.02,.19,2.15-.5,3.09Z" class="cls-29"/><path d="M23.9,22.32c-.25,.34-.65,.45-1,.62-.3-1.24,.67-.41,1-.62Z" class="cls-16"/><path d="M22.25,28.11c-.11-.1-.22-.2-.33-.3,.11,.1,.22,.2,.33,.3Z" class="cls-16"/><path d="M27.1,35.23s-.06,.13-.07,.13c-.11-.02-.08-.07,.07-.13h0Z" class="cls-29"/><path d="M46.15,38.14c-.14-.04-.28-.08-.42-.12,.24-.3,.3,0,.42,.12h0Z" class="cls-28"/><path d="M13.29,35.43s-.09,.03-.14,.04c-.01-.04-.04-.11-.03-.12,.12-.09,.18-.06,.17,.08Z" class="cls-31"/><path d="M30.31,34.58c.11-.1,.22-.2,.33-.3-.11,.1-.22,.2-.33,.3Z" class="cls-10"/><path d="M30.97,23.6c-.12-.1-.23-.21-.35-.31,.12,.1,.23,.21,.35,.31Z" class="cls-10"/><path d="M29.68,32.32c-.27,0-.5-.07-.64-.33,.27,0,.5,.07,.64,.33Z" class="cls-10"/><path d="M29.04,31.99c-.12-.1-.24-.2-.36-.3,.12,.1,.24,.2,.36,.3Z" class="cls-10"/></svg>