<svg xmlns="http://www.w3.org/2000/svg" id="Layer_1" data-name="Layer 1" viewBox="0 0 133.15 81.06"><defs><style>.cls-1{fill:#77cae8}.cls-2{fill:#5dc0e4}.cls-3{fill:#64c3e5}.cls-4{fill:#8cd2eb}.cls-5{fill:#59bfe3}.cls-6{fill:#6cc6e6}.cls-7{fill:#74c9e7}.cls-8{fill:#72c8e7}.cls-9{fill:#67c4e5}.cls-10{fill:#6dc6e6}.cls-11{fill:#65c4e5}.cls-12{fill:#6ec7e7}.cls-13{fill:#7acce9}.cls-14{fill:#7dcde9}.cls-15{fill:#5dc1e3}.cls-16{fill:#71c8e7}.cls-17{fill:#69c5e5}.cls-18{fill:#80cee9}.cls-19{fill:#7ecde9}.cls-20{fill:#78cbe8}.cls-21{fill:#c3e7f5}.cls-22{fill:#62c2e4}.cls-23{fill:#61c2e4}.cls-24{fill:#8ed3ec}.cls-25{fill:#85d0ea}.cls-26{fill:#5fc1e4}.cls-27{fill:#65c3e5}.cls-28{fill:#84cfea}.cls-29{fill:#70c8e7}.cls-30{fill:#5bc0e3}.cls-31{fill:#58bfe3}.cls-32{fill:#69c5e6}.cls-33{fill:#63c3e5}.cls-34{fill:#82cfea}.cls-35{fill:#7fcee9}.cls-36{fill:#81ceea}.cls-37{fill:#70c7e7}.cls-38{fill:#76cae8}.cls-39{fill:#63c3e4}.cls-40{fill:#82cee9}.cls-41{fill:#6fc7e7}.cls-42{fill:#83cfea}.cls-43{fill:#6bc6e6}.cls-44{fill:#caeaf6}.cls-45{fill:#8dd3ec}.cls-46{fill:#68c5e5}.cls-47{fill:#66c4e5}.cls-48{fill:#75cae8}.cls-49{fill:#68c4e5}.cls-50{fill:#7acbe8}.cls-51{fill:#79cbe8}.cls-52{fill:#7bcce9}.cls-53{fill:#86d0ea}.cls-54{fill:#78cae8}.cls-55{fill:#5abfe3}.cls-56{fill:#aadef1}.cls-57{fill:#6ac5e6}.cls-58{fill:#93d5ed}.cls-59{fill:#5dc0e3}</style></defs><path d="M86.84,3.22c.08,.08,.12,.19,.12,.3,.05,.28,.2,.48,.46,.61l.02-.02c-.05,1.12-.8,.89-1.42,.67-.63-.22-1.11-.74-1.68-1.08-.27-.16-.53-.35-.79-.54-.26-.17-.52-.33-.8-.46-1.36-.54-2.83-1.48-3.22,1.03-.53,0-1.06,0-1.59,.02-2.87,.16-5.1,1.32-6.27,4.09-.09,.06-.17,.12-.26,.18-.1-.03-.2-.06-.3-.09-.59-.57-.8-1.41-1.4-1.97-.04-.71,.17-1.26,.94-1.43,1.52,.15,2.4-1.1,3.6-1.65,.45-.23,1.01-.27,1.41-.54,1.06-.73-.18-.52-.35-.76-.4-.14-.79-.3-.98-.72,.27-.3,.65-.36,1.02-.44,.4-.37,1.03,.03,1.41-.41h3.23c1.24,.92,2.88,.64,4.16,1.43,.18,.16,.36,.32,.6,.37,.12-.02,.22,0,.32,.07,.16,.18,.35,.33,.58,.4,.27,.19,.54,.38,.81,.57,.15,.11,.28,.23,.38,.38Z" class="cls-37"/><path d="M76.77,0c-.34,.56-.88,.46-1.41,.41,.02-.14,.02-.28,.03-.41h1.38Z" class="cls-44"/><path d="M114.58,41.54c2.69-1.44,5.5-2.65,7.77-4.81,3.63-3.48,6.06-7.7,6.26-12.67,.22-5.6-1.1-10.85-6.6-13.93-.19-.11-.34-.29-.51-.44,1.2-1.47,2.67-1.64,3.82-.36,1.02,1.14,1.89,2.41,3.01,3.35-2.11-3.55-4.87-5.35-9.49-6.08,1.13,.32,2.16,.76,2.29,2.11,.04,.38-.02,.8-.61,.56-.15,.01-.28-.02-.41-.11-.19-.15-.36-.31-.61-.34-3.15-.71-6.29-.81-9.44-.03-.43,.24-.82,.27-1.12-.2-.03-.22,0-.43,.1-.64,.11-.19,.24-.36,.39-.53,1.66-1.62,3.7-1.55,5.79-1.44-1.91,.08-3.85-.35-5.7,.41-.66,.27-1.25,.61-1.92,.11-.25-.23-.42-.5-.53-.81-.05-.22,0-.42,.16-.59,6.45-2.46,12.62-1.93,18.39,1.88,3.3,2.18,5.49,5.22,6.52,9.13,1.06,4,1.47,8,.4,12.01-.75,2.81-1.9,5.5-3.76,7.81-1.48-.83-.81-1.92-.22-2.84,1.05-1.63,1.84-3.33,2.3-5.22,.31-1.28,.98-2.47-.44-3.51-.21-.16-.31-.54-.13-.85,1.3-2.31,.14-4.6,.1-6,.31,1.32,.7,3.56-.13,5.75-.4,1.06,.72,1.62,.53,2.6-.31,1.61-.78,3.1-1.45,4.64-2.64,6.07-7.07,10.01-13.17,12.25-.57-.06-1.1-.23-1.57-.59-.12-.13-.15-.26-.12-.39,.04-.13,.07-.2,.11-.2Z" class="cls-5"/><path d="M115.96,42.43c2.06-1.12,4.28-2.03,6.15-3.43,2.22-1.66,4.43-3.49,5.16-6.41,.14-.58,.6-.87,.95-1.26,.37-.41,.76-.83,.57-1.42-.25-.77-.53-1.38,.79-1.04,.69,.18,.24-.52,.33-.8,.25-.88-.11-1.88,.5-2.69-.89-1.02-.5-2.11-.3-3.26,.18-1.02,.11-2.11,.01-3.15-.08-.83-.35-1.64-.6-2.44-.17-.56-.19-1.03,.35-1.48,1.83,2.47,1.3,5.35,1.62,8.04,.02,.18-.56,.44-1.02,.77,1.66,.88,1.82,2.01,1.07,3.74-.9,2.09-1.23,4.4-2.87,6.19-.49,.54-.48,1.44,.09,2.13-.94,1.49-2.16,2.71-3.6,3.71-2.05,.43-3.31,2.24-5.17,3.02-.47,.2-.85,.62-1.37,.78-3.82,1.92-7.79,3.32-12.05,3.94-1.48,.21-3.08-.39-4.44,.62-2,.26-4,.77-6,.01-.1-1.34,.94-1.32,1.81-1.5,1.63-.35,3.35,.2,4.94-.6-1.54,.68-3.14,.38-4.71,.29-.65-.04-1.68,.15-1.56-1.11,1.12-.75,2.58,.09,3.68-.77,3.59-.11,7.09-.82,10.61-1.41,.96,.25,1.86,.35,2.76-.31,.68-.5,1.51-.57,2.31-.15Z" class="cls-47"/><path d="M64.34,30.86c.16,.12,.31,.25,.47,.37,2.55,2.95,6.08,4.57,9.17,6.79,1.67,1.2,3.51,2.16,5.47,2.83,2.13,1.05,4.27,2.1,6.67,2.42,.8,1.05,1.27,2.07-.22,2.94-5.22-1.83-10.56-3.4-14.93-7.05-.86-.72-1.75-1.55-3.06-1.27-.36-.05-.64-.21-.82-.53-.65-1.82-2.58-1.99-3.85-3.02-2.27-2.4-5.22-3.78-8.06-5.32-1.72-.93-3.39-1.97-5.16-2.8-.59-.28-.99-.69-1.1-1.35,0-.49,.27-.83,.65-1.09,2.28-.77,3.85,.97,5.48,1.89,1.8,1.02,3.39,2.51,5.42,3.11,1.47,.43,2.05,2.4,3.87,2.09Z" class="cls-20"/><path d="M101.23,29.05c1.86,1.65,4.08,2.35,6.5,2.54,2.12,.17,3.81-.92,4.35-2.92,.22-.81,.38-1.64-.68-2.15-.94-.45-1.72-1.14-1.21-2.36,.46-1.1,1.86-1.69,3.1-1.41,2.2,.49,3.59,2.36,3.49,4.77-.1,2.48-1.18,4.58-2.77,6.42-.34,.39-.82,.75-1.31,.91-4.67,1.56-9.18,1.7-13.21-1.7-.92-.78-2.05-1.39-2.5-2.64,.06-.45,.12-.89,.56-1.15,.87-.26,1.2,.42,1.66,.93,3.32,3.67,7.43,4.45,12.08,3.31,1.78-.43,2.35-1.79,2.8-3.29,.58-1.84,1.17-3.69-1.1-5.06,.64,1.46,1.34,2.83,.79,4.4-1.1,.89-.87,2.71-2.63,3.25-2.59,.79-5.15,.51-7.65,.02-1.55-.3-2.41-1.98-3.63-2.98-.45-.37-.18-1.33,.84-1.33h0c.15,.17,.33,.29,.5,.44Z" class="cls-2"/><path d="M49.57,23.98c-.15,.31-.31,.61-.46,.92-1.24,1.12-2.43-1.07-3.67-.05-.39,.03-.72-.08-.99-.38-.85-1.84-2.87-1.12-4.2-1.89-1.66-.26-3.16-1.45-4.97-.9-2.15-.31-4.3-.61-6.45-.92-.69-.79-1.68-.28-2.47-.57-1.18-.43,.27,.63-.3,.52-3.36,.04-6.71-.02-10.05,.48-1.74,.26-3.36,1.06-5.16,.95-.29-1.37,1.51-1.19,1.66-2.24,.66-1.06,1.51-1.14,2.42-.37,.57,.48,1.14,.66,1.84,.4,1.03-.31,2.1-.4,3.16-.56,.87-.13-.2-.38-.06-.61-.09-.33-.04-.63,.19-.89,.32-.12,.65-.1,.98-.1,1.53-.11,3.1,.45,4.59-.29,.14-.04,.28-.03,.42,.02,2.68,1.13,5.6,.21,8.31,.91,3.8,.98,7.78,1.33,11.33,3.19,.34,.18,.69,.3,1.08,.32,.28,.03,.52,.15,.72,.34,.12,.12,.23,.25,.35,.37,.06,.05,.12,.11,.18,.17,.21,.14,.43,.25,.66,.34,.16,.06,.32,.13,.47,.22,.14,.1,.26,.23,.36,.37,.02,.08,.05,.17,.07,.25Z" class="cls-51"/><path d="M34.33,48.42c-.16,.77-.32,1.55-.48,2.32l-.11,.13s-.17,0-.17,0c-.09-.03-.14-.05-.14-.05-.17,.26,0-.12,.09,.17,.09,.29-.28,.19,.02,.2,.42,5.14,1.63,6.48,6.74,7.58,.81,.17,1.68,.3,2.31,.95,.43,.78-.18,1.37-.36,2.04-1.71,.84-3.03-.49-4.49-.88-1.97-.53-3.79-1.49-5.11-3.16-1.76-2.22-2.65-4.58-2.28-7.57,.39-3.13,1.82-5.25,5.13-6.15,1.02,.5,2.18-.27,3.19,.33,.2,.01,.39,.03,.59,.04,.2,.01,.4,.05,.6,.1,.2,.06,.38,.15,.57,.24,1.93,.65,4.3,.83,4.12,3.78-.57,.5-1.31,.65-1.98,.93-2.41-2.72-4.14-3.32-6.83-2.29-.6,.23-1.39,.36-1.41,1.28Z" class="cls-41"/><path d="M48.65,11.99c.72,.09,1.36,.36,1.86,.92,.65,1.02,1.89,1.12,2.78,1.79,.62,.47,1.43,.89,.98,1.73-.47,.87-1.16,.19-1.73-.11-.35-.18-.72-.17-1.09-.21-1.99-1.47-4.34-2.22-6.6-3.08-3.83-1.46-7.67-3.03-11.77-3.63-1.94-.28-3.9-.51-5.89-.27-.98,.12-1.98,.05-2.97,.07-.8-1.45-.35-2.13,1.28-2.08,1.43,.04,2.86,.03,4.28-.25,.3,.02,.6,.03,.9,.05,2.1,.61,4.24,.97,6.43,.96,1.56-.01,2.9,.68,4.27,1.29,2.29,1.29,4.54,2.67,7.28,2.82Z" class="cls-45"/><path d="M100.73,28.61c-.46,.51-1.16,1.06-.03,1.54,.92,.39,1.66,.72,2.11,1.83,.38,.95,1.74,.55,2.65,.71,.98,.17,1.93-.15,3.03,.24,.95,.34,2.21-.76,3.44-.86,.07,0,.11-.39,.15-.6,.18-.93,.46-1.77,1.56-1.96,.76-.14,1.08,.15,.93,.93-.06,.14-.12,.28-.19,.42-.52,.91,.1,2.5-1.57,2.72-1.07,.15-1.88,1.51-3.15,.69-1.89,1.37-3.92-.54-5.85,.23-.14,.06-.44-.12-.58-.27-1.66-1.65-4.18-2.31-5.28-4.61-.04-.08-.28-.07-.43-.1-.93-1.38-2.82-2.29-2.16-4.44,.41-.66,.68-1.41,1.23-1.98,1.26,.07,.97,1.26,1.4,1.93,.06,.09,.04,.38,.16,.26,.13-.13,.17-.39,.37-.51,.74,1.28,1.48,2.55,2.21,3.83Z" class="cls-10"/><path d="M95.68,24.9c-.09,.95-.04,2,.68,2.58,.72,.58,.7,1.41,1.16,2.03,0,.41-.12,.77-.51,.99,0,0,.03-.02,.03-.02-.09-.22-.29-.35-.46-.5h.01c-.13-.16-.29-.31-.45-.47h0c-.14-.14-.27-.28-.38-.44-.1-.09-.14-.2-.15-.32-.04-.25-.2-.43-.36-.61-.07-.11-.1-.23-.09-.37-.19-.32-.11-.76-.45-1.01-2.09-5.74-1.33-11.02,2.84-15.56,2.28-2.48,4.77-4.79,8.19-5.69,.49-.26,.97-.3,1.44,.03,.15,.16,.31,.31,.46,.47-.62,.98-1.35,1.84-2.6,1.95-1.44,.12-1.41,1.63-2.24,2.32-3.87,1.41-6.59,5.16-6.92,9.27-.15,1.79-.4,3.56-.21,5.36Z" class="cls-59"/><path d="M44.49,38.75c-.42-.19-.7-.53-.89-.94,.22-.58,.19-1.04-.51-1.27-1.41-.47-1.63-1.46-1.15-2.74,.14-.18,.32-.28,.55-.31,.34,.03,.62,.19,.91,.36,3.14,2.29,5.9,4.93,7.79,8.38,.14,.26,.44,.42,.68,.6,.47,.6,.66,1.34,1.04,1.98,.79,2.93,1.29,5.89,.9,8.94-.09,.74-.08,1.54-.65,2.14-.15,.17-.32,.3-.51,.42-.1,.04-.21,.08-.31,.11-.5,.01-.78-.31-1.02-.68-.05-.09-.09-.19-.14-.28-.07-.19-.11-.39-.13-.58-.01-.4-.14-.73-.53-.91,0-.66-.1-1.35,.36-1.92,1.31-3.45-.27-6.33-2.13-8.91-1.16-1.61-1.87-3.89-4.26-4.39Z" class="cls-18"/><path d="M84.13,76.59c.39-.03,.74,.06,.99,.39,4.42,2.07,9.96-.07,10.73-4.59,.12-.67-.31-1.81,.89-2.12,.67-.03,1.02,.36,1.23,.93,1,2.18-.38,3.74-1.41,5.4-.52,.84-1.45,1.33-1.82,2.28-.19,.35-.52,.49-.89,.54-.57-.18-1.04,.16-1.53,.32-4.41,1.4-8.52,.72-12.37-1.75-.18-.09-.34-.22-.48-.36-.16-.24,.06-.53-.1-.78-.1-.15-.18-.31-.27-.46-.19-.31-.4-.6-.62-.89-.12-.15-.22-.31-.32-.47-.29-.51-.7-.94-1.03-1.42-.1-.19-.15-.39-.17-.6,.37-1.23,1.12-.59,1.79-.36,1.39,.94,2.38,2.29,3.54,3.48,.5,.51,.98,1.27,1.84,.47Z" class="cls-13"/><path d="M90.16,17.08c-.62,1.34-1.53,2.43-2.81,3.19-.77-.07-1.35,.27-1.83,.83-1.66,1.29-3.83,1.45-5.58,2.54-2.4-.14-4.79,.63-7.2-.01-.46-.12-1.07-.16-1.5,.27-.83,.02-1.7,.3-2.46-.31,1.13-.59-.59-1.14-.02-1.73,.64-.94,1.57-.63,2.43-.54,.64,.07,1.27,.52,1.88-.07,.93-.02,1.85-.03,2.78-.05,.67,.72,1.54,.39,2.34,.46,3.8-.99,7.57-2.03,9.62-5.88,.16-.27,.37-.52,.57-.76,.19-.26,.39-.51,.61-.74,.16-.15,.35-.25,.56-.32,1.04-.01,1.65,.34,.96,1.42-.35,.55-.36,1.09-.34,1.68Z" class="cls-25"/><path d="M90.16,17.08c-.66-.55-.58-1.13-.12-1.78,.93-1.31-.35-.83-.83-1-.08-.2-.08-.39,0-.59,.5-.68,.78-1.39,.53-2.26-.18-.63-.53-.58-.98-.33-.5,.16-.71-.24-.99-.5-.32-.23-.4-.56-.4-.93,.35-1.59-.66-2.22-1.9-2.69-1.22-1.22-2.41-2.47-4.22-2.79,.39-.61,1.09-.58,1.66-.81,.4-.15,.81-.17,1.23-.17,.73-.08,1.21,.23,1.65,.84,.45,.63,1.08,.73,1.65,.04,3.74,2.87,5.42,8.92,2.72,12.97Z" class="cls-1"/><path d="M42.19,33.68c-.11,1.27-.09,2.43,1.66,2.49,.29,0,.79,.18,.76,.67-.04,.6-.39,.95-1.01,.97,0,0-.02-.01-.02-.01-.16-.15-.33-.28-.5-.43-1.61-.82-3.24-1.58-4.67-2.71-2.52-2.06-5.54-2.65-8.66-2.9-.77-.14-1.55-.27-2.32-.41-.35-.43-1.23,.06-1.31-.56-.11-.83,.75-.79,1.28-.89,.67-.13,1.31-.27,1.88-.66,2.67-.06,5.08,.6,7.59,1.67,1.88,.8,3.76,1.42,5.33,2.78Z" class="cls-51"/><path d="M42.19,33.68c-.53-.01-1.05-.03-1.51-.39-3.34-2.62-7.36-3.23-11.4-3.77-.61,.07-1.17,.02-1.52-.58-.03-.27,.08-.44,.33-.54,.58,0,1.18-.12,1.74,.14,6.5,.6,12.29,3,17.04,7.45,1.95,1.83,4.09,3.69,5.03,6.39,.08,.13,.13,.26,.16,.41,0,0-.2,.11-.2,.11-.82-.08-2.04,.36-1.54-1.32,.14-.48-.38-.79-.68-1.13-2.03-2.26-4.11-4.47-6.55-6.32-.15-.16-.3-.31-.46-.45h-.23s-.23,0-.23,0Z" class="cls-9"/><path d="M33.43,50.74c.14,0,.28,0,.42,0-.17,4.95,4.05,7.47,7.81,7.85,3.22,.33,6.04-.26,8.21-2.85,.51-.17,.85-.99,1.55-.39h0c.5,.89,.15,1.71-.51,2.21-1.67,1.26-3.14,2.85-5.29,3.36-.24,.05-.48,.06-.72,.06-.88-.04-1.69-.24-2.23-1.01-1.85-.66-3.74-1.12-5.7-1.27-.14-.01-.38-.02-.4-.08-.46-1.34-1.66-1.89-2.68-2.65-.22-.16-.39-.52-.41-.79-.1-1.47-.43-2.95-.03-4.43h0Z" class="cls-22"/><path d="M47.26,22.6c-.15-.15-.31-.3-.46-.45-.31,.26-.62,.26-.93,0-.59,0-1.01-.3-1.39-.71-.34-.37-.71-.6-1.18-.2-.27,.23-.57,.24-.83,0-1.48-1.3-3.35-1.16-5.11-1.42-.23-.03-.51,.01-.67-.11-2.15-1.59-4.63-.97-6.97-.96-1.33,0-2.38-.62-3.58-.83-.05,0-.06-.28-.1-.43,2.12-.3,4.25-.1,6.35,.1,6.27,.61,12.2,2.56,17.99,4.96,.35,.14,.66,.37,.99,.56-.02,1.04-.83,.46-1.28,.62-.19,0-.38-.03-.56-.1-.16-.1-.32-.2-.48-.29-.18-.05-.37-.07-.55-.07-.28,0-.56-.01-.78-.22h0c-.15-.16-.29-.33-.46-.47Z" class="cls-33"/><path d="M22.35,9.26c-4.87,1.16-9.68,2.51-14.25,4.6-.99,.26-1.97,.47-2.31-.92,1.08-.59,2.17-1.18,3.25-1.78,2.82-.76,5.59-1.66,8.24-2.91,.23-.33,.57-.39,.94-.35,1.1,.89,1.94-.23,2.9-.39,.68-.11,1.37-.25,1.79,.48,.35,.62-.16,.94-.57,1.26Z" class="cls-4"/><path d="M81.87,51.17c4.56,1.74,8.91,3.81,11.95,7.87-.07,.36-.28,.6-.61,.74-.84,.26-1.48-.12-2.01-.71-.86-.97-1.96-1.63-2.99-2.39-.45-.96-1.37-1.24-2.35-1.75,.3,.78,1,.82,1.35,1.26,.38,.48,.63,.97,.15,1.53-1.91-.56-3.29-2.05-5.05-2.88-.43-1.19-1.53-2.3-.44-3.68Z" class="cls-37"/><path d="M96.59,70.57c-.32,.91-.08,1.93-.37,2.81-1.14,3.41-4.57,5.41-8.27,4.81-.87-.14-1.84,.49-2.63-.33-.26-.27-.67-.46-.2-.87,1.37,.02,2.74,.1,4.1,.04,4.02-.2,6.39-3.13,6.16-7.16-.11-1.92-.98-3.48-1.6-5.17-.06-.23-.22-.39-.35-.57-.09-.1-.13-.21-.15-.34,.02-1.23,.75-.55,1.26-.47,1.58,1.62,1.85,3.87,2.79,5.8,.3,.61-.16,1.13-.74,1.45Z" class="cls-9"/><path d="M93.36,59.51c.15-.15,.31-.31,.46-.46,0,0,0,0,0,0,.15,.15,.3,.3,.45,.46h0c.16,.14,.29,.3,.39,.47l.03,.05c.15,.32,.24,.68,.64,.8,4.42,4.63,5.28,11.64,1.84,16.05-.68,.87-1.39,1.61-2.42,1.99-.4-.3-.34-.57-.03-.93,.9-1.03,1.66-2.17,2.44-3.28,.79-1.12,.73-2.06,.35-3.18-.07-3.4-.73-6.6-3.07-9.24-.44-.49-1.06-.82-1.35-1.46-.15-.48-.08-.91,.27-1.29Z" class="cls-9"/><path d="M35.74,44.28c-2.42,.65-3.99,2.14-4.66,4.58-.14,.5-.49,.99,.09,1.46,.26,.21,.35,.53,.15,.82-1.45,2.1-.07,3.61,1.13,5.09,.39,.47,.51,.9,.52,1.43,.32,.52,.33,.9-.43,.9-1.32-.81-1.92-2.13-2.38-3.51-.76-2.23-.64-4.54-.25-6.79,.38-2.21,1.86-3.64,3.93-4.38,1.96-.7,3.98-.98,6.05-.51,.29,.3,.72,.23,1.06,.39,.12-.03,.22,0,.32,.08,.01,1.01-.62,1.05-1.37,.9h0c-.31-.28-.61-.29-.92,0h0c-.96-.95-2.15-.33-3.23-.46Z" class="cls-55"/><path d="M81.87,51.17c0,1.24,.72,2.4,.44,3.68-2.43-.88-4.86-1.75-7.39-2.29-.87-.54-1.91,.1-2.78-.42h0c-.15-.79-.49-1.33-1.45-1.37-.52-.02-1.3,.04-1.26-.89,2.14-.35,4.28-.11,6.43-.04,1.52,.36,2.85,1.69,4.6,.93,.53-.05,1.03-.02,1.42,.41Z" class="cls-35"/><path d="M52.79,55.81c.89-1.51,.8-3.21,.57-4.8-.26-1.81,.08-3.73-.88-5.44-.09-.16,.2-.55,.32-.83,.08-.06,.16-.13,.24-.19,.09,.06,.17,.11,.26,.17,2.26,5.55,1.79,10.73-2.05,15.47-.9,1.1-2.04,1.83-3.45,2.11-.29,.22-.68,.15-.97,.37-.47,.03-.93,.07-1.4,.1-.11-.1-.17-.22-.17-.35,0-.14,.01-.2,.04-.21,.28-.44,.64-.82,1-1.2,2.55-.89,4.42-2.65,6.04-4.73h0c.15-.15,.3-.31,.45-.46Z" class="cls-46"/><path d="M109.04,8.3c.21,.41,.6,.46,1,.49-.19,.12-.38,.33-.58,.34-3.65,.3-6.17,2.63-8.58,4.97-2.19,2.14-2.78,5.05-2.93,8.03-.14,.15-.32,.21-.52,.17-.39-.11-.73-.29-.99-.62-.14-.27-.18-.56-.15-.86,.08-.49,0-.99,0-1.49,1.48-3.39,2.58-7.04,6.21-8.93,1.3-1.13,2.91-1.79,4.12-3.15,.97-1.09,1.68,.45,2.42,1.02Z" class="cls-59"/><path d="M27.9,29.06c.5,.03,1.05-.07,1.39,.46-.07,.48-.26,.87-.8,.89-.65,.03-1.3,0-1.97,0,.07,.67,.8,.47,.92,.93-1.93,.12-3.86-.39-5.81-.03-.47,.09-1.01-.21-1.52-.34-1.25-.43-2.37,.45-3.57,.37-.72-.04-1.76,.31-1.97-.63-.16-.75,.88-.88,1.4-1.27,.19-.09,.4-.15,.61-.18,.52,.01,1.04-.04,1.53-.24,3.27-.87,6.53-.75,9.79,.03Z" class="cls-25"/><path d="M67.91,37.89c.33-.62,.75-.99,1.46-.53,.7,.46,1.45,.87,2.08,1.41,1.14,.96,1.98,2.37,3.74,2.31,.07,0,.19,.03,.21,.07,.68,1.53,2.28,1.25,3.46,1.72,1.33,.53,2.46,1.49,3.95,1.7,1.06,.15,1.82,1,2.71,1.56-.07,.06-.14,.13-.22,.19-.3,.05-.57-.04-.85-.12-1.87-.08-3.52-.96-5.21-1.61-3.91-1.52-7.48-3.68-10.8-6.25-.14-.19-.27-.38-.5-.47l-.04,.03Z" class="cls-57"/><path d="M45.44,24.86c.41-.84,.79-1.8,1.86-.61,.49,.55,1.11,.72,1.81,.66,1.13,.78,2.07,1.92,3.6,1.97,.15,0,.34,.03,.42,.12,2.2,2.35,5.74,2.56,7.93,4.94,.23,.25,.67,.35,1.04,.41,1.06,.16,1.08,1.03,1.3,1.78,.17,.23,.15,.44-.07,.63-3.59-2.28-7.08-4.69-10.84-6.71-2.29-1.23-4.66-2.23-7.05-3.2Z" class="cls-43"/><path d="M120.5,9.27c-.05-1.71-.1-1.75-1.65-1.72-.22,0-.44-.08-.66-.15-.21-.07-.41-.17-.64-.26,.02-.89,.95-.93,1.31-1.47,.15-.23,.61-.46,.7-.05,.26,1.15,1.2,.29,1.63,.62,1.39,1.09,3.03,1.7,4.51,2.59,1.93,1.16,2.9,2.98,4.02,5.11-1.21-.1-1.75-.83-2.35-1.38-.62-.57-1.2-1.19-1.69-1.87-1.51-2.07-1.49-2.09-4.21-1-.37-.03-.73-.1-.98-.42Z" class="cls-27"/><path d="M78.61,72.88c-.45,.17-1.27-.77-1.38,.46-1.94-1.62-2.33-4.59-.87-7,.47-.77,1-1.5,1.29-2.38,.2-.39,.51-.68,.94-.81,.42,.05,.83,.13,1.05,.56-.79,1.08,.81,1.8,.41,2.82-.5,1.15-1.07,2.28-.99,3.59-.54,.86,.2,1.93-.46,2.77Z" class="cls-41"/><path d="M79.54,41.05c-1.81,.04-3.2-.92-4.68-1.81-1.54-.93-2.99-1.99-4.54-2.93-1.5-.9-2.89-2-4.38-2.95-.61-.38-1.22-1.17-1.12-2.13,1.98,.87,3.61,2.31,5.37,3.52,3.03,2.09,6.17,3.99,9.37,5.8,.06,.08,.12,.17,.17,.25-.06,.08-.12,.16-.19,.24Z" class="cls-11"/><path d="M45.42,62.26c0,.17,0,.33,0,.5-4.95,.62-9.44-.19-12.88-4.2,.36-.2,.42-.54,.43-.9,2.47,2.05,5.5,2.93,8.45,3.98,.32,.12,.58-.02,.78-.29,.21-.24,.48-.3,.77-.29,.46,.07,.91,.16,1.38,.03,.19-.05,.38-.06,.57-.06,.1,.02,.19,.04,.29,.05,.19,.08,.33,.21,.43,.38,.08,.31,.04,.58-.21,.8Z" class="cls-22"/><path d="M49.57,23.52c.62-.06,1.31,.21,1.81-.39,4.63,2.06,8.97,4.61,12.97,7.74-.87,.87-1.74,.58-2.31-.25-.68-.98-1.61-1.35-2.66-1.53-.64-.11-1.07-.41-1.52-.86-.52-.52-1.1-1.17-2.01-.89-.29,.09-.51-.09-.53-.28-.21-1.64-1.5-1.54-2.68-1.86-1.04-.28-1.7-1.65-3.07-1.21,0,0,0,0,0,0-.13-.1-.18-.21-.13-.31,.04-.1,.09-.15,.13-.15Z" class="cls-43"/><path d="M79.54,77.49c.71-.07,1.44,.08,1.93,.53,1.74,1.61,4.1,1.29,6.1,2.08,.46,.18,.9,.09,1.32-.14,1.42-.76,3.15-.33,4.56-1.21,.23-.14,.37,.37,.42,.66-2.57,1.58-5.37,1.81-8.29,1.56-2.77-.24-5.14-1.2-6.84-3.5,.27-.25,.54-.26,.81,.01Z" class="cls-9"/><path d="M80.06,66.52c-.33-.86-1.19-1.26-1.74-1.82,.22-.74,1.01-.51,1.22-1.04,1.99-1.57,3.71-.13,5.5,.51,1.32,1.09,2.56,2.21,1.45,4.16-1.37-.47-2.73-.94-3.79-1.99-.42-.42-.88-.63-1.32,0-.44,.06-.88,.12-1.32,.19Z" class="cls-1"/><path d="M69.43,49.87c.54,.61,1.26,.35,1.91,.4,1.64,.14,1.69,.25,.79,1.88-2.44,.79-4.95,.35-7.43,.4-.39,0-.76-.16-.76-.64,0-.44,.34-.7,.7-.8,1.59-.44,3.19-.83,4.79-1.24Z" class="cls-24"/><path d="M44.49,38.75c.4-.56,.91-.55,1.38-.16,.4,.34,.72,.78,1.04,1.2,1.86,2.43,3.82,4.73,4.59,7.88,.36,1.47,.26,2.8,.18,4.2-.02,.39-.42,.64-.8,.18,.25-4.48-1.85-8-4.61-11.26-.58-.69-1.4-1.18-1.79-2.04Z" class="cls-46"/><path d="M16.38,29.52c-.16,.74-1.05,.72-1.54,1.41,1.38-.17,2.61,.27,3.75-.54,.6-.43,1.13,.06,1.52,.59-2.6,.61-5.2,1.21-7.8,1.82-.6,.18-1.2,.35-.93-.65-.09,0,.35-.17-.03-.04-.28,.09,.08-.12-.19,.06-.82,.14-1.74,.9-2.25-.44,1.89-1.6,4.25-2.04,6.52-2.68,.38,.03,.74,.12,.95,.48Z" class="cls-50"/><path d="M102.12,47.99c.08-.81,.62-.93,1.3-.95,3.3-.11,6.49-.75,9.65-1.7,.91-.27,1.8-.46,2.37-1.23,.85-1.15,2.28-.58,3.28-1.22,.29,.32,.27,.66,.06,1.01v-.04c-.22,.07-.37,.24-.52,.41l-.14,.07h-.15c-.25,.02-.43,.18-.62,.33-.12,.08-.25,.11-.39,.1-.31,.21-.74,.13-1.01,.43h0c-.25,.26-.66,.17-.92,.42-4.14,1.7-8.44,2.55-12.92,2.36Z" class="cls-26"/><path d="M79.54,77.49c-.27,0-.54,0-.81-.01-1.46-1.66-2.83-3.37-3.42-5.58-.84-3.13-.41-5.87,2.34-7.94,.13,1.02-.16,1.83-.8,2.71-.83,1.13-1.58,2.48-.37,3.92,.66,.79-.16,2.01,.75,2.75,0,0,0,0,0,0,.4,.66,.95,1.21,1.38,1.85h0c.34,.44,.57,.96,.93,1.38h0c.1,.1,.14,.21,.1,.31-.03,.1-.07,.16-.1,.16,0,.15,0,.3,0,.46Z" class="cls-31"/><path d="M12.68,20.29c.47,.45,.38,.8-.24,.88-.7,.09-1.31,.26-1.6,.98-1.83,.66-3.57,1.58-5.51,1.95-.52-.52-1.74,.23-1.86-1.03,1.19-1.11,2.55-1.92,4.12-2.37,.41,.15,.8,.18,1.15-.12,.38-.3,.81-.47,1.28-.57,.19-.01,.37,0,.55,.05,.46,.12,.9,.02,1.35-.07,.3-.02,.56,.04,.76,.29Z" class="cls-28"/><path d="M61.12,20.68c-2.03-1.38-4.62-1.55-6.58-3.08-.28-1.65,.32-2.08,1.9-1.5,.74,.27,1.41,1,2.34,.56,.38-.03,.72,.08,.98,.37,.41,.68,1.17,.89,1.75,1.32,1.44,1.07,1.4,1.37-.39,2.32Z" class="cls-45"/><path d="M88.29,15.68c-.99,3.18-3.61,4.45-6.44,5.44-.75,.26-1.59,.04-2.06,1.07-.32,.7-1.08-.17-1.65-.05-.29-.3-.02-.64-.06-.96,2.69-.67,5.25-1.61,7.32-3.57,.66-.63,1.31-1.28,1.97-1.92,.12-.15,.27-.23,.46-.25,.19,.03,.34,.11,.47,.25Z" class="cls-38"/><path d="M22.35,9.26c.44-.84,.5-1.44-.75-1.42-.66,.01-1.11,.4-1.64,.67-.72,.36-1.48,.54-1.73-.6,3.12-.95,6.32-1.41,9.58-1.4,.67,0,1.37-.12,1.96,.37-1.07,1.46-2.75,1.04-3.98,.82-1.68-.31-1.63,.41-1.59,1.51-.62,.02-1.24,.03-1.86,.05Z" class="cls-19"/><path d="M74.34,.86c.4,.07,.82,.11,1.04,.52-.03,.1-.07,.19-.1,.29-.52,.66-1.42,.79-1.99,1.38-.57,.41-1.1,.88-1.65,1.31-.17,.11-.36,.19-.56,.24-.1,0-.2,0-.31,0-.52,.32-.65,.9-.92,1.39,.4,1.51-.49,2.73-.9,4.06-.3,.35-.5,.97-1.12,.4-.02-.75-.17-1.51,.13-2.24,.41-3.21,2.04-5.54,5.03-6.86,.18-.1,.36-.21,.54-.32,.27-.06,.55-.11,.82-.17Z" class="cls-11"/><path d="M11.76,31.82c-.32,.61-.18,.95,.55,.97-2.4,1.07-4.51,2.75-7.36,3.33,.51-2.29,2.55-3.08,3.96-4.4,.93,.54,1.91-.11,2.86,.1h0Z" class="cls-45"/><path d="M96.59,45.2c2.01,.53,4.04,1.31,6.02-.06,.7-.48,1.1-.12,1.55,.39-.73,1.31-2.09,1.32-3.22,1.28-1.24-.05-2.39,.41-3.62,.28-.59-.06-.97,.39-1.21,.91,0,0-.23,.02-.23,.02l-.22-.05c-.62-.54-1.48-.75-1.97-1.46-.03-.5,.22-.84,.6-1.12,.74-.31,1.47-.77,2.29-.18Z" class="cls-16"/><path d="M85.98,43.36c-2.62,.55-4.53-.9-6.44-2.31h0c.32-.28,.66-.24,.99-.04,1.71,.09,3.12,1.14,4.77,1.45,2.08,.39,4.14,.91,6.21,1.37,.16,2-1.4,1.47-2.46,1.68-1.18-.5-2.25-1.15-3.08-2.16Z" class="cls-47"/><path d="M88.76,45.2c.65-.16,1.29-.35,1.95-.46,.54-.09,.76-.4,.81-.9,.82,0,1.67-.2,2.41,.38-.33,.46-.72,.44-1.11,.27,.22,.61,1.65-.06,1.48,1.18-.15,.31-.31,.61-.46,.92-1.11,.99-2.47,.6-3.74,.67-.65-.18-1.34-.19-1.96-.47-.58-.25-1.14-.61-.85-1.33,.31-.76,.91-.59,1.48-.26Z" class="cls-20"/><path d="M61.12,20.68c.34-.37,.69-.75,1.08-1.18-.81-.59-1.63-1.16-2.43-1.75-.28-.21-.33-.47-.02-.71,2.76,.71,5.17,2.24,7.78,3.29,.1,1.02-.61,1.16-1.3,1.01-1.26-.28-2.5-.5-3.78-.11-.51-.02-.93-.28-1.34-.54Z" class="cls-36"/><path d="M16.38,29.52c-.39-.01-.74-.11-.95-.48,0,0,0,0,0,0,.27-.24,.69-.16,.94-.44,3.36-.68,6.73-.95,10.15-.47,.37,.44,1.01,.02,1.38,.46v.46c-.87,.69-1.75,.03-2.61-.01-2.53-.14-5.06-.34-7.53,.48-.31,.26-.62,.26-.93,0-.15,0-.3,0-.46,0Z" class="cls-6"/><path d="M78.61,72.88c-.07-.96-1.07-2.07,.46-2.77,1.16,2.58,2.51,5,5.07,6.48-.28,.47-.23,1-.23,1.6-1.96-1.64-3.68-3.42-5.29-5.32Z" class="cls-47"/><path d="M12.68,20.29c-.31,0-.61,0-.92,.01-.46,.3-.93,.31-1.39,0h0c-.28-.52,.15-.66,.45-.86,2.38-.83,4.75-1.68,7.33-1.47,.64-.28,1.27-.32,1.89,.04v.91c-.94,.78-2.49,.14-3.22,1.39-.77,.74-1.53,.59-2.11-.17-.83-1.1-1.44-.83-2.04,.17Z" class="cls-12"/><path d="M58.78,16.66c-.07,.37-.13,.81-.64,.69-.42-.1-.82-.34-1.22-.53q-1.64-.76-2.37,.78c-.13-.01-.25-.04-.37-.1-.26-.27-.68-.17-.96-.42-.16,0-.3-.05-.44-.12-.16-.1-.31-.22-.44-.36h0c-.24-.28-.67-.18-.89-.48,0,0,0-.01,0-.01,.94-1.14,1.55,.47,2.57,.25-.33-1.36-1.59-1.63-2.5-2.21-.42-.27-1.13-.17-1.47-.49-.64-.6,.1-.62,.47-.76,0,0,0,0,0,0,.24,.31,.68,.2,.95,.46,.15,.04,.3,.08,.45,.12,.17,.11,.34,.22,.5,.33,.14-.01,.28,.01,.41,.07,.17,.15,.34,.3,.55,.38,.13,0,.26,.03,.38,.09,.17,.14,.33,.28,.52,.38,.14-.01,.27,0,.39,.06,.17,.17,.35,.32,.58,.38,.12,0,.23,.02,.34,.08,.17,.16,.34,.33,.58,.38,1,.02,1.8,.57,2.63,1.03Z" class="cls-36"/><path d="M3.47,23.07c.25,.37,.56,.37,.95,.23,.77-.29,.85,.26,.91,.8-.57,.39-1.08,.96-1.71,1.12-1.61,.43-2.35,1.57-2.83,3.01-.38-.18-.39,.2-.55,.36-.73-1.8,.32-3.07,1.38-4.26,.48-.54,1.22-.84,1.85-1.25Z" class="cls-58"/><path d="M93.37,60.88c.48,.28,1.06,.41,1.38,.92-.18,.61,.13,1.33-.46,1.84-.35-.1-.74-.46-1,.14-2.03-1.68-3.4-4-5.47-5.65,.31-1.32,1.01-.59,1.58-.27,1.46,.82,2.52,2.17,3.97,3.02Z" class="cls-37"/><path d="M93.37,60.88c-.12,.64-.47,1.2-.92,.34-.84-1.58-2.62-1.99-3.68-3.26-.29-.35-.68-.21-.94,.17-.15-.14-.31-.27-.46-.41,.05-.55-.24-.99-.45-1.46,.46-.4,.93-.39,1.39,0,1.3,.55,2.45,1.33,3.29,2.48,.46,.64,1.06,.78,1.77,.76,0,.46,0,.92,.01,1.37Z" class="cls-19"/><path d="M34.33,48.42c-.3-.03-.69-.11-.56-.48,.31-.88,4.39-2.49,5.17-1.96,1.39,.94,3.23,1.43,3.72,3.37,.04,.08,.09,.17,.13,.25-.03,.2-.13,.34-.31,.43-.3,.07-.56,.02-.77-.22l-.03-.75c-.05-.31-.25-.48-.53-.59-.14-.01-.26-.06-.36-.15-.16-.1-.32-.21-.45-.34h0c-.16-.19-.34-.37-.61-.41-1.3-.15-2.59-.1-3.89,0-.55,.19-1.2,.21-1.51,.85v.02Z" class="cls-3"/><path d="M39.89,44.74c.48-.27,1.05-.4,1.37-.9,2.4,.9,4.05,2.48,4.57,5.07-.31,.59-.72,.89-1.37,.44-.21-.31-.25-.62,.03-.92-.1-.12-.17-.29-.29-.34-.93-.35-.02-1.63-1.11-2.03-.81-.29-1.64-.3-2.43-.53-.38-.11-.61-.44-.78-.79Z" class="cls-47"/><path d="M44.5,49.36c.5,.02,.9-.25,1.33-.45,.13,.47,.13,.93-.05,1.39-.11,.19-.27,.34-.32,.56-.55,1.79-1.3,2.37-2.64,2-1.33-.36-1.65-1.24-1.11-3.06,.31,0,.63,0,.94,0,.24,.18,.38,.43,.5,.68,.07,.12,.16,.25,.26,.34,.12,.06,.24,.06,.36-.01,.09-.11,.16-.23,.21-.37,.09-.32,.15-.65,.32-.93,.07-.06,.14-.11,.21-.17Z" class="cls-26"/><path d="M29.76,31.75c.07-.39,.2-.84,.7-.67,2.41,.85,5.05,.93,7.3,2.27,.43,.25,1.27,.45,.67,1.3-2.89-.97-5.78-1.94-8.67-2.9Z" class="cls-46"/><path d="M71.24,23.9c.38-1.36,1.7-.78,2.25-.67,1.11,.22,2.07,.12,3.13-.12,1.15-.26,2.27,.1,3.38,.41,.05,.07,.11,.14,.16,.22-.06,.07-.11,.14-.17,.21-2.92,.86-5.84,.55-8.75-.05Z" class="cls-36"/><path d="M79.09,14.82c-.69,.85-1.6,1.4-2.56,1.89-2.16,1.1-4.11,.83-5.82-.93-.11-.2-.13-.41-.05-.62,.16-.15,.35-.25,.56-.32,2.84,1.53,5.36,.22,7.9-.92,.22,.31,.18,.61-.04,.9Z" class="cls-6"/><path d="M118.79,43.9c-.02-.34-.04-.67-.06-1.01,1.06-.69,1.92-1.69,3.26-1.94,.67-.12,.76-.9,1.21-1.27,.6-.51,1.28-1.3,1.97-.05,0,0-.02,.02-.02,.02-.12,.17-.27,.3-.44,.41l-.05,.04c-.11,.17-.24,.32-.41,.44l-.02,.03c-.13,.16-.28,.32-.43,.47-.6,.69-1.46,.99-2.24,1.41-.18,.12-.35,.24-.52,.36-.1,.09-.21,.13-.35,.12-.24,.07-.42,.24-.59,.41h0c-.24,.28-.67,.17-.91,.46-.12,.08-.26,.11-.4,.09Z" class="cls-30"/><path d="M79.09,14.82c0-.33-.01-.66-.02-.98,0-.08,0-.16-.01-.24,0-.16,.01-.32,.03-.47,0-.16-.01-.32-.06-.46-.01,0-.18-.13-.18-.13,0,0-.22,0-.22,.02-.15,.08-.28,.17-.42,.26-.14,.12-.28,.22-.42,.32-.16,.11-.32,.2-.49,.28-.57,.06-1.37,.77-1.47-.51h0c.19-.12,.32-.3,.47-.46h0c.15-.14,.31-.28,.48-.4l.05-.04c.11-.17,.25-.32,.41-.44l.02-.03c.14-.16,.28-.32,.43-.47h0c.26-.26,.7-.18,.91-.51,1.61-.39,1.99-.09,2.31,1.9-.29,.26-.19,.69-.43,.97-.05,.14-.1,.29-.15,.43-.06,.15-.16,.27-.31,.33-.31,.21-.61,.42-.92,.63Z" class="cls-39"/><path d="M48.65,11.99c-.37,.72-.75,.96-1.62,.51-1.94-1.01-3.81-2.22-6.09-2.42-.23-.02-.41-.26-.33-.49,.11-.33,.47-.34,.76-.41,2.53,.68,4.87,1.83,7.28,2.82Z" class="cls-42"/><path d="M84.15,3.23c-.2,.37-.54,.45-.92,.46-.86,.57-2.01-.8-2.77,.41-.37,.02-.7-.05-.92-.38,.29-.77-1.16-1.3-.39-2.02,.67-.62,1.57-.36,2.37-.03,.56,.23,1.14,.43,1.7,.64,.14,.17,.32,.29,.47,.45,.15,.15,.31,.31,.46,.46Z" class="cls-34"/><path d="M94.29,45.66c-.42-.76-1.53-.15-2.02-1.13,.5-.39,1.13-.16,1.65-.32,2.12,.03,4.23,.06,6.35,.09-.92,1.54-2.44,.65-3.68,.9-.79,.04-1.48,.6-2.3,.46Z" class="cls-31"/><path d="M81.37,66.34c-.34-.69,.03-1.55,.58-1.08,1.41,1.21,3.34,1.61,4.54,3.07-1.71,.66-2.24,.64-3.16-.52-.55-.68-1.07-1.28-1.95-1.47Z" class="cls-47"/><path d="M62.46,21.22c.2-.08,.57-.16,.57-.25,.06-1.33,.67-1.37,1.53-.65,.64,.53,1.44,.4,2.14,.63,.41,.13,.65-.28,.83-.62,.52,0,1.06-.06,1.46,.39-.14,.39-.45,.65-.68,.96-.4,.47-.86,.84-1.53,.85-.57-.1-1.12-.27-1.66-.47-.26-.11-.52-.19-.78-.01-.62-.3-1.39-.25-1.88-.83Z" class="cls-25"/><path d="M75.83,12.9c.61,.84,1.24-.15,1.86,.01-.44,2.05-2.18,2.5-3.76,2.46-1.2-.03-2.86-.47-2.59-2.46,.08-.24,.23-.43,.45-.55,1.25,.88,2.51,1.71,4.04,.54Z" class="cls-6"/><path d="M17.29,8.26c-.42,1.13-1.57,.94-2.38,1.37-1.48,.78-3.12,1.07-4.63,1.72-.44,.19-.87,.22-1.23-.19,.1-.08,.21-.12,.34-.12,.22-.09,.36-.28,.53-.42,2.38-1.02,4.8-1.94,7.37-2.36Z" class="cls-14"/><path d="M88.76,45.2c-.43,.05-1.02-.14-1.16,.43-.14,.55,.34,.82,.81,.89,.61,.09,1.19,.23,1.73,.53,.15,.1,.2,.19,.15,.29-.05,.1-.1,.15-.15,.15-1.61,.08-3.09-.5-4.61-.93-.15-.1-.2-.19-.15-.29,.05-.1,.1-.15,.15-.15h0c1.53-.69,.55-1.8,.45-2.76,1,.5,2.29,.57,2.78,1.84Z" class="cls-57"/><path d="M85.03,64.17c-.19,.09-.48,.31-.56,.25-1.52-1.13-3.23-.96-4.94-.76-.4-.02-.75-.11-.95-.51,2.42-1.38,4.18-1.1,6.44,1.02Z" class="cls-23"/><path d="M5.79,12.94c.6,.74,1.42,.91,2.31,.92-1.79,.51-3.12,1.78-4.62,2.76-.45,.11-.66-.03-.52-.51,.44-1.51,1.64-2.34,2.84-3.17Z" class="cls-56"/><path d="M90.14,47.48c0-.15,0-.29,0-.44,1.2-.4,2.43-.53,3.69-.46,1.1-.19,1.5,.57,1.85,1.39-1.87,.17-3.72,.04-5.53-.49Z" class="cls-47"/><path d="M40.35,22.14c1.25,.3,2.51,.57,3.75,.89,.95,.25,1.11,.75,.35,1.45-1.74-.52-3.5-1.01-5.14-1.82,.22-.44,.79-.16,1.04-.52Z" class="cls-43"/><path d="M80,23.52c.33-.63,.78-1.29,1.49-1.31,1.54-.02,2.67-1.04,4.03-1.47,.15,.11,.23,.25,.23,.44-.02,.18-.09,.33-.23,.45-1.33,1.02-2.86,1.61-4.48,1.94-.36,.16-.71,.22-1.04-.06h0Z" class="cls-54"/><path d="M37.1,7.88c-.22,.4-.52,.94-.98,.73-1.37-.63-2.82-.67-4.27-.79-.58-.05-.95-.39-1.19-.89,2.23-.24,4.35,.23,6.43,.96Z" class="cls-51"/><path d="M80.45,50.76c-.04,.66,.1,1.55-1.06,1.03-1.03-.46-2-1.03-3.14-1.21-.33-.05-.35-.45-.4-.75,1.62-.1,3.15,.21,4.6,.93Z" class="cls-6"/><path d="M115.96,42.43c-.84,0-1.58,.03-2.28,.74-1,1.03-1.46,.9-2.8-.28,.95-.52,1.96-.89,3.05-1,.23-.13,.44-.1,.64,.08,.51,.02,1.05-.08,1.38,.46Z" class="cls-15"/><path d="M68.01,21.21c.21-.4,.6-.43,.98-.49,1.39-.08,2.76,.04,4.07,.55-.2,1.12-.96,.92-1.68,.69-.85-.26-1.69-.56-2.46,.18-.86,.25-.61-.62-.91-.92Z" class="cls-29"/><path d="M40.35,22.14c-.22,.42-.64,.46-1.04,.52-1.38-.16-2.75-.4-4.03-.97,.08-.8,.5-1,1.24-.76,1.27,.42,2.56,.81,3.83,1.22Z" class="cls-27"/><path d="M88.29,15.68h-.46c-.28-.32-.24-.64-.02-.97,0-1.36-.02-2.73-.03-4.09,.33,.15,.65,.3,.98,.45,.07,.07,.14,.13,.22,.2,.36,.73,.29,1.51,.27,2.29-.01,.1-.02,.19-.04,.29,0,.15,0,.3,0,.45,0,.15,0,.31,0,.46-.17,.14-.29,.32-.45,.47-.15,.15-.31,.31-.46,.46Z" class="cls-17"/><path d="M63.33,34.76c.02-.21,.05-.42,.07-.63,1.26,.23,2.16,1.21,3.35,1.62,.45,.15,1.11,.88,.34,1.6,0,0,0,0,0,0-.14-.19-.34-.31-.54-.42-1.11-.67-2.28-1.24-3.22-2.16Z" class="cls-22"/><path d="M85.48,7c.16-.14,.39-.42,.48-.38,1.11,.48,2.02,1.22,2.3,2.46,.18,.78-.25,.89-.88,.61-.63-.9-1.27-1.79-1.9-2.69Z" class="cls-17"/><path d="M68.01,21.21c.3,.31,.61,.61,.91,.92,.07,.13,.16,.24,.21,.38,.15,.38,.88,.4,.67,.9-.07,.17-.66,.13-1.02,.19-.11,0-.22-.02-.32-.07-.27-.3-.7-.21-1.01-.42-.5-.02-1-.04-1.37-.45,.07-.28,.37-.33,.53-.51,.67,0,1.13-.32,1.4-.93Z" class="cls-36"/><path d="M97.52,22.14c.14,0,.29,0,.43,0,.19,.88,.38,1.76,.57,2.64-.15,.33-.02,.99-.78,.56-.91-.52-.36-1.72-1.14-2.28-.05-.08-.09-.16-.14-.24,.02-.09,.04-.18,.06-.28,.07-.07,.13-.13,.2-.2,.25-.16,.52-.19,.81-.2Z" class="cls-5"/><path d="M71.3,9.36c.16,1,.33,2,.49,3,0,0-.1,.1-.1,.1-1.34,.49-1.7-.56-1.65-1.38,.08-1.13-.95-2.83,1.19-3.24h0c.34,.49,.24,1,.07,1.52Z" class="cls-29"/><path d="M26.05,20.72c-.3-.2-.6-.41-1.26-.85,1.3,0,2.27-.02,3.24,0,.55,.01,.73,.42,.8,.9-.93-.02-1.85-.03-2.78-.05Z" class="cls-49"/><path d="M25.63,17.47c-.65,.71-1.38,1.18-2.39,.73-.72-.32-1.49-.17-2.25-.21-.16-.1-.21-.19-.15-.28,.05-.09,.11-.14,.16-.14,1.54-.01,3.08-.31,4.63-.09Z" class="cls-33"/><path d="M80.46,4.1c-.47-1.07,.09-1.56,.98-1.15,.59,.27,1.23,.42,1.79,.74-.52,.7-1.31,.35-1.97,.53-.27-.04-.53-.07-.8-.11Z" class="cls-37"/><path d="M68.05,12.46c-.07-.12-.1-.26-.08-.4-.19-.3-.19-.62-.11-.94,.22-.27,.54-.3,.85-.37,.86,.11,.84,.72,.77,1.35-.03,.36-.02,.73,.06,1.09,.03,.18,.01,.36-.05,.53-.18,.24-.4,.34-.68,.17-.22-.08-.35-.24-.36-.48-.25-.27-.15-.68-.41-.95Z" class="cls-11"/><path d="M78.09,21.17c.56,.29,.15,.63,.06,.96-.81-.2-2.01,.57-2.3-.92,.75-.01,1.49-.03,2.24-.04Z" class="cls-23"/><path d="M85.53,21.22c0-.16,0-.31,0-.47,.49-1.06,.73-1.13,1.83-.48-.32,.46-.78,.75-1.27,1-.2,.12-.39,.1-.56-.06Z" class="cls-48"/><path d="M68.82,13.9c.19-.17,.39-.35,.58-.52,1.39-.08,2.03,.4,1.38,1.85h0c-.16,.13-.33,.15-.51,.04h.01c-.11-.24-.31-.38-.56-.45-.3-.31-.61-.61-.91-.92Z" class="cls-9"/><path d="M68.03,11.07c-.02,.33-.04,.66-.06,.99-.58-1.28-.65-2.57,0-3.85,.02,.8,.04,1.59,.06,2.39,.15,.1,.2,.21,.15,.31-.05,.11-.1,.16-.15,.16Z" class="cls-19"/><path d="M9,20.76c-.2,.38-.41,.79-.91,.75-.47-.03-.43-.48-.5-.81,.22-.3,.53-.44,.89-.45,.51-.18,.61,.06,.52,.5Z" class="cls-32"/><path d="M52.79,44.74c-.84-.35-.98-1.05-.92-1.85,0,0,0,0,0,0,.15-.16,.31-.16,.46,0,.32,.19,.47,.49,.51,.85,.19,.34,.24,.67-.04,.99h0Z" class="cls-9"/><path d="M9,20.76c-.17-.17-.35-.33-.52-.5,.71-.48,1.51-.71,2.35-.83-.15,.29-.3,.57-.45,.86-.52-.02-.93,.26-1.38,.46Z" class="cls-51"/><path d="M50.52,53.97c.33-.13,.69-.51,1.01-.26,.5,.38-.04,.79-.12,1.18-.33,.27-.65,.26-.98,0,.03-.3,.06-.61,.09-.91Z" class="cls-22"/><path d="M27.9,28.6c-.51-.02-1.05,.08-1.38-.46,1.11,.09,2.28-.33,3.32,.4-.65,.02-1.29,.04-1.94,.06Z" class="cls-25"/><path d="M72.14,52.14c.94,.09,1.95-.37,2.78,.42-.94-.08-1.94,.27-2.78-.42Z" class="cls-24"/><path d="M20.99,17.56c0,.14,0,.28,0,.42-.31,0-.62,0-.93,0-.63-.01-1.26-.02-1.89-.04,.87-.66,1.87-.37,2.83-.39Z" class="cls-42"/><path d="M66.62,22.14c-.18,.17-.35,.34-.53,.51-.5-.01-.98-.07-1.31-.49-.12-.11-.15-.22-.11-.32,.04-.1,.08-.15,.12-.15,.61,.15,1.22,.31,1.83,.46Z" class="cls-7"/><path d="M2.96,16.1c.17,.17,.35,.34,.52,.51-.08,.13-.14,.26-.23,.38-.19,.23-.43,.53-.72,.38-.37-.19-.09-.52,.02-.76,.09-.19,.27-.34,.41-.51Z" class="cls-21"/><path d="M50.43,54.88c.33,0,.65,0,.98,0,0,.15,0,.31,0,.46-.52,.13-1.03,.26-1.55,.39,.12-.33,.24-.67,.57-.86Z" class="cls-51"/><path d="M34.34,48.4c.11-.98,.81-.9,1.5-.85-.5,.28-1,.56-1.5,.85Z" class="cls-41"/><path d="M107.2,5.53c-.48,0-.96-.02-1.44-.03,.4-.43,.92-.44,1.45-.41,0,.15,0,.29,0,.44Z" class="cls-43"/><path d="M71.3,9.36c-.02-.51-.04-1.01-.07-1.52,.15,0,.29,0,.44,0,.02,.54,.09,1.1-.37,1.52Z" class="cls-19"/><path d="M95.34,60.83c-.7,.12-.93-.14-.64-.8,.36,.15,.52,.46,.64,.8Z" class="cls-37"/><path d="M78.6,10.55c-.17,.42-.52,.51-.91,.51,.2-.36,.54-.46,.91-.51Z" class="cls-6"/><path d="M68.05,12.46c.36,.22,.42,.57,.41,.95-.31-.24-.44-.56-.41-.95Z" class="cls-9"/><path d="M80.48,13.43c-.02-.4,.05-.75,.43-.97,.02,.39-.11,.72-.43,.97Z" class="cls-6"/><path d="M51.44,13.36c-.4,.01-.75-.07-.95-.46,.38,.02,.72,.12,.95,.46Z" class="cls-45"/><path d="M87.81,14.71c0,.32,.02,.65,.02,.97-.15,0-.31,0-.46,0,.01-.38,.15-.71,.44-.97Z" class="cls-25"/><path d="M51.44,16.13c.37,.02,.7,.11,.89,.47-.38,0-.7-.11-.89-.47Z" class="cls-45"/><path d="M53.22,17.08c.39-.02,.74,.05,.96,.42-.39,.01-.71-.12-.96-.42Z" class="cls-45"/><path d="M67.46,23.1c.41-.03,.79,.01,1.01,.42-.4,0-.75-.1-1.01-.42Z" class="cls-25"/><path d="M80,23.52c.35,.02,.69,.04,1.04,.06-.28,.32-.64,.41-1.04,.37,0-.14,0-.29,0-.43Z" class="cls-25"/><path d="M94.72,26.76c.44,.21,.49,.59,.45,1.01-.35-.25-.44-.61-.45-1.01Z" class="cls-10"/><path d="M.24,28.58c.07-.2,.13-.41,.2-.61,.12,.08,.23,.17,.35,.26-.12,.22-.27,.39-.55,.36Z" class="cls-6"/><path d="M16.37,28.61c-.21,.37-.55,.45-.94,.44,.22-.33,.55-.45,.94-.44Z" class="cls-50"/><path d="M80.53,41.01c-.33,.01-.66,.02-.99,.04,0-.16,0-.33,.01-.49,.39,0,.74,.12,.98,.45Z" class="cls-20"/><path d="M46.82,62.66c.24-.35,.59-.39,.97-.37-.26,.29-.58,.42-.97,.37Z" class="cls-41"/><path d="M85.53,46.12c0,.14,0,.29,0,.43-.41,.05-.79-.03-1.07-.36,.35-.02,.71-.05,1.07-.07Z" class="cls-20"/><path d="M115.04,45.63c.21-.35,.55-.43,.92-.42-.23,.31-.54,.44-.92,.42Z" class="cls-47"/><path d="M115.96,45.2c.22-.41,.6-.46,1.01-.43-.25,.34-.6,.44-1.01,.43Z" class="cls-47"/><path d="M52.8,44.74c.01-.33,.03-.66,.04-.99,.31,.25,.43,.59,.46,.98-.17,0-.33,.01-.5,.02Z" class="cls-18"/><path d="M119.19,43.81c.2-.36,.54-.45,.91-.46-.2,.36-.53,.47-.91,.46Z" class="cls-47"/><path d="M40.94,43.76c-.42,.06-.81,.03-1.06-.39,.41-.02,.78,.07,1.06,.39Z" class="cls-47"/><path d="M73.52,1.03c-.18,.11-.36,.21-.54,.32,.18-.11,.36-.21,.54-.32Z" class="cls-37"/><path d="M84.75,1.8c-.27-.02-.47-.14-.6-.37,.2,.12,.4,.25,.6,.37Z" class="cls-1"/><path d="M85.65,2.26c-.27-.03-.46-.16-.58-.4,.19,.13,.39,.27,.58,.4Z" class="cls-1"/><path d="M86.84,3.22c-.13-.13-.25-.26-.38-.39,.22,.04,.35,.17,.38,.39Z" class="cls-1"/><path d="M87.42,4.13c-.28-.1-.43-.31-.46-.6,.15,.2,.3,.4,.46,.6Z" class="cls-1"/><path d="M119.48,8.82c.27,0,.47,.11,.61,.34-.2-.11-.41-.23-.61-.34Z" class="cls-27"/><path d="M9.92,10.62c-.18,.14-.36,.28-.53,.42,.18-.14,.36-.28,.53-.42Z" class="cls-4"/><path d="M77.69,11.07c-.14,.16-.29,.32-.43,.47,.04-.25,.18-.41,.43-.47Z" class="cls-6"/><path d="M77.24,11.57c-.14,.15-.27,.29-.41,.44,.14-.15,.27-.29,.41-.44Z" class="cls-6"/><path d="M76.78,12.05c-.16,.13-.32,.27-.48,.4,.16-.13,.32-.27,.48-.4Z" class="cls-6"/><path d="M76.31,12.45c-.16,.15-.32,.31-.47,.46,.07-.25,.23-.4,.47-.46Z" class="cls-6"/><path d="M52.4,13.82c-.17-.11-.34-.22-.5-.33,.17,.11,.34,.22,.5,.33Z" class="cls-45"/><path d="M53.35,14.26c-.18-.13-.36-.25-.55-.38,.18,.13,.36,.25,.55,.38Z" class="cls-45"/><path d="M80.01,14.19c.1-.11,.21-.22,.31-.33,0,.21-.11,.31-.31,.33Z" class="cls-6"/><path d="M54.25,14.73c-.17-.13-.35-.25-.52-.38,.17,.13,.35,.25,.52,.38Z" class="cls-45"/><path d="M55.23,15.17c-.26-.02-.46-.15-.58-.38,.19,.13,.39,.25,.58,.38Z" class="cls-45"/><path d="M69.73,14.81c.28,.03,.47,.18,.56,.45-.19-.15-.37-.3-.56-.45Z" class="cls-19"/><path d="M56.15,15.63c-.27-.02-.46-.15-.58-.38,.19,.13,.39,.25,.58,.38Z" class="cls-45"/><path d="M70.27,15.26c.17-.02,.34-.03,.51-.05-.02,.19-.04,.38-.05,.56-.15-.17-.3-.35-.45-.52Z" class="cls-19"/><path d="M52.34,16.6c.15,.12,.29,.24,.44,.36-.15-.12-.29-.24-.44-.36Z" class="cls-45"/><path d="M85.53,21.22c.19,.02,.38,.04,.56,.06-.19,.12-.38,.24-.57,.37,0-.14,0-.28,0-.42Z" class="cls-25"/><path d="M64.79,21.68c0,.16,0,.32-.01,.47-.16,.01-.3-.02-.43-.11,.15-.12,.3-.24,.44-.37Z" class="cls-36"/><path d="M95.25,28.14c.23,.14,.35,.34,.36,.61-.12-.2-.24-.41-.36-.61Z" class="cls-10"/><path d="M101.23,29.05c-.17-.15-.33-.29-.5-.44,.25,.05,.41,.2,.5,.44Z" class="cls-10"/><path d="M95.75,29.08c.13,.14,.25,.29,.38,.43-.21-.07-.36-.2-.38-.43Z" class="cls-2"/><path d="M96.14,29.52c.15,.16,.3,.32,.45,.49-.15-.16-.3-.32-.45-.49Z" class="cls-2"/><path d="M96.57,29.99c.15,.17,.31,.33,.46,.5-.15-.17-.31-.33-.46-.5Z" class="cls-2"/><path d="M66.55,36.93c.18,.14,.36,.28,.54,.42-.26-.04-.43-.19-.54-.42Z" class="cls-20"/><path d="M43.09,37.37c.17,.14,.33,.28,.5,.43-.17-.14-.33-.28-.5-.43Z" class="cls-18"/><path d="M67.95,37.86c.26,.06,.42,.22,.5,.47-.24-.08-.43-.21-.5-.47Z" class="cls-20"/><path d="M124.7,40.07c.15-.14,.29-.27,.44-.41-.05,.24-.2,.38-.44,.41Z" class="cls-47"/><path d="M124.24,40.55c.14-.15,.27-.29,.41-.44-.14,.15-.27,.29-.41,.44Z" class="cls-47"/><path d="M123.8,41.05c.14-.16,.29-.31,.43-.47-.04,.25-.19,.4-.43,.47Z" class="cls-47"/><path d="M93.43,64.13c.12,.19,.23,.38,.35,.57-.12-.19-.23-.38-.35-.57Z" class="cls-37"/><path d="M94.68,59.98c-.13-.15-.26-.31-.39-.46,.22,.08,.37,.22,.39,.46Z" class="cls-37"/><path d="M94.28,59.5c-.15-.15-.3-.3-.45-.46,.24,.06,.39,.21,.45,.46Z" class="cls-37"/><path d="M45.46,50.86c.11-.19,.21-.38,.32-.56-.11,.19-.21,.38-.32,.56Z" class="cls-47"/><path d="M41.15,48.47c.31,.07,.48,.27,.53,.58-.18-.19-.35-.39-.53-.58Z" class="cls-41"/><path d="M40.33,47.97c.15,.11,.3,.23,.45,.34-.15-.12-.3-.23-.45-.34Z" class="cls-41"/><path d="M39.73,47.56c.29,.02,.49,.16,.61,.42-.2-.14-.41-.28-.61-.42Z" class="cls-41"/><path d="M117.35,44.67c.14-.23,.35-.34,.62-.34-.2,.11-.41,.23-.62,.34Z" class="cls-47"/><path d="M118.26,44.27c.18-.14,.35-.27,.53-.41-.07,.27-.26,.39-.53,.41Z" class="cls-47"/><path d="M120.1,43.35c.12-.24,.32-.38,.59-.41-.2,.14-.39,.27-.59,.41Z" class="cls-47"/><path d="M121.04,42.82c.17-.12,.34-.24,.52-.36-.11,.21-.26,.35-.52,.36Z" class="cls-47"/><path d="M52.33,42.9c-.15,0-.31,0-.46,0,.01-.17,.02-.35,.03-.52,.14,.17,.28,.35,.43,.52Z" class="cls-18"/><path d="M114.58,41.97c-.21-.03-.42-.05-.64-.08,.21-.12,.43-.24,.64-.36,0,.14,0,.29,0,.43Z" class="cls-47"/><path d="M70.77,15.22c.2-1.1-.56-1.5-1.38-1.85,0,0,0,0,0,0-.27-.25-.18-.68-.46-.92-.15-.46,.53-.92,0-1.38-.48-.35,0-1.03-.46-1.39,.46-1.23,.92-2.45,1.38-3.68,1.71-.32,.97,1.19,1.38,1.84-1.73,.82,.06,2.37-.7,3.48-.21,.3,.4,1.11,1.16,1.14-.05,.95,0,1.86,1.15,2.16,.82,.21,1.56,.7,2.47-.13,.67-.61,1.88-.56,2.37-1.57,0,0,0,0,0,0,.17-.14,.31-.31,.46-.46h0c.67-.48,1.07-.14,1.38,.46,0,.15,0,.3,0,.46-.16,.15-.32,.3-.46,.47h0c-.76,1.07-1.91,1.7-3.05,2.12-1.04,.38-2.29,1.01-3.31-.33-.46-.6-1.27-.38-1.95-.41Z" class="cls-19"/><path d="M71.24,4.15c.55-.55,1.08-1.12,1.84-1.38,.41-.32,.84-.4,1.32-.16,.2,.18,.23,.39,.07,.61-.96,.69-1.88,1.43-2.88,2.05-.61,.37-.73-.2-.81-.66h0c.16-.14,.32-.3,.46-.46Z" class="cls-52"/><path d="M74.47,3.22c0-.15,0-.31,0-.46-.22-.81,.82-.79,.92-1.38,0,0,0,0,0,0,.42-.18,.82-.34,1.27-.05,.31,.2,.74,.3,.74,.74,0,.45-.4,.57-.76,.66-.72,.17-1.44,.33-2.16,.49Z" class="cls-40"/><path d="M83.69,2.77c-.16-.15-.31-.3-.47-.45,.16,.15,.31,.3,.47,.45Z" class="cls-1"/><path d="M109.04,8.3c-.96,.21-1.42-.61-2.03-1.2-.71,2.34-2.71,2.74-4.42,3.52-.12-.1-.16-.2-.12-.31,.04-.1,.08-.15,.12-.15,.3-.55,.46-1.13,.53-1.75,.05-.41,.34-.87,.68-.83,1.59,.17,2.55-1.11,3.86-1.57,.33,.43,.8,.6,1.17,.19,.85-.94,1.85-.88,2.95-.67,.94,.18,1.8-.23,2.69-.45,1.41-.35,1.69,0,1.35,1.4-.1,.42,.05,.7-.57,.45-2.08-.82-3.99-.39-5.74,.93-.14,.16-.33,.29-.46,.46h0Z" class="cls-43"/><path d="M109.04,8.3c.15-.15,.31-.31,.46-.46-.15,.15-.31,.31-.46,.46Z" class="cls-59"/><path d="M114.58,30.44c-.18-.44-.48-.75-.93-.93-.08-.53-.14-1.05-.23-1.57-.27-1.58-.45-1.87-1.92-3.24,1.24-.52,2.14,0,2.85,.81,.55,.63,1.52,1.19,.86,2.34-.46,.79,.21,1.88-.63,2.59Z" class="cls-6"/><path d="M16.83,20.3c-.38-.07-.78-.12-.83-.61-.03-.33,.17-.76,.44-.64,1.25,.53,2.39-.83,3.61-.13,.76-.38,1.28-.21,1.55,.8-1.61,.2-3.19,.4-4.77,.59Z" class="cls-42"/><path d="M45.88,22.14c.31,0,.62,0,.93,0-.31,.46-.62,.47-.93,0Z" class="cls-43"/><path d="M47.72,23.07c.31,0,.62,0,.93,0,.16,.1,.21,.21,.15,.31-.05,.1-.11,.15-.16,.15-.38,0-.72-.09-.92-.45Z" class="cls-43"/><path d="M47.26,22.6c.15,.15,.3,.31,.46,.46-.15-.15-.3-.31-.46-.46Z" class="cls-43"/><path d="M48.64,23.52c0-.15,0-.3,0-.46,.15,0,.3,0,.46,0,.06,.08,.12,.15,.18,.23-.06,.08-.12,.15-.17,.23-.16,0-.31,0-.47,0Z" class="cls-20"/><path d="M49.57,23.52c0,.15,0,.31,0,.46-.15-.15-.31-.31-.46-.46,0,0,0,0,0,0,.15-.14,.31-.14,.46,0h0Z" class="cls-20"/><path d="M44.5,48.43c0,.31,0,.62,0,.93,0,0,0,0,0,0-.52,.52,.03,1.31-.46,1.84h0c-.31,.26-.61,.26-.92,0h0c-.49-.53,.05-1.32-.46-1.85,0,0,0,0,0,0,.15-1.24,1.12-.83,1.84-.92Z" class="cls-36"/><path d="M43.11,61.35c-.31,0-.61,0-.92,0-.91-.81,.37-.9,.46-1.39,.79,.04,1.48,.59,2.3,.46,.27,.31,.27,.61,0,.92-.15,0-.31,0-.46,0-.46,.31-.92,.31-1.39,0Z" class="cls-51"/><path d="M35.74,44.28c1.19-.66,2.3-.73,3.23,.46-.92,.38-1.97-.68-2.87,.26-.06,.06-.32-.42-.35-.72Z" class="cls-47"/><path d="M33.43,50.74c-.14-.03-.3-.04-.43-.1-.43-.17-.5-.51-.33-.89,.04-.09,.26-.18,.36-.15,.35,.09,.37,.41,.38,.7,0,.15,0,.3,.01,.45,0,0,0,0,0,0Z" class="cls-22"/><path d="M38.96,44.74c.31-.47,.61-.47,.92,0-.31,0-.61,0-.92,0Z" class="cls-47"/><path d="M102.59,10.15c0,.15,0,.31,0,.46-3.08,2.37-4.54,5.79-5.99,9.22,.26,.31,.26,.62,0,.93v.91c.27,.31,.27,.62,0,.93h0c-.12,.1-.16,.2-.12,.31,.04,.1,.08,.15,.12,.15,0,0,0,0,0,0-.09,.72,.32,1.69-.92,1.84-.9-.61-.37-1.71-.86-2.48-.39-.62,.72-1.24,.1-1.92,1.27-.71,.36-1.93,.43-2.79,.18-2.26,1.81-3.41,3.01-4.84,.55-.65,.49-1.63,1.24-2.02,.92-.47,1.88-.96,2.99-.71Z" class="cls-8"/><path d="M52.33,56.27c-.88,3.01-3.24,4.28-5.99,5.07-.31,.27-.62,.27-.92,0h0c-.27-.31-.27-.62,0-.93,2.07-.39,3.27-2.22,5.05-3.11,.64-.32,.87-1.18,.94-1.96,.31,.31,.62,.62,.93,.92Z" class="cls-51"/><path d="M42.65,33.68c.15,.15,.31,.3,.46,.45-.15-.15-.31-.3-.46-.45Z" class="cls-51"/><path d="M52.79,55.81c-.15,.15-.3,.31-.45,.46,.15-.15,.3-.31,.45-.46Z" class="cls-51"/><path d="M94.29,63.65c-.04-.38-.04-.77-.13-1.14-.14-.54,.15-.67,.58-.7,1.4,1.01,1.55,2.88,2.75,4.03-.33,1.89,.79,3.77,.01,5.66-.01-.6-.32-.91-.92-.92,.16-.42,.62-.88,.36-1.27-1.11-1.64-1.49-3.59-2.33-5.34-.06-.13-.22-.21-.33-.31Z" class="cls-20"/><path d="M78.61,75.18c-.74-.41-1.35-.91-1.38-1.85,.73,.41,1.35,.91,1.38,1.85Z" class="cls-41"/><path d="M79.54,76.56c-.61-.26-.92-.72-.93-1.38,.61,.26,.92,.72,.93,1.38Z" class="cls-9"/><path d="M79.54,77.03c0-.16,0-.31,0-.47,.31,.15,.31,.31,0,.47Z" class="cls-9"/><path d="M88.76,15.22c.15-.16,.3-.31,.45-.47-.15,.16-.3,.31-.45,.47Z" class="cls-1"/><path d="M88.76,11.07c.03-.55,.19-1.16,.8-1.17,.75-.01,.53,.75,.64,1.21,.47,1.81,.35,2.11-.98,2.74,0,0,0,0,0,0-.56-.86,.14-1.92-.45-2.77h0Z" class="cls-53"/><path d="M45.42,60.42c0,.31,0,.62,0,.92-.15,0-.31,0-.46,0,0-.31,0-.61,0-.92,.15,0,.31,0,.46,0Z" class="cls-41"/><path d="M49.57,23.52s-.23,0-.23,0c0,0-.23,0-.23,0,0-.15,0-.31,0-.46,.15,.15,.31,.31,.46,.46Z" class="cls-43"/><path d="M88.3,56.27c-.46,0-.93,0-1.39,0-.78-.1-1.48-.34-1.88-1.09-.27-.49-.18-.92,.38-1.06,.57-.14,2.56,1.39,2.89,2.15Z" class="cls-18"/><path d="M84.31,53.65c-.08,.33-.37,.42-.64,.46-.28,.04-.37-.19-.27-.4,.09-.18,.28-.36,.46-.41,.21-.06,.39,.11,.45,.35Z" class="cls-18"/><path d="M45.42,61.35c.31,0,.62,0,.92,0-.02,.6-.32,.91-.92,.92,0-.31,0-.61,0-.92Z" class="cls-41"/><path d="M96.59,22.6c0-.31,0-.62,0-.93,.38,.01,.72,.1,.92,.47-.2,.37-.54,.45-.92,.46Z" class="cls-10"/><path d="M96.6,20.76c0-.31,0-.62,0-.93,.47,.31,.47,.62,0,.93Z" class="cls-10"/><path d="M16.83,29.53c.31,0,.62,0,.93,0-.31,.46-.62,.46-.93,0Z" class="cls-50"/><path d="M43.11,61.35c.46,0,.92,0,1.39,0-.46,.59-.92,.59-1.39,0Z" class="cls-41"/><path d="M11.76,31.83c.12-.18,.21-.39,.37-.53,.27-.23,.57-.2,.69,.15,.09,.27-.19,.34-.4,.36-.22,.02-.44,.01-.66,.02,0,0,0,0,0,0Z" class="cls-45"/><path d="M10.38,20.29c.46,0,.92,0,1.39,0-.47,.58-.93,.59-1.39,0Z" class="cls-51"/><path d="M75.38,1.38c.08,.72-.64,.9-.92,1.38-.46,0-.92,0-1.38,0,.4-1.07,1.58-.85,2.3-1.39Z" class="cls-37"/><path d="M68.47,9.68c.53,.34,.44,.88,.46,1.39-.3,0-.6,0-.9,0,0-.16,0-.31,0-.47,.37-.2,.44-.55,.45-.92Z" class="cls-9"/><path d="M71.24,4.15c-.15,.15-.31,.31-.46,.46,.15-.15,.31-.31,.46-.46Z" class="cls-37"/><path d="M42.65,49.35c.68,.48,.39,1.21,.46,1.84-.55-.33-.45-.88-.47-1.38,0-.15,0-.31,0-.46Z" class="cls-41"/><path d="M44.04,51.2c.07-.63-.22-1.36,.46-1.84-.07,.63,.21,1.36-.46,1.84Z" class="cls-47"/><path d="M43.11,51.2c.31,0,.61,0,.92,0-.31,.47-.61,.47-.92,0Z" class="cls-47"/><path d="M79.53,12.92c-.45-.19-.86-.49-1.38-.46,.29-.52,.58-1.08,1.31-.67,.53,.3,.21,.74,.08,1.13Z" class="cls-6"/><path d="M78.15,12.45c-.15,.15-.31,.31-.46,.46,.15-.15,.31-.31,.46-.46Z" class="cls-6"/><path d="M79.07,13.84c.15-.16,.31-.31,.46-.47-.15,.16-.31,.31-.46,.47Z" class="cls-6"/><path d="M88.76,11.07c.83,.81,.32,1.84,.45,2.77-.82-.81-.32-1.84-.45-2.77Z" class="cls-1"/><path d="M96.6,23.06c-.32-.15-.32-.31,0-.46,0,.15,0,.31,0,.46Z" class="cls-10"/><path d="M68.93,12.45c.37,.2,.45,.54,.46,.92-.37-.2-.46-.54-.46-.92Z" class="cls-9"/></svg>